<?xml version="1.0" encoding="UTF-8" standalone="no"?>
<svg
   xmlns:dc="http://purl.org/dc/elements/1.1/"
   xmlns:cc="http://creativecommons.org/ns#"
   xmlns:rdf="http://www.w3.org/1999/02/22-rdf-syntax-ns#"
   xmlns:svg="http://www.w3.org/2000/svg"
   xmlns="http://www.w3.org/2000/svg"
   xmlns:sodipodi="http://sodipodi.sourceforge.net/DTD/sodipodi-0.dtd"
   xmlns:inkscape="http://www.inkscape.org/namespaces/inkscape"
   id="a1bb6ffe-8d83-4899-8fa0-fcb3165ea164"
   data-name="Layer 1"
   width="884.595"
   height="628.60077"
   viewBox="0 0 884.595 628.60077"
   version="1.1"
   sodipodi:docname="inprogress.svg"
   inkscape:version="1.0.1 (3bc2e813f5, 2020-09-07)">
  <metadata
     id="metadata195">
    <rdf:RDF>
      <cc:Work
         rdf:about="">
        <dc:format>image/svg+xml</dc:format>
        <dc:type
           rdf:resource="http://purl.org/dc/dcmitype/StillImage" />
      </cc:Work>
    </rdf:RDF>
  </metadata>
  <defs
     id="defs193" />
  <sodipodi:namedview
     pagecolor="#ffffff"
     bordercolor="#666666"
     borderopacity="1"
     objecttolerance="10"
     gridtolerance="10"
     guidetolerance="10"
     inkscape:pageopacity="0"
     inkscape:pageshadow="2"
     inkscape:window-width="750"
     inkscape:window-height="480"
     id="namedview191"
     showgrid="false"
     inkscape:zoom="0.3341292"
     inkscape:cx="302.89171"
     inkscape:cy="230.31995"
     inkscape:window-x="72"
     inkscape:window-y="27"
     inkscape:window-maximized="0"
     inkscape:current-layer="a1bb6ffe-8d83-4899-8fa0-fcb3165ea164" />
  <title
     id="title2">work_in_progress</title>
  <g
     id="g1113"
     transform="matrix(0.81748307,0,0,0.81748307,114.02091,53.25569)">
    <ellipse
       cx="75.17704"
       cy="619.60077"
       rx="75.13932"
       ry="9"
       fill="#e6e6e6"
       id="ellipse4" />
    <rect
       x="196.21663"
       y="0.39024001"
       width="688.37836"
       height="440.86813"
       fill="#e6e6e6"
       id="rect6" />
    <rect
       x="215.90065"
       y="55.6861"
       width="649.01031"
       height="359.49048"
       fill="#ffffff"
       id="rect8" />
    <rect
       x="195.9227"
       width="688.37836"
       height="29.244829"
       fill="#e79cc2"
       id="rect10"
       y="0" />
    <circle
       cx="217.65511"
       cy="14.95151"
       r="5.4203"
       fill="#ffffff"
       id="circle12" />
    <circle
       cx="238.22923"
       cy="14.95151"
       r="5.4203"
       fill="#ffffff"
       id="circle14" />
    <circle
       cx="258.80334"
       cy="14.95151"
       r="5.4203"
       fill="#ffffff"
       id="circle16" />
    <path
       d="m 742.44775,281.8936 a 5.23348,5.23348 0 0 0 -0.19223,1.234 z"
       transform="translate(-157.7025,-135.69961)"
       fill="#7f77ff"
       id="path18" />
    <path
       d="m 659.44564,319.87593 c -0.0382,-0.90346 -0.19957,-1.281 -0.34635,-1.32655 0.10617,0.83884 0.20548,1.52779 0.34635,1.32655 z"
       transform="translate(-157.7025,-135.69961)"
       fill="#7f77ff"
       id="path20" />
    <path
       d="m 657.76939,338.945 c -0.0293,0.39133 -0.0587,0.75333 -0.10761,1.19362 a 1.88,1.88 0 0 1 0.10761,-1.19362 z"
       transform="translate(-157.7025,-135.69961)"
       fill="#7f77ff"
       id="path22" />
    <path
       d="m 742.25552,283.12759 -0.50879,3.17018 c 0.52784,0.22179 0.39186,-1.62477 0.50879,-3.17018 z"
       transform="translate(-157.7025,-135.69961)"
       fill="#7f77ff"
       id="path24" />
    <path
       d="m 770.88052,253.58909 0.96371,-0.002 a 4.96237,4.96237 0 0 0 0.80063,-0.658 z"
       transform="translate(-157.7025,-135.69961)"
       fill="#7f77ff"
       id="path26" />
    <path
       d="m 808.65038,255.25633 a 1.141,1.141 0 0 1 0.86906,-0.94221 6.21493,6.21493 0 0 0 -0.864,-0.97351 c -0.46673,-0.0597 0.0253,1.31497 -0.005,1.91572 z"
       transform="translate(-157.7025,-135.69961)"
       fill="#7f77ff"
       id="path28" />
    <path
       d="m 848.16881,228.32035 c 0.12612,-0.0192 0.24615,-0.038 0.34187,-0.0571 z"
       transform="translate(-157.7025,-135.69961)"
       fill="#7f77ff"
       id="path30" />
    <path
       d="m 847.381,228.452 0.78785,-0.13168 c -0.26113,0.0396 -0.5581,0.0809 -0.78785,0.13168 z"
       transform="translate(-157.7025,-135.69961)"
       fill="#7f77ff"
       id="path32" />
    <path
       d="m 740.64555,256.83715 a 0.45758,0.45758 0 0 0 -0.49069,0.22459 c 0.17175,0.11173 0.33561,-0.003 0.49069,-0.22459 z"
       transform="translate(-157.7025,-135.69961)"
       fill="#7f77ff"
       id="path34" />
    <path
       d="m 896.326,229.86313 0.0739,0.64489 a 3.06818,3.06818 0 0 0 0.77053,0.13955 z"
       transform="translate(-157.7025,-135.69961)"
       fill="#7f77ff"
       id="path36" />
    <path
       d="m 654.72658,362.1037 c 0.01,0 0.01,0.01 -0.01,0.0293 0,0.01 -0.01,0.0196 -0.0195,0.0294 0,0.0196 -0.14678,0.0391 -0.25439,0.0587 a 0.8391,0.8391 0 0 0 -0.16637,-0.0294 c 0.14678,-0.0195 0.29356,-0.0489 0.411,-0.0587 0.0195,-0.0195 0.0293,-0.0293 0.0391,-0.0293 z"
       transform="translate(-157.7025,-135.69961)"
       fill="#7f77ff"
       id="path38" />
    <path
       d="m 544.57257,513.61357 c -3.85616,-1.22885 6.27575,-1.57766 0.47009,-2.944 0.54061,0.53861 -5.27676,2.14511 -0.47009,2.944 z"
       transform="translate(-157.7025,-135.69961)"
       fill="#7f77ff"
       id="path40" />
    <path
       d="m 575.3979,379.85189 a 2.40948,2.40948 0 0 1 -0.60661,0.87073 c 0.29357,-0.64571 0.45988,-0.84141 0.60661,-0.87073 z"
       transform="translate(-157.7025,-135.69961)"
       fill="#7f77ff"
       id="path42" />
    <path
       d="m 632.48757,364.97041 a 9.63562,9.63562 0 0 1 -1.57521,-0.17611 z"
       transform="translate(-157.7025,-135.69961)"
       fill="#7f77ff"
       id="path44" />
    <path
       d="m 554.96633,384.709 a 4.26668,4.26668 0 0 0 -1.62638,4.2e-4 1.626,1.626 0 0 0 0.35549,0.16726 2.46748,2.46748 0 0 1 1.27089,-0.16768 z"
       transform="translate(-157.7025,-135.69961)"
       fill="#7f77ff"
       id="path46" />
    <path
       d="m 554.96633,384.709 c 0.2043,0.0358 0.41808,0.077 0.69027,0.11048 a 5.335,5.335 0 0 0 -0.69027,-0.11048 z"
       transform="translate(-157.7025,-135.69961)"
       fill="#7f77ff"
       id="path48" />
    <path
       d="m 521.25925,384.82774 c 0.18214,0.10522 0.42309,0.18392 0.63461,0.2769 0.34086,-0.0231 0.73894,-0.0501 1.09,-0.0739 z"
       transform="translate(-157.7025,-135.69961)"
       fill="#7f77ff"
       id="path50" />
    <path
       d="m 549.81278,385.75161 a 0.13721,0.13721 0 0 1 -0.0783,0.10761 c 0.0391,-0.0587 0.0783,-0.10761 0.0783,-0.10761 z"
       transform="translate(-157.7025,-135.69961)"
       fill="#7f77ff"
       id="path52" />
    <path
       d="m 890.71159,511.61819 c -0.22209,-0.0192 -0.44173,-0.0375 -0.685,-0.0637 0.25635,0.033 0.47897,0.0516 0.685,0.0637 z"
       transform="translate(-157.7025,-135.69961)"
       fill="#7f77ff"
       id="path54" />
    <path
       d="m 899.98519,480.04813 c -0.008,4.2e-4 -0.0155,0.006 -0.0239,0.006 0.008,0.0374 0.0161,0.0264 0.0239,-0.006 z"
       transform="translate(-157.7025,-135.69961)"
       fill="#7f77ff"
       id="path56" />
    <path
       d="m 629.55237,365.86073 a 5.38359,5.38359 0 0 0 1.02731,-0.3033 c 0.71421,0.18589 -0.26419,0.1761 -1.02731,0.3033 z"
       transform="translate(-157.7025,-135.69961)"
       fill="#7f77ff"
       id="path58" />
    <path
       d="m 898.98583,359.48626 c 0.0528,-0.23194 0.10778,-0.4929 0.17317,-0.81114 -0.0636,0.27404 -0.116,0.54116 -0.17317,0.81114 z"
       transform="translate(-157.7025,-135.69961)"
       fill="#7f77ff"
       id="path60" />
    <path
       d="m 900.75506,463.691 a 2.06329,2.06329 0 0 1 0.44029,-0.62619 l 0.13693,0.4892 a 8.84769,8.84769 0 0 0 -0.19563,-3.0037 29.14317,29.14317 0 0 0 0.37173,-3.943 c 1.0371,-0.55769 0.5577,-5.59642 0.6164,-8.02283 -1.36972,0.19563 -1.15451,-2.92547 -2.2601,-0.0783 0.0783,-0.16631 0.12719,0.66531 0.1859,2.15249 a 6.59548,6.59548 0 0 0 0.14678,1.0371 c -0.0391,-0.049 -0.0783,-0.10766 -0.1272,-0.16637 0.0293,1.5948 0.0587,3.6788 0.0978,6.04657 a 9.89108,9.89108 0 0 1 -0.52831,-6.62379 c -0.88059,-1.24259 -1.79049,-2.6221 -2.2112,-3.39508 1.91769,-3.32652 2.95479,-9.74482 4.12888,-10.6352 -0.76318,-7.426 -0.50879,-17.4938 -3.09178,-22.17052 -0.33262,-2.11337 0.7436,-2.42641 1.15451,-3.219 0.25439,1.223 0.21528,2.67107 0.58707,3.33638 -0.6653,-4.2267 -0.25439,-12.51372 -2.06447,-13.5215 0.81209,-5.3225 1.6633,2.9939 1.36979,-4.32451 l 0.5479,0.98819 c 2.83738,-14.13789 -4.3441,-23.08048 -1.07622,-38.52939 -0.12719,0.57722 -0.2446,0.9197 -0.45988,1.07622 1.634,-18.17869 -1.53609,-37.47271 1.05669,-55.41659 0.51852,-5.09743 -0.62619,-5.65512 -1.50671,-8.76643 l 1.47733,-1.10559 -1.7024,-5.3225 c -1.25232,-7.54349 3.62009,-13.06168 1.26217,-22.6206 l -0.998,1.23279 c 0.1957,-3.43419 -0.587,-10.87007 0.5577,-10.29279 a 2.43966,2.43966 0 0 1 -0.50879,-2.46558 l 0.773,-0.10761 -1.33067,-8.43381 c 0.55769,-6.52591 3.07219,1.02731 3.219,-8.51209 -0.29357,-3.5418 -2.25037,-10.0873 -2.76889,-8.75669 -0.0294,1.42849 -0.4794,3.64947 -1.25238,3.75708 l -0.40112,-3.2385 c -0.14678,-0.0392 -0.28371,-0.0783 -0.43049,-0.1272 v -0.51858 h -1.39911 a 2.3532,2.3532 0 0 0 -1.8394,0 h -35.07565 l 0.38153,-0.38153 -1.1545,0.38153 h -4.95071 c 0.14679,-0.2935 0.6164,-0.5381 1.5948,-0.65551 -3.6005,-1.00772 -3.18959,0.724 -6.27152,-0.40112 -0.34247,-0.1761 -0.19569,-0.274 0.1272,-0.35226 l -3.52228,0.6066 c 0.69469,-0.43044 -0.57722,-1.43822 1.57521,-1.14471 -6.30089,-1.17409 -10.16553,1.5263 -12.543,-0.0195 l 0.52831,-0.11746 c -6.54549,0.50878 -3.77661,1.08607 -4.71589,2.084 h -4.0897 l -0.82188,-0.68483 -1.10559,-0.9197 a 7.79269,7.79269 0 0 0 -1.223,-0.9197 11.583,11.583 0 0 0 -0.90012,1.48713 c -1.01751,-0.0489 -3.1113,-0.15652 -3.01348,-0.76312 -1.79043,0.51852 -1.41864,0.6751 -0.98814,0.83162 0.46961,0.15657 1.0371,0.3033 0.313,0.7925 a 18.45938,18.45938 0 0 0 -3.49284,-0.47941 c -0.12719,2.17208 0.0293,4.804 -0.0196,6.80969 -0.0489,2.09373 -0.2935,3.44392 -1.25238,3.86469 1.135,1.55562 0.88059,-4.1582 1.67309,0.47941 -2.5634,1.30122 0.4305,5.42031 -0.74359,9.285 -1.32082,-1.11539 -0.6164,-4.9507 -1.80023,-0.95881 a 3.48217,3.48217 0 0 1 0.80224,1.38931 4.35527,4.35527 0 0 1 0.0392,1.5948 14.69191,14.69191 0 0 1 -0.7925,2.7493 4.82654,4.82654 0 0 0 -1.7709,-0.10761 c 0.587,0.89032 -0.724,1.07621 -2.6906,1.11533 -1.18389,0 -2.54388,0.01 -3.93319,0.01 -1.4578,0.0196 -2.95478,0.0587 -4.36368,0.20549 0.35227,-0.59681 -10.5765,-0.96861 -15.80113,-1.61439 l 0.14673,-0.3033 c -1.00772,1.80029 -6.39872,1.45781 -10.3319,1.82961 0.15658,-1.07622 0.861,-1.49692 2.9939,-1.97633 l -3.69832,0.01 c -0.87079,0.57728 -2.0155,0.88059 -4.41259,1.08607 l 0.92949,-1.35019 c -2.4558,0.0391 -4.93112,0.44023 -7.5826,0.71421 -1.33061,0.137 -2.6906,0.2348 -4.12888,0.25439 -0.71421,0.01 -1.448,-0.01 -2.2014,-0.0489 -0.3718,-0.0196 -0.75333,-0.049 -1.13492,-0.0881 q -0.64575,-0.0734 -1.29149,-0.14678 c -0.137,0.31309 0.34241,0.69468 0.64577,1.08607 a 8.80637,8.80637 0 0 1 1.01752,1.23279 0.85294,0.85294 0 0 1 0.088,0.84141 h -3.4244 c 0.01,-0.3718 0.23487,-0.70448 0.95887,-0.88058 a 7.38655,7.38655 0 0 1 -3.10157,0.20548 c 0.78277,-0.3718 1.69267,-0.75339 2.72,-1.135 -3.71791,-0.49893 -1.5263,0.94908 -4.13861,0.84147 -0.53817,-0.95887 -2.5047,-0.68489 -2.72,-1.44807 0.7338,-0.0978 2.84718,0.39138 3.7864,0.0196 -1.947,-0.0978 -4.24622,-0.32289 -6.3596,-0.636 a 8.3257,8.3257 0 0 1 -0.84141,2.7004 c 0.5479,0.0489 1.30129,0.9686 1.4187,3.4831 0.0391,3.219 -0.2544,3.73749 -0.6164,3.943 -0.17611,0.0978 -0.3718,0.10761 -0.5577,0.362 a 2.28648,2.28648 0 0 0 -0.26418,0.5577 3.932,3.932 0 0 0 -0.21522,0.812 c 0.6653,1.19368 -0.0294,4.32457 1.41869,4.41259 -0.01,1.43828 -0.68489,1.70241 -1.07628,2.2601 0.636,2.54388 0.1859,11.87779 1.722,9.01109 l 0.0978,-0.65551 c 0.0294,0.12719 0.0392,0.26412 0.0685,0.4207 a 39.85871,39.85871 0 0 1 0.46967,7.6413 c -0.0587,2.13291 -0.26419,4.1582 -0.45988,5.9389 -1.43822,-0.1272 -2.76889,-0.23481 -4.01141,-0.29351 -0.62619,-0.0196 -1.2328,-0.0392 -1.8394,-0.0196 l -1.17409,0.0293 c -0.41091,0.0294 -0.83162,0.049 -1.24259,0.0685 l 0.0196,-0.47941 c -4.94091,0.5479 -10.99721,0.32289 -14.51942,1.36978 -1.45787,-0.01 -3.444,-0.89037 -2.8178,-1.4578 -3.77667,0.362 -4.19738,0.90011 -9.64707,0.10761 3.7864,-0.84141 -1.311,-0.75339 3.88428,-0.6164 -4.90179,-0.4207 -6.01719,-1.19368 -11.281,0.1272 1.79049,-1.24259 -3.68853,-1.55568 -6.01713,-1.19368 l 3.4342,0.89038 a 61.23355,61.23355 0 0 1 -7.24019,-0.0392 l 1.25233,-1.62412 c -5.00941,-0.98819 -9.5394,-0.14678 -13.766,0.52832 a 39.94327,39.94327 0 0 1 -6.13459,0.636 l -0.74359,-0.01 -0.949,-0.0489 c -0.7338,-0.0391 -1.47739,-0.0979 -2.23078,-0.1859 a 45.24887,45.24887 0 0 1 -4.90179,-0.861 c -1.76111,0.56748 0.58707,0.76318 2.7493,0.98819 2.221,0.225 4.23649,0.47941 2.71019,1.14471 a 78.21973,78.21973 0 0 1 -9.63722,-1.24259 37.73365,37.73365 0 0 0 -1.32088,6.526 c -0.1174,1.28171 -0.15651,2.446 -0.15651,3.47331 0,0.50879 0.01,0.998 0.0391,1.448 0.01,0.20548 0.0196,0.50878 0.0391,0.6066 0.0196,0.1174 0.0392,0.2446 0.0587,0.362 a 10.96406,10.96406 0 0 0 0.79256,2.45579 11.43282,11.43282 0 0 1 0.98813,6.3694 c 0.57728,-0.85121 2.13291,-1.64371 2.67107,3.2972 -0.1174,2.73951 -0.95887,4.23649 -1.7122,4.37348 -0.4207,0.088 -0.81208,-0.25439 -1.0371,-1.01757 a 3.13135,3.13135 0 0 1 -0.14678,-0.59681 c -0.0489,-1.1056 0.137,-1.63391 0.33268,-1.5948 -0.21528,-1.48719 -0.45988,-3.444 -1.08607,-1.61432 l 0.57728,0.59681 a 18.17241,18.17241 0 0 0 -0.37179,2.54381 c -0.26419,2.6319 -0.42071,5.6943 -1.11539,4.60829 0.4794,2.9841 0.84141,1.9568 1.12518,-0.0294 -0.6164,5.28338 0.0685,8.57079 -0.45988,14.29446 0.32289,-0.96866 1.00778,-1.86877 0.998,-0.90017 -0.724,8.94259 1.1056,3.943 1.36,9.99928 -0.89038,3.44393 -2.11338,-1.23279 -1.37958,4.86262 -0.59681,3.7277 -1.53609,0.7925 -2.00571,-0.68489 a 21.70749,21.70749 0 0 1 0.0196,7.67068 c -0.0294,0.16631 -0.0489,0.33268 -0.0783,0.4892 -0.0196,0.1174 -0.0391,0.2446 -0.0587,0.362 l -0.0391,0.20549 c -0.01,0.0587 -0.0196,0.0489 -0.0294,0.0685 l -0.0783,0.0978 a 1.78726,1.78726 0 0 1 -0.29351,0.26419 2.917,2.917 0 0 0 -0.39133,0.27392 1.99115,1.99115 0 0 0 -0.35226,-0.42071 0.64863,0.64863 0 0 1 0.15657,0.499 3.63058,3.63058 0 0 0 0.3718,0.21522 3.758,3.758 0 0 0 0.7925,0.3033 c -0.19569,0.28377 -0.20548,0.56749 -0.58707,0.21528 a 0.64064,0.64064 0 0 1 -0.11741,-0.10761 6.96929,6.96929 0 0 0 1.21327,1.37952 c 0.50873,0.51858 1.11533,1.07621 0.53811,1.59479 a 6.09822,6.09822 0 0 0 -2.4558,-0.0978 c -0.20548,0.01 -0.41091,0.01 -0.6066,0 a 7.8201,7.8201 0 0 1 -0.9197,-0.10767 1.638,1.638 0 0 1 -1.23279,-0.70442 c 0.9099,0.0685 1.56541,0.088 2.05461,0.0783 0.26419,0 0.362,-0.0392 0.4403,-0.10767 0.137,-0.11741 0.0392,-0.34242 -0.0489,-0.57723 -0.16631,-0.40117 -0.225,-0.8512 0.0685,-1.07627 a 0.5771,0.5771 0 0 1 -0.137,0.0196 0.83366,0.83366 0 0 1 -0.25439,-0.0489 c -0.3718,-0.0294 -0.75333,-0.0685 -1.15451,-0.10761 -0.25439,-0.17611 0.2446,-0.32289 0.71422,-0.411 -0.52832,-0.10761 -0.99793,-0.1859 -1.40884,-0.2446 a 6.87554,6.87554 0 0 0 -2.45579,0 c -1.7807,0.4207 -1.39911,1.97638 -6.44769,1.94706 0.90011,-0.861 -1.66329,-1.64376 -2.82759,-1.45786 2.88629,0.0196 1.37958,1.44807 -1.26211,2.11337 -4.5887,-0.67509 -4.98008,0.499 -7.38691,0.42071 l 2.73951,0.32289 c -0.92949,0.87073 -3.21892,0.75333 -6.40851,1.02731 -0.0881,-0.21528 0.15652,-0.33269 0.50873,-0.42071 -3.2972,0.50873 -7.24992,-1.76111 -11.58422,-0.9197 a 0.57568,0.57568 0 0 0 -0.1272,0.0195 c -2.28948,-0.587 -0.225,-1.62412 -2.24051,-2.02524 -5.53778,1.12513 -5.9976,-1.19367 -11.82889,-0.26418 1.68288,1.17409 1.97639,0.89032 -2.1329,2.02529 l 9.58831,-0.82188 -6.15412,1.69267 c 2.896,0.0195 6.10521,-0.7338 7.837,-0.52837 -2.9352,0.94908 -2.6319,0.65551 -1.24259,1.62418 -3.96251,-1.75138 -7.84679,1.0273 -12.4159,-0.15658 l 0.137,-2.896 a 27.20633,27.20633 0 0 0 -8.77628,0.0391 l -1.11533,0.14672 -0.55769,0.0685 -0.14679,0.0196 -0.225,0.0196 -0.45988,0.0391 c -1.20341,0.0881 -2.42641,0.18589 -3.68853,0.28371 -2.47538,0.16637 -4.99967,0.28377 -7.8859,0.26419 -0.01,1.29149 -0.049,2.6319 -0.11746,4.031 l 0.45988,-3.68853 0.362,0.0391 a 0.39668,0.39668 0 0 1 -0.1761,0.14672 18.35844,18.35844 0 0 1 0.41091,5.53778 c 0,0.16631 -0.01,0.34241 -0.01,0.51852 v 0.01 c -0.0195,0.9197 -0.0489,1.87857 -0.0587,2.83739 q 0,0.85124 0.0294,1.67308 c 0.01,0.27392 0.0293,0.53811 0.0391,0.80224 l 0.0294,0.38159 0.0391,0.26419 c -0.9686,-0.274 -1.32081,1.53609 -1.91768,2.76888 0.17616,-0.0392 0.26419,0.35221 0.32289,0.96861 0.0587,0.25439 0.0881,0.56743 0.15657,0.93923 a 5.1731,5.1731 0 0 0 1.37952,2.70039 2.42161,2.42161 0 0 1 -0.499,0.38159 17.13229,17.13229 0 0 1 -1.76111,-0.77291 2.825,2.825 0 0 0 -1.78069,0.20542 c -0.1272,0.0587 -0.2544,0.1272 -0.3816,0.19569 a 0.98459,0.98459 0 0 1 -0.32282,0.10761 c -0.137,0.0392 -0.274,0.0783 -0.40118,0.11741 -0.53811,0.16637 -1.0469,0.34247 -1.54589,0.51858 a 17.20131,17.20131 0 0 1 -7.47493,1.2817 c 2.084,-1.0469 -1.06648,-1.73179 3.58092,-2.48512 -2.31881,-0.01 -4.393,-0.18589 -4.43212,0.47941 a 1.99028,1.99028 0 0 0 -0.79251,-0.1174 c -1.16429,0.01 -3.03307,0.45982 -4.74527,0.6653 a 8.03771,8.03771 0 0 1 -2.47532,0 2.08861,2.08861 0 0 1 -0.52838,-0.15658 2.96469,2.96469 0 0 0 -0.3033,0.15658 4.67734,4.67734 0 0 1 -3.59073,1.19365 0.25008,0.25008 0 0 1 -0.0685,-0.3718 c -0.51852,0.40118 -3.81579,0.62619 -1.7122,1.61439 -3.082,-1.30129 -7.2206,-1.43828 -11.4375,-1.37958 -5.52793,0.0685 -11.17331,0.47947 -14.69559,-0.98813 -2.52423,0.15651 -5.30291,0.32283 -8.03262,0.45 -1.36,0.0489 -2.71019,0.10767 -4.00169,0.15658 -0.64571,0.0195 -1.2817,0.0391 -1.8883,0.0587 -0.68489,0.01 -1.3404,0.0293 -1.96659,0.0391 0.19569,-0.14673 0.19569,-0.26419 0.3033,-0.33263 a 1.22958,1.22958 0 0 1 0.75339,-0.049 c -0.17611,-0.0195 -0.29351,-0.0489 -0.50879,-0.0587 -0.21522,-0.0195 -0.4305,-0.0293 -0.63593,-0.0489 -0.411,-0.0196 -0.7925,-0.0293 -1.14477,-0.0391 a 15.30767,15.30767 0 0 0 -1.80022,0.0978 5.38684,5.38684 0 0 0 -2.084,0.64578 5.77888,5.77888 0 0 1 -3.5418,1.3306 17.04431,17.04431 0 0 1 -0.15658,3.15042 c -0.39132,0.85121 -0.63592,1.0469 -0.80223,0.76318 a 5.76562,5.76562 0 0 1 -0.28378,-1.80028 c -0.088,-1.55562 -0.0587,-3.31673 -0.35221,-2.00571 -1.585,-0.70441 -1.47739,3.033 -1.20341,7.12278 0.13693,2.37751 0.3131,3.41461 0.34242,4.91153 a 10.80214,10.80214 0 0 1 -0.5577,4.02127 l -0.1859,-1.17409 c -1.086,3.69832 1.20348,9.03061 0.9784,15.07712 0,0 -0.28371,-0.29351 -0.4794,-0.0391 1.61438,4.13861 2.15249,11.96581 2.60252,17.77751 -1.24253,-1.81 -0.65552,-2.64169 -1.91763,-1.53609 0.1761,2.61231 2.02529,-0.76312 2.3775,4.442 -0.67509,1.69261 -1.2719,5.44964 -2.6221,5.94863 l -0.0783,-4.91153 c -1.74152,2.51444 0.0685,6.34981 -0.23481,8.94253 l -0.76318,-0.33262 c 0.2446,7.5239 2.16229,7.63151 2.0253,15.7131 l 0.57728,-0.83168 c 1.90789,4.42239 -1.06648,3.70818 0.35221,8.111 l -1.93721,1.3404 c 0.46961,2.91561 1.86872,10.20471 2.23072,15.43912 -1.42843,-2.96452 -2.16223,-9.07952 -3.01343,-12.86592 -0.01,2.88629 0.14672,9.82311 1.0958,11.32989 -0.1859,-1.1643 -0.65557,-2.6319 -0.362,-3.78647 1.51651,3.54187 2.2601,8.20879 2.23072,13.97158 -1.223,-0.33268 -1.75131,1.15451 -2.00571,3.46352 -0.01,0.14678 -0.0294,0.29357 -0.0391,0.45008 -0.01,0.21522 -0.0294,0.4403 -0.0392,0.66531 -0.0195,0.45988 -0.0391,0.92949 -0.0685,1.41869 -0.0195,0.9784 -0.0489,2.0155 -0.0782,3.07219 -0.049,2.16223 -0.0979,4.43212 -0.14678,6.63352 4.47129,0.14678 8.58058,0.46961 10.96788,1.47739 l 0.8023,-0.0685 0.49893,-0.0587 0.95887,-0.0978 q 0.9539,-0.088 1.90783,-0.14678 c 1.272,-0.088 2.54388,-0.11741 3.82558,-0.1272 2.55361,-0.01 5.1366,0.0979 7.7685,0.2446 5.2638,0.29351 10.733,0.7338 16.67191,0.6164 -4.2071,-2.90582 3.46358,-0.0783 2.73951,-3.07219 2.73957,-0.1859 3.7962,-0.13693 4.05059,0.049 l -0.40112,-0.0881 c 0.14673,0.0391 0.26413,0.0685 0.42071,0.10761 v -0.01 l 8.3751,1.78069 c 1.98612,0.87079 -2.6319,0.65558 -2.3775,1.33061 6.05629,0.23487 2.54381,1.272 6.54549,2.06447 -0.82188,-1.06648 2.10353,-1.53609 5.55731,-1.12518 l -4.8627,-1.37951 c 8.46318,-1.5948 7.31847,2.5145 15.8403,0.92943 l -2.70034,0.94908 c 4.38322,-0.55769 16.1436,0.0196 20.43873,-2.3873 0.773,0.34242 1.80028,1.1643 -0.12719,1.37952 10.45909,0.36207 23.27617,-2.55361 31.40667,-1.07621 l -0.7925,0.7338 c 1.947,-0.21522 3.395,-1.37952 5.841,-0.64572 -0.1272,0.3033 -0.7925,0.7338 0.1174,0.77291 1.02731,-0.2446 5.17577,-1.2817 7.7685,-0.8512 l -2.2112,0.82182 c 6.41831,0.60667 10.9581,-0.34241 15.57618,-1.26211 a 61.39013,61.39013 0 0 1 8.62949,-1.24259 c -0.0196,2.15249 8.0033,2.857 12.01472,3.19939 l -0.14678,0.3033 a 106.329,106.329 0 0 0 14.25529,-0.69469 c 3.62989,-0.40111 7.1521,-0.9099 10.8798,-1.33061 h 0.01 c 0.2348,-0.0293 0.46967,-0.0587 0.71427,-0.088 0.861,-0.0979 1.74152,-0.1859 2.6319,-0.274 0.27392,-0.0293 0.55763,-0.0587 0.84141,-0.088 q 0.9099,-0.0735 1.84919,-0.14679 a 38.24031,38.24031 0 0 0 9.54913,1.3502 c 7.6511,0.3718 17.27858,0.0685 24.55788,0.93929 -1.68288,-0.39139 0.27392,-1.68288 2.22092,-1.8981 2.41668,0.41091 6.56509,-1.26218 6.7314,0.15652 a 0.94917,0.94917 0 0 1 -0.0195,0.32288 l -0.87079,-0.0392 h -0.0489 l 0.01,0.01 c 1.947,1.92748 7.23033,1.4187 11.35921,1.4676 l 0.67509,-2.583 c 10.81131,3.75709 28.32469,-1.37951 34.22442,1.98618 2.61231,-0.64571 5.84107,-0.636 8.424,-1.2817 l -0.13693,1.37952 a 184.91357,184.91357 0 0 0 19.76364,0.19569 l -1.81981,0.998 c 5.03878,0.088 6.3596,-4.00168 11.01679,-4.07991 l 1.38931,2.06441 c 8.79581,-0.0294 17.68949,1.79049 26.37768,-0.0881 -0.137,0.3033 -0.40117,0.90017 -1.81981,0.98819 4.00163,0.0489 15.2337,1.31108 14.60751,-1.17409 0.95881,1.3991 9.21651,-0.1272 13.70739,-0.90011 l -0.7338,1.36 c 2.00571,-0.87079 3.033,-1.42849 4.26581,-1.81981 a 14.25085,14.25085 0 0 1 2.1427,-0.499 c 0.45,-0.0685 0.88052,-0.137 1.49692,-0.19569 0.74359,-0.0587 1.585,-0.1174 2.53408,-0.1859 1.68282,0.16631 1.9666,0.9197 -0.01,0.81209 a 12.65891,12.65891 0 0 0 4.41259,-0.19569 12.72009,12.72009 0 0 1 3.757,-0.59681 25.06637,25.06637 0 0 1 0.15658,-2.945 c 0.29351,1.13491 0.587,2.33839 0.87079,3.61029 a 33.18583,33.18583 0 0 0 -0.26418,-6.27157 c -0.23481,-1.25232 -0.60661,-2.18181 -1.1056,-3.9136 -0.0391,-0.23481 -0.0685,-0.4892 -0.088,-0.75333 -0.0196,-0.2446 -0.0392,-0.4892 -0.0588,-0.75339 -0.0195,-0.43049 -0.0293,-0.90011 -0.0195,-1.36978 a 22.13718,22.13718 0 0 1 0.28371,-2.90582 c 0.3033,-1.8883 0.84141,-3.49289 1.45781,-3.82558 -0.75333,-0.61633 -1.76111,-3.10151 -1.4089,-5.78231 0.46967,-0.362 0.76318,0.6066 0.90017,1.10559 0.92943,-7.60218 -1.585,-11.3103 -0.2446,-16.535 a 1.149,1.149 0 0 0 0.812,-0.88052 c -0.0293,5.53771 -0.0978,10.0775 -0.1859,10.43951 1.24259,-0.0685 1.4676,-4.85289 3.18959,-0.998 -0.94896,-3.9136 -3.00362,-10.60582 -2.41656,-15.36082 z m 1.10559,-10.12648 c 0.19563,1.62418 -0.0783,2.16229 -0.362,2.3873 -0.0196,-0.76312 -0.0685,-1.66329 -0.16637,-2.83738 -0.0489,-0.0391 -0.10761,-0.13693 -0.16631,-0.18584 a 1.86326,1.86326 0 0 1 0.69468,0.63591 z m -56.0036,-223.9166 a 2.15461,2.15461 0 0 1 0.46961,0.21522 h -2.0742 c 0.49899,-0.0782 1.02731,-0.14673 1.60459,-0.21523 z"
       transform="translate(-157.7025,-135.69961)"
       fill="#e79cc2"
       id="path62" />
    <path
       d="m 655.35277,362.62223 a 0.36337,0.36337 0 0 1 -0.2446,0.1174 0.8131,0.8131 0 0 1 0.2446,-0.1174 z"
       transform="translate(-157.7025,-135.69961)"
       fill="#7f77ff"
       id="path64" />
    <path
       d="m 629.32778,365.90408 c 0.0762,-0.0119 0.1509,-0.03 0.22632,-0.045 -0.0784,0.0133 -0.15437,0.0283 -0.22632,0.045 z"
       transform="translate(-157.7025,-135.69961)"
       fill="#7f77ff"
       id="path66" />
    <path
       d="M 900.05326,450.65851 A 5.23178,5.23178 0 0 1 899.953,449.9916 c -0.12182,0.33053 -0.22454,0.64488 -0.30915,0.96514 l 0.431,0.57292 z"
       transform="translate(-157.7025,-135.69961)"
       fill="#7f77ff"
       id="path68" />
    <path
       d="m 742.44775,281.8936 a 1.38713,1.38713 0 0 1 0.19569,-0.45247 c -0.0665,0.144 -0.10958,0.144 -0.1644,0.23653 z"
       transform="translate(-157.7025,-135.69961)"
       fill="#7f77ff"
       id="path70" />
    <path
       d="m 810.82718,228.21405 c 0.4416,0.0107 0.94119,0.64805 0.84577,5.32949 l 0.29452,-5.7524 2.16091,0.10421 c -1.74445,-0.5313 -4.62471,-1.24552 -0.63819,-1.37319 -1.37337,-0.16028 -2.42128,-0.28264 -3.16057,-0.36893 -0.32755,2.7585 0.056,2.07289 0.49756,2.06082 z"
       transform="translate(-157.7025,-135.69961)"
       fill="#7f77ff"
       id="path72" />
    <path
       d="m 810.90248,252.15625 c -0.12355,-1.09616 -0.31638,-1.12692 -0.51589,-0.99823 -0.19946,0.1395 -0.40554,0.4191 -0.55549,0.28252 0.48383,1.2986 0.60565,1.92802 1.07138,0.71571 z"
       transform="translate(-157.7025,-135.69961)"
       fill="#7f77ff"
       id="path74" />
    <path
       d="m 715.64685,293.75144 0.3408,-1.25142 c -2.61046,0.18005 -0.025,0.48484 -0.3408,1.25142 z"
       transform="translate(-157.7025,-135.69961)"
       fill="#7f77ff"
       id="path76" />
    <polygon
       points="513.393,155.743 515,155.606 516.14,155.427 513.963,155.654 512.874,155.767 511.096,155.881 512.437,155.812 512.774,155.795 512.991,155.778 "
       fill="#7f77ff"
       id="polygon78" />
    <path
       d="m 527.37777,383.61208 0.78886,1.54052 c 1.76437,-0.27596 2.13452,-2.00768 -0.78886,-1.54052 z"
       transform="translate(-157.7025,-135.69961)"
       fill="#7f77ff"
       id="path80" />
    <path
       d="m 495.16641,462.51224 a 7.34652,7.34652 0 0 0 -0.50872,5.77037 c 0.10611,-2.30202 0.70687,-4.59807 0.50872,-5.77037 z"
       transform="translate(-157.7025,-135.69961)"
       fill="#7f77ff"
       id="path82" />
    <polygon
       points="602.713,378.309 600.654,378.825 604.535,378.395 "
       fill="#7f77ff"
       id="polygon84" />
    <path
       d="m 777.38858,388.227 a 148.54113,148.54113 0 0 1 -4.94091,35.14411 c -11.8582,43.83231 -44.302,75.72812 -61.786,90.3161 a 38.24031,38.24031 0 0 1 -9.54913,-1.3502 q -0.93929,0.0734 -1.84919,0.14679 c -0.28378,0.0293 -0.56749,0.0587 -0.84141,0.088 -0.89038,0.0881 -1.7709,0.17611 -2.6319,0.274 -0.2446,0.0293 -0.47947,0.0587 -0.71427,0.088 h -0.01 a 222.09212,222.09212 0 0 1 -12.1028,-45.79889 l -0.01,-0.01 v -0.01 c -3.02329,-20.07679 -3.51249,-43.63668 2.85691,-67.177 a 146.41947,146.41947 0 0 1 11.26139,-28.77471 c 22.738,-44.12588 62.0599,-70.41548 62.0599,-70.41548 0,0 19.43103,39.909 18.25694,87.47881 z"
       transform="translate(-157.7025,-135.69961)"
       fill="#ffffff"
       id="path86" />
    <path
       d="m 657.76939,338.945 c -0.0293,0.39133 -0.0587,0.75333 -0.10761,1.19362 a 1.88,1.88 0 0 1 0.10761,-1.19362 z"
       transform="translate(-157.7025,-135.69961)"
       fill="#ffffff"
       id="path88" />
    <path
       d="m 629.55237,365.86073 a 5.38359,5.38359 0 0 0 1.02731,-0.3033 c 0.71421,0.18589 -0.26419,0.1761 -1.02731,0.3033 z"
       transform="translate(-157.7025,-135.69961)"
       fill="#ffffff"
       id="path90" />
    <path
       d="m 630.91236,364.7943 1.57521,0.17611 a 9.63562,9.63562 0 0 1 -1.57521,-0.17611 z"
       transform="translate(-157.7025,-135.69961)"
       fill="#ffffff"
       id="path92" />
    <path
       d="m 654.44287,362.22111 a 0.8391,0.8391 0 0 0 -0.16637,-0.0294 c 0.14678,-0.0195 0.29356,-0.0489 0.411,-0.0587 0.0195,-0.0195 0.0293,-0.0293 0.0391,-0.0293 0.01,0 0.01,0.01 -0.01,0.0293 0,0.01 -0.01,0.0196 -0.0195,0.0294 -3e-5,0.0196 -0.14681,0.0391 -0.25442,0.0587 z"
       transform="translate(-157.7025,-135.69961)"
       fill="#ffffff"
       id="path94" />
    <path
       d="m 655.35277,362.62223 a 0.36337,0.36337 0 0 1 -0.2446,0.1174 0.8131,0.8131 0 0 1 0.2446,-0.1174 z"
       transform="translate(-157.7025,-135.69961)"
       fill="#ffffff"
       id="path96" />
    <path
       d="m 711.21939,467.05663 c 0,0.0196 -0.01,0.0392 -0.01,0.0588 a 221.77814,221.77814 0 0 1 -11.94622,45.3684 c -0.28378,0.0293 -0.56749,0.0587 -0.84141,0.088 -0.89038,0.0881 -1.7709,0.17611 -2.6319,0.274 -0.2446,0.0293 -0.47947,0.0587 -0.71427,0.088 h -0.01 c -3.7277,0.42071 -7.24991,0.9295 -10.8798,1.33061 -17.3079,-14.31393 -50.45609,-46.474 -62.461,-90.89332 a 148.00177,148.00177 0 0 1 -4.9507,-35.1539 180.07086,180.07086 0 0 1 0.96861,-23.237 c 4.3343,-0.84141 8.287,1.42843 11.58422,0.9197 -0.35221,0.088 -0.59681,0.20543 -0.50873,0.42071 3.18959,-0.274 5.479,-0.15658 6.40851,-1.02731 l -2.73951,-0.32289 c 2.40683,0.0783 2.79821,-1.0958 7.38691,-0.42071 2.64169,-0.6653 4.1484,-2.09379 1.26211,-2.11337 1.1643,-0.1859 3.7277,0.59687 2.82759,1.45786 5.04858,0.0293 4.667,-1.52636 6.44769,-1.94706 h 2.45579 c 0.41091,0.0587 0.88052,0.137 1.40884,0.2446 -0.46962,0.0881 -0.96861,0.23486 -0.71422,0.411 0.40118,0.0391 0.78271,0.0782 1.15451,0.10761 a 0.83366,0.83366 0 0 0 0.25439,0.0489 0.5771,0.5771 0 0 0 0.137,-0.0196 c -0.29351,0.22507 -0.2348,0.6751 -0.0685,1.07627 0.0881,0.23481 0.1859,0.45982 0.0489,0.57723 -0.0783,0.0685 -0.17611,0.10767 -0.4403,0.10767 -0.4892,0.01 -1.14471,-0.01 -2.05461,-0.0783 a 1.638,1.638 0 0 0 1.23279,0.70442 7.8201,7.8201 0 0 0 0.9197,0.10767 c 0.19569,0.01 0.40112,0.01 0.6066,0 a 6.09822,6.09822 0 0 1 2.4558,0.0978 c 0.57722,-0.51858 -0.0294,-1.07621 -0.53811,-1.59479 a 6.96929,6.96929 0 0 1 -1.21327,-1.37952 0.64064,0.64064 0 0 0 0.11741,0.10761 c 0.38159,0.35221 0.39138,0.0685 0.58707,-0.21528 a 3.758,3.758 0 0 1 -0.7925,-0.3033 h 0.71421 v -1.56542 c 0.0294,-0.15652 0.0489,-0.32289 0.0783,-0.4892 a 21.70749,21.70749 0 0 0 -0.0196,-7.67068 c 0.46962,1.47739 1.4089,4.41259 2.00571,0.68489 -0.7338,-6.09541 0.4892,-1.41869 1.37958,-4.86262 -0.25439,-6.0563 -2.084,-1.05669 -1.36,-9.99928 0.01,-0.9686 -0.6751,-0.0685 -0.998,0.90017 0.52838,-5.72367 -0.15652,-9.01108 0.45988,-14.29446 -0.28377,1.98618 -0.64578,3.01348 -1.12518,0.0294 0.69468,1.086 0.8512,-1.97639 1.11539,-4.60829 0.225,0.21528 0.45982,0.44029 0.69468,0.66531 0.34242,0.33268 0.69463,0.67509 1.0371,1.01757 12.19083,11.96581 26.4853,28.716 37.1205,49.4092 a 0.00953,0.00953 0 0 1 0.01,0.01 145.50852,145.50852 0 0 1 11.27119,28.765 c 6.35959,23.52069 5.88018,47.04146 2.8667,67.11819 z"
       transform="translate(-157.7025,-135.69961)"
       fill="#ffffff"
       id="path98" />
    <path
       d="m 575.3979,379.85189 a 2.40948,2.40948 0 0 1 -0.60661,0.87073 c 0.29357,-0.64571 0.45988,-0.84141 0.60661,-0.87073 z"
       transform="translate(-157.7025,-135.69961)"
       fill="#3f3d56"
       id="path100" />
    <path
       d="m 549.81278,385.75161 a 0.13721,0.13721 0 0 1 -0.0783,0.10761 c 0.0391,-0.0587 0.0783,-0.10761 0.0783,-0.10761 z"
       transform="translate(-157.7025,-135.69961)"
       fill="#3f3d56"
       id="path102" />
    <path
       d="m 695.79006,512.84579 c -0.2446,0.0293 -0.47947,0.0587 -0.71427,0.088 h -0.01 c -3.7277,0.42071 -7.24991,0.9295 -10.8798,1.33061 a 106.329,106.329 0 0 1 -14.25529,0.69469 l 0.14678,-0.3033 c -4.01142,-0.34242 -12.03431,-1.0469 -12.01472,-3.19939 a 61.39013,61.39013 0 0 0 -8.62949,1.24259 c -21.1628,-6.88792 -45.8087,-18.55049 -65.97351,-38.17719 -28.42256,-27.65932 -41.24937,-64.61351 -46.87517,-88.42779 4.2169,-0.0587 8.35551,0.0783 11.4375,1.37958 -2.10359,-0.9882 1.19368,-1.21321 1.7122,-1.61439 a 0.25008,0.25008 0 0 0 0.0685,0.3718 4.67734,4.67734 0 0 0 3.59071,-1.19362 h 8.05231 v -0.6653 a 1.99028,1.99028 0 0 1 0.79251,0.1174 c 0.0391,-0.6653 2.11331,-0.4892 4.43212,-0.47941 -4.6474,0.75333 -1.49692,1.43822 -3.58092,2.48512 a 17.20131,17.20131 0 0 0 7.47493,-1.2817 c 0.499,-0.17611 1.00778,-0.35221 1.54589,-0.51858 0.1272,-0.0391 0.26419,-0.0782 0.40118,-0.11741 a 0.98459,0.98459 0 0 0 0.32282,-0.10761 c 0.1272,-0.0685 0.2544,-0.137 0.3816,-0.19569 a 2.825,2.825 0 0 1 1.78069,-0.20542 17.13229,17.13229 0 0 0 1.76111,0.77291 2.42161,2.42161 0 0 0 0.499,-0.38159 5.1731,5.1731 0 0 1 -1.37952,-2.70039 c -0.0685,-0.3718 -0.0979,-0.68484 -0.15657,-0.93923 -0.0587,-0.6164 -0.14673,-1.00778 -0.32289,-0.96861 0.59687,-1.23279 0.94908,-3.04287 1.91768,-2.76888 l -0.0391,-0.26419 -0.0294,-0.38159 c -0.01,-0.26413 -0.0293,-0.52832 -0.0391,-0.80224 q -0.0294,-0.82194 -0.0294,-1.67308 c 0.01,-0.95882 0.0392,-1.91769 0.0587,-2.83739 a 192.809,192.809 0 0 1 39.53718,17.09268 148.6658,148.6658 0 0 1 29.2835,21.98462 c 17.65032,17.1807 29.28351,37.94238 36.89549,56.91357 v 0.01 l 0.01,0.01 a 221.65671,221.65671 0 0 1 12.82682,45.71089 z"
       transform="translate(-157.7025,-135.69961)"
       fill="#3f3d56"
       id="path104" />
    <path
       d="m 743.23266,513.16862 h 0.0489 a 0.074,0.074 0 0 1 -0.0391,0.01 z"
       transform="translate(-157.7025,-135.69961)"
       fill="#3f3d56"
       id="path106" />
    <path
       d="m 861.72667,362.2309 c 0,0 -5.55731,68.03791 -51.01379,112.29092 -20.35071,19.8126 -45.251,31.50449 -66.541,38.36309 -0.16631,-1.4187 -4.31472,0.25439 -6.7314,-0.15652 -1.947,0.21522 -3.9038,1.50671 -2.22092,1.8981 -7.2793,-0.87079 -16.90678,-0.56749 -24.55788,-0.93929 a 38.24031,38.24031 0 0 1 -9.54913,-1.3502 q -0.93929,0.0734 -1.84919,0.14679 c -0.28378,0.0293 -0.56749,0.0587 -0.84141,0.088 a 222.34176,222.34176 0 0 1 12.79743,-45.51518 c 7.6315,-18.95161 19.26469,-39.69364 36.88569,-56.845 a 148.47045,148.47045 0 0 1 29.2835,-21.98462 c 40.72101,-23.61858 84.3381,-25.99609 84.3381,-25.99609 z"
       transform="translate(-157.7025,-135.69961)"
       fill="#3f3d56"
       id="path108" />
    <path
       d="m 222.12274,322.96377 c 0,0 -13.62736,27.25472 -34.68782,33.449 -21.06046,6.19428 50.79288,0 50.79288,0 0,0 -3.71655,-19.82161 1.23885,-22.29931 4.9554,-2.4777 -17.34391,-11.14969 -17.34391,-11.14969 z"
       transform="translate(-157.7025,-135.69961)"
       fill="#a0616a"
       id="path110" />
    <path
       d="m 200.10469,276.1401 c -0.74115,-6.45751 2.79073,-12.16674 7.88877,-12.7518 0.0578,-0.007 0.11469,-0.003 0.17241,-0.009 a 7.4433,7.4433 0 0 0 -1.924,-0.0315 c -5.098,0.58506 -8.62992,6.29428 -7.88877,12.7518 0.73277,6.38427 5.36876,11.10065 10.40038,10.64146 -4.31566,-0.6268 -8.00206,-4.96701 -8.64879,-10.60133 z"
       transform="translate(-157.7025,-135.69961)"
       fill="#2f2e41"
       id="path112" />
    <path
       d="m 204.67428,284.89568 c -6.15653,-2.08472 -9.81324,-7.7148 -8.16736,-12.5752 0.0186,-0.0551 0.0458,-0.10518 0.0657,-0.15962 a 7.4438,7.4438 0 0 0 -0.84929,1.72663 c -1.64587,4.86039 2.01084,10.49048 8.16737,12.5752 6.0867,2.061 12.3302,-0.11967 14.06158,-4.86629 -2.40815,3.63581 -7.90629,5.11817 -13.27801,3.29928 z"
       transform="translate(-157.7025,-135.69961)"
       fill="#2f2e41"
       id="path114" />
    <path
       d="m 162.07575,404.28776 1.821,52.47189 28.49357,66.89794 c 0,0 -7.43311,34.68783 7.4331,33.449 14.86621,-1.23883 1.23885,-34.68782 1.23885,-34.68782 l -13.62735,-70.61449 -2.47771,-58.226 z"
       transform="translate(-157.7025,-135.69961)"
       fill="#a0616a"
       id="path116" />
    <circle
       cx="84.241852"
       cy="178.59219"
       r="27.254721"
       fill="#a0616a"
       id="circle118" />
    <path
       d="m 264.24366,361.36815 -26.85938,-10.73037 c 0,0 -5.35074,0.81956 -20.21695,2.05841 -14.86621,1.23885 -21.46714,0.0703 -21.46714,0.0703 0,0 -31.80344,11.07933 -30.56459,17.27358 1.23885,6.19425 14.86621,104.06346 21.06047,99.10806 6.19426,-4.9554 9.9108,-6.19425 9.9108,-6.19425 l 68.13679,-6.19426 z"
       transform="translate(-157.7025,-135.69961)"
       fill="#cfcce0"
       id="path120" />
    <path
       d="m 170.091,367.5624 h -4.03164 c 0,0 -4.64032,2.4777 -4.64032,9.91081 0,7.43311 -3.71655,29.73241 -3.71655,29.73241 h 19.82161 z"
       transform="translate(-157.7025,-135.69961)"
       fill="#cfcce0"
       id="path122" />
    <path
       d="M 206.6371,379.33148 191.674,355.16025 a 3.38152,3.38152 0 0 0 -3.29464,-1.57554 l -3.90194,0.48774 a 3.38155,3.38155 0 0 0 -2.84585,4.23455 l 7.66166,28.45759 c 0,0 12.11421,50.27251 0.48228,77.168 l -0.48228,12.02927 c 0,0 -11.14965,37.16552 -8.672,65.65909 2.47765,28.49357 3.71655,53.27058 3.71655,53.27058 0,0 -6.19425,18.58276 -3.71655,24.777 0.74331,1.85827 0.59465,4.60852 0.0223,7.54832 -3.49351,17.94393 -4.3954,36.29645 -3.9015,54.57063 l 0.16264,6.01784 c 0,0 -8.672,7.4331 -1.23885,8.67195 7.43315,1.23885 30.97127,3.71656 30.97127,3.71656 0,0 4.95541,-8.672 2.4777,-9.91081 l 7.43311,-40.88207 c 0,0 12.38851,-17.34391 11.14966,-28.49357 0,0 3.71655,-18.58276 0,-27.25472 l 1.23885,-54.50943 4.9554,65.65909 -7.4331,81.76415 c 0,0 -9.91081,7.4331 -3.71656,9.9108 6.19425,2.4777 44.59863,14.86621 44.59863,8.672 0,-6.19421 -2.4777,-8.672 -2.4777,-8.672 l 16.10506,-167.24485 -8.672,-69.37564 c 0,0 -58.226,-4.9554 -53.27058,-70.61449 0,0 14.24513,-29.586 28.30748,-35.16872 a 0.80881,0.80881 0 0 0 -0.0585,-1.53576 l -5.709,-1.63114 a 0.78364,0.78364 0 0 0 -0.47516,0.009 c -2.47728,0.83883 -23.95596,8.58768 -34.45331,28.416 z"
       transform="translate(-157.7025,-135.69961)"
       fill="#2f2e41"
       id="path124" />
    <path
       d="m 235.13067,695.23842 -0.19789,1.781 a 81.99877,81.99877 0 0 1 -10.83258,32.13387 c -2.77387,4.76759 -4.89761,10.1528 -3.83574,14.40028 2.4777,9.91081 1.23885,13.62736 1.23885,13.62736 h 19.82161 v -3.71655 l 11.0666,3.01816 a 12.25833,12.25833 0 0 0 7.51617,-0.23075 c 2.4777,-0.92913 4.9554,-2.78741 4.9554,-6.504 0,-3.09713 -2.36586,-5.97918 -5.126,-8.28768 a 36.79668,36.79668 0 0 1 -12.07914,-18.45832 l -0.13874,-0.50872 7.4331,-27.25472 z"
       transform="translate(-157.7025,-135.69961)"
       fill="#2f2e41"
       id="path126" />
    <path
       d="m 183.71836,695.85785 -0.19789,1.781 a 81.9986,81.9986 0 0 1 -10.83257,32.13387 c -2.77387,4.76759 -4.89762,10.1528 -3.83575,14.40029 2.47771,9.91081 1.23886,13.62736 1.23886,13.62736 h 19.82161 v -3.71655 l 11.0666,3.01816 a 12.25845,12.25845 0 0 0 7.51616,-0.23075 c 2.4777,-0.92914 4.9554,-2.78741 4.9554,-6.504 0,-3.09712 -2.36586,-5.97917 -5.126,-8.28768 a 36.79671,36.79671 0 0 1 -12.07914,-18.45832 l -0.13874,-0.50871 7.4331,-27.25467 z"
       transform="translate(-157.7025,-135.69961)"
       fill="#2f2e41"
       id="path128" />
    <path
       d="m 247.44578,318.89036 c 0,0 19.5238,-11.27924 27.08422,-11.9629 0,0 2.20148,-4.95595 -0.17248,-9.72469 0,0 -1.15187,-15.29909 -20.24881,-14.70481 0,0 -22.55557,-12.21851 -30.1277,-7.22994 -7.57213,4.98857 -24.4325,28.926 -17.31064,43.23218 0,0 -8.23285,4.14224 -8.62461,1.91248 -0.39176,-2.22976 -6.50793,3.75975 1.567,8.919 0,0 -11.30265,11.4419 -0.31578,18.60306 0,0 -0.50284,-10.14785 5.8706,-13.21588 6.37344,-3.06803 0.79522,0.15461 0.79522,0.15461 0,0 -10.91088,13.67165 5.38524,18.9936 0,0 -6.08107,-6.92521 0.0351,-12.91471 0,0 -1.89451,13.98893 9.373,15.46175 0,0 -5.8121,-8.30865 -2.754,-11.3034 0,0 1.29807,10.30246 7.65981,11.53934 l 4.77131,0.92766 1.61384,-8.3006 c 0,0 -4.53744,10.60363 6.06937,11.23013 0,0 -5.128,-16.07214 1.66064,-25.52022 6.78864,-9.44808 7.66867,-16.09666 7.66867,-16.09666 z"
       transform="translate(-157.7025,-135.69961)"
       fill="#2f2e41"
       id="path130" />
    <ellipse
       cx="209.73422"
       cy="278.36514"
       rx="11.76908"
       ry="9.2913799"
       transform="rotate(-52.86029,-5.6191727,369.15055)"
       fill="#2f2e41"
       id="ellipse132" />
    <path
       d="m 219.84887,277.77131 a 13.75672,13.75672 0 0 0 -6.1789,4.67353 14.01265,14.01265 0 0 0 -2.7079,6.20359 13.75689,13.75689 0 0 0 6.17891,-4.67353 14.01317,14.01317 0 0 0 2.70789,-6.20359 z"
       transform="translate(-157.7025,-135.69961)"
       fill="#e79cc2"
       id="path134" />
    <path
       d="m 314.436,513.76152 -1.57358,-2.09989 11.42258,-8.55963 a 9.65214,9.65214 0 0 0 3.7821,-8.88863 l -5.6586,-45.695 a 19.02,19.02 0 0 1 7.45317,-17.51885 l 12.45024,-9.32972 a 11.1361,11.1361 0 0 1 15.57176,2.23105 l 2.8835,3.84795 -2.09989,1.57357 -2.8835,-3.848 a 8.50886,8.50886 0 0 0 -11.89829,-1.70472 l -12.45025,9.32971 a 16.39036,16.39036 0 0 0 -6.42275,15.09619 l 5.6583,45.69523 a 12.28027,12.28027 0 0 1 -4.81221,11.31107 z"
       transform="translate(-157.7025,-135.69961)"
       fill="#cfcce0"
       id="path136" />
    <polygon
       points="166.972,365.471 153.009,371.529 92.055,413.648 102.845,428.047 160.807,381.935 170.12,369.67 "
       fill="#cfcce0"
       id="polygon138" />
    <rect
       x="373.5524"
       y="414.99585"
       width="29.239531"
       height="105.5247"
       rx="7.2723999"
       transform="rotate(-36.84643,105.63247,636.62373)"
       fill="#e6e6e6"
       id="rect140" />
    <path
       d="m 427.1516,495.39556 -1.686,-2.24989 -0.33719,-0.45 a 7.27077,7.27077 0 0 1 -1.4583,10.1785 l -11.762,8.814 a 7.2708,7.2708 0 0 1 -10.17851,-1.45834 l 0.3372,0.45 1.686,2.24988 a 7.27081,7.27081 0 0 0 10.1785,1.45829 l 11.762,-8.814 a 7.27077,7.27077 0 0 0 1.4583,-10.17844 z"
       transform="translate(-157.7025,-135.69961)"
       opacity="0.2"
       id="path142" />
    <path
       d="m 392.26276,447.33054 c -0.10241,-0.1004 -0.18847,-0.18146 -0.1911,-0.137 0.0978,0.11759 0.16248,0.14884 0.1911,0.137 z"
       transform="translate(-157.7025,-135.69961)"
       fill="#7f77ff"
       id="path144" />
    <path
       d="m 390.41315,444.40958 a 0.271,0.271 0 0 0 -0.103,-0.175 z"
       transform="translate(-157.7025,-135.69961)"
       fill="#7f77ff"
       id="path146" />
    <path
       d="m 403.71558,462.86148 c -0.10882,0.0347 0.10053,0.26776 0.238,0.49115 z"
       transform="translate(-157.7025,-135.69961)"
       fill="#7f77ff"
       id="path148" />
    <path
       d="m 409.47041,470.26712 0.0981,0.13007 a 0.89689,0.89689 0 0 0 0.18878,0.0276 z"
       transform="translate(-157.7025,-135.69961)"
       fill="#7f77ff"
       id="path150" />
    <path
       d="m 413.10731,475.68882 a 0.49163,0.49163 0 0 1 0.35486,0.15234 0.35385,0.35385 0 0 0 0.11785,-0.17456 c -0.0823,-0.13013 -0.33917,-0.004 -0.47271,0.0222 z"
       transform="translate(-157.7025,-135.69961)"
       fill="#7f77ff"
       id="path152" />
    <path
       d="m 424.38837,491.36142 -0.0546,0.0954 a 0.74184,0.74184 0 0 0 0.11151,0.11322 z"
       transform="translate(-157.7025,-135.69961)"
       fill="#7f77ff"
       id="path154" />
    <path
       d="m 386.84022,439.00357 0.0123,0.0255 c 0.12445,0.11273 0.064,0.0414 -0.0123,-0.0255 z"
       transform="translate(-157.7025,-135.69961)"
       fill="#7f77ff"
       id="path156" />
    <path
       d="m 353.808,449.78183 c -0.18982,-0.67218 0.89417,0.6554 0.52924,-0.2973 -0.0333,0.13916 -0.88569,-0.45068 -0.52924,0.2973 z"
       transform="translate(-157.7025,-135.69961)"
       fill="#7f77ff"
       id="path158" />
    <path
       d="m 378.04578,427.54947 a 0.41264,0.41264 0 0 0 -0.0101,0.19159 c 0.0201,-0.0212 0.0283,-0.069 0.0101,-0.19159 z"
       transform="translate(-157.7025,-135.69961)"
       fill="#7f77ff"
       id="path160" />
    <path
       d="m 373.43317,424.23551 a 1.59675,1.59675 0 0 0 -0.41351,0.37268 0.2839,0.2839 0 0 0 0.0754,-0.0259 0.91646,0.91646 0 0 1 0.33807,-0.34674 z"
       transform="translate(-157.7025,-135.69961)"
       fill="#7f77ff"
       id="path162" />
    <path
       d="m 368.85383,428.547 a 1.06506,1.06506 0 0 0 0.11737,-0.0288 l 0.12665,-0.133 z"
       transform="translate(-157.7025,-135.69961)"
       fill="#7f77ff"
       id="path164" />
    <path
       d="m 424.65913,491.5903 c -0.15516,0.188 -0.45874,0.4325 -0.5954,0.35065 l 0.27,-0.48413 c -0.0195,-0.0226 -0.037,-0.0478 -0.0553,-0.072 0.017,-0.0228 0.0347,-0.0442 0.0518,-0.067 l -3.88367,-5.18261 0.1012,0.006 -0.17853,-0.10943 -0.49237,-0.65711 c 0.0626,-0.0136 0.14276,0.006 0.25964,0.12158 -0.20013,-0.60986 -0.44116,-0.342 -0.571,-0.89752 -0.006,-0.0675 0.0257,-0.0587 0.071,-0.0259 l -0.4555,-0.40106 c 0.13977,0.0408 0.17578,-0.25525 0.34655,0.0729 -0.44745,-0.99726 -1.28088,-1.189 -1.26941,-1.69928 l 0.0739,0.056 c -0.74738,-0.82215 -0.56238,-0.37714 -0.819,-0.38117 l -0.41474,-0.55346 0.1062,-0.71918 -0.33148,0.0666 c -0.0828,-0.12885 -0.24548,-0.38416 -0.11432,-0.41266 -0.50787,-0.32929 -0.0482,0.1571 -0.40381,0.0116 -0.218,-0.7547 -1.31884,-1.5431 -1.029,-1.96723 -0.34369,-0.072 0.2782,0.66956 -0.32129,0.13867 0.28455,-0.49273 -0.61541,-0.67187 -0.8258,-1.35284 0.33966,0.003 0.6065,0.59759 0.39654,-0.0843 -0.608,-0.0504 -0.70367,-1.106 -1.113,-1.50653 -0.30671,0.19659 -0.8595,-0.89417 -1.52607,-1.58173 a 21.04131,21.04131 0 0 0 -1.33691,-2.33624 l 0.0645,-0.0157 c -0.39648,0.0833 -0.88769,-0.68786 -1.34643,-1.1734 0.19146,-0.1109 0.33246,-0.0673 0.62677,0.16138 l -0.37549,-0.49829 a 1.35057,1.35057 0 0 1 -0.62512,-0.46448 l 0.31366,-0.039 a 11.93425,11.93425 0 0 1 -1.75568,-2.10962 c -0.16357,0.0716 -0.13953,0.54535 -0.35779,0.59869 l -0.33917,-0.45257 a 0.25549,0.25549 0 0 1 0.29437,0.0706 c -0.0727,-0.0665 -0.29913,-0.2074 -0.36883,-0.399 l 0.457,0.2215 c -0.21,-0.45075 -0.30835,-0.0869 -0.52429,-0.41132 0.16265,-0.11224 -0.0599,-0.31494 0.0989,-0.3642 0.0748,0.068 0.13831,0.3205 0.28962,0.39325 a 2.60867,2.60867 0 0 1 -0.44458,-1.09686 c -0.0669,0.098 -0.21277,0.15948 -0.42591,-0.0823 -0.50958,-0.65594 0.0196,-0.36993 -0.18963,-0.81848 -0.23035,-0.0787 -0.43439,-0.58789 -0.679,-0.422 -0.14453,-0.19538 -0.0613,-0.31391 -0.0537,-0.43689 -0.36188,-0.26593 -1.23364,-1.58435 -1.1944,-1.00837 l 0.0495,0.10059 -0.0524,-0.0485 c -1.07965,-0.95136 -1.62115,-2.4422 -2.5606,-3.48493 l 0.0805,-0.0575 a 16.084,16.084 0 0 0 -1.6944,-1.79566 c -0.14776,-0.19769 -0.20507,-0.57415 -0.0476,-0.5603 a 3.66519,3.66519 0 0 1 -0.99567,-1.29169 c 0.52246,0.40992 -0.0106,-0.26849 0.49512,0.45026 -0.42884,-0.71429 -0.4148,-0.95935 -1.16449,-1.50958 0.384,0.0908 -0.1192,-0.69031 -0.416,-0.96027 l 0.20349,0.57324 a 8.50948,8.50948 0 0 1 -0.72821,-0.98358 l 0.39386,-0.0292 c -0.69311,-1.6 -2.38531,-2.03467 -2.61737,-3.47412 -0.45526,-0.21949 0.42133,0.83538 -0.0371,0.67755 a 11.15594,11.15594 0 0 1 -0.68292,-1.78418 c -0.49335,-0.96564 -0.98694,-0.50641 -1.5567,-1.47687 -0.009,0.18542 -0.18158,0.48358 -0.77222,-0.11817 -0.4331,-0.65118 -0.17712,-1.06646 0.19464,-0.72912 0.12024,0.1438 0.14423,0.23877 0.10736,0.25647 0.18567,0.17609 0.42493,0.41034 0.34259,0.0858 l -0.15576,-0.01 c -0.13537,-0.38257 -0.78961,-1.2345 -0.4826,-1.1493 -0.44422,-0.40435 -0.307,-0.0852 -0.0942,0.3014 -0.46289,-0.90442 -0.93408,-1.255 -1.45966,-2.149 0.0459,0.17035 0.0249,0.37476 -0.072,0.24347 -0.78894,-1.298 -0.57928,-0.39771 -1.23523,-1.18628 -0.20422,-0.57422 0.47071,-0.0921 -0.269,-0.82636 -0.27954,-0.57733 0.17206,-0.29553 0.39954,-0.15326 a 5.77723,5.77723 0 0 1 -1.2204,-1.9494 l 0.37329,0.33857 a 3.83137,3.83137 0 0 1 -0.51452,-0.59546 l -0.0205,0.3684 c -0.141,-0.25732 -0.288,-0.45465 -0.20557,-0.50958 -0.304,-0.14636 -0.17847,0.42017 -0.70489,0.0722 -0.13575,-0.38227 -0.81092,-0.86634 -0.63916,-1.1623 0.645,1.03907 0.17248,-0.29742 0.83148,0.49732 a 2.27415,2.27415 0 0 1 -0.43506,-0.58991 c 0.002,-0.0561 0.0769,-0.006 0.139,0.0466 -0.47376,-1.10168 -0.60639,-0.21521 -1.325,-1.1864 0.23406,0.0164 0.1015,-0.426 -0.0471,-0.561 0.28912,0.39178 -0.0973,0.36395 -0.474,0.0881 -0.35388,-0.70282 -0.5871,-0.61212 -0.81751,-0.94641 l 0.22571,0.40942 c -0.23614,-0.0191 -0.44983,-0.34295 -0.81836,-0.74157 0.0829,-0.11988 0.37024,0.33532 0.30335,0.14465 -0.60926,-0.29273 -0.554,-1.27789 -1.22351,-1.82086 -0.13617,-0.382 0.24438,-0.23 0.10559,-0.551 -0.7461,-0.61181 -0.41388,-0.95788 -1.15668,-1.632 -0.0207,0.37012 0.0557,0.37488 -0.54627,-0.0406 l 1.10529,1.195 -0.9007,-0.62347 c 0.29029,0.39306 0.73829,0.73529 0.88141,0.99383 -0.45263,-0.27948 -0.37463,-0.27435 -0.39282,0.0316 -0.11456,-0.7497 -0.96179,-0.93573 -1.23187,-1.69922 l 0.48681,-0.33527 c -0.486,-1.08783 -1.48053,-1.4704 -2.26647,-2.76684 l 0.20867,0.44952 c -0.30908,-0.0212 -0.58477,-0.72583 -0.954,-1.05975 0.18531,-0.0821 0.0596,-0.36951 0.0328,-0.61005 -0.102,0.10809 -0.65155,-0.89178 -1.04925,-0.765 l -0.19587,-0.695 c -0.6,-0.97827 -1.40667,-0.93921 -2.18957,-2.09595 0.16473,0.0408 0.16071,-0.1123 0.19037,-0.20776 0.0336,-0.0901 0.10351,-0.11926 0.51391,0.30041 -0.372,-0.49969 -0.70739,-1.00744 -0.73712,-0.81915 a 0.8754,0.8754 0 0 0 -0.10052,-0.17486 l -0.0695,-0.0897 c -0.0251,-0.0263 -0.058,0.0489 -0.089,0.0729 l -0.422,0.51972 a 2.76769,2.76769 0 0 1 -0.792,0.79547 c -0.13885,0.257 -0.0938,0.50213 -0.50049,0.87658 -0.07,0.0125 -0.0602,-0.0773 -0.0602,-0.0773 0.0182,0.12238 -0.43756,0.60193 -0.0112,0.49872 -1.29,0.38477 -2.41339,2.33777 -3.55206,2.63794 -0.58637,0.61639 -1.31171,1.3407 -1.88989,1.85028 -0.001,-0.0771 -0.0623,-0.0762 0.0615,-0.15576 -0.92377,0.55286 -0.12457,0.86224 -1.18976,1.48071 -0.6795,0.15009 0.38379,-0.5437 0.01,-0.38989 -0.54364,-0.39264 -1.0625,1.0047 -1.94086,1.2121 l 0.12927,-0.15271 c -0.61724,0.21869 -1.02893,1.13672 -1.86547,1.71631 0,0 0.004,-0.0757 -0.0548,-0.0816 a 9.59391,9.59391 0 0 1 -2.08655,2.20252 c 0.10077,-0.383 0.28406,-0.36634 -0.0178,-0.46888 -0.33594,0.283 0.34716,0.26227 -0.32666,0.82874 -0.31281,0.0521 -0.89777,0.31732 -1.12519,0.13354 l 0.66571,-0.48358 c -0.545,-0.0446 -0.86645,0.617 -1.26129,0.809 l -0.0416,-0.16 c -1.0094,0.75073 -0.817,1.07672 -1.97138,1.79334 l 0.18128,0.0236 c -0.41974,0.72949 -0.64447,0.14312 -1.12183,0.77935 l -0.39612,-0.22 a 19.168,19.168 0 0 1 -2.00732,1.70191 12.3795,12.3795 0 0 1 1.55755,-1.61377 5.53678,5.53678 0 0 0 -1.52368,1.14746 c 0.15076,-0.13 0.31409,-0.33838 0.51081,-0.3822 a 4.71669,4.71669 0 0 1 -1.83863,1.54828 c -0.0709,-0.39277 -0.91192,-0.0124 -1.93011,0.48541 l -0.38452,0.18835 -0.19611,0.0957 c -0.0632,0.0326 -0.16614,0.0561 -0.0823,0.12231 0.15674,0.22406 0.30744,0.44592 0.44,0.65765 a 3.07241,3.07241 0 0 1 0.4942,1.10309 c 0.21521,0.24457 0.4281,0.48657 0.64087,0.72833 0.14184,0.16242 0.277,0.33014 0.40771,0.50232 0.26142,0.34443 0.50476,0.70679 0.74756,1.08069 0.48553,0.74787 0.96863,1.542 1.58838,2.33112 0.0498,-0.92652 0.36475,0.45862 0.78009,-0.007 0.30719,0.34533 0.40655,0.49365 0.40283,0.55273 l -0.0375,-0.0918 0.0379,0.0982 0.001,-0.001 0.55621,1.35041 c 0.0588,0.37536 -0.37439,-0.27484 -0.45843,-0.15815 0.576,0.84687 0.0499,0.499 0.326,1.13813 0.0918,-0.24219 0.464,0.0969 0.74689,0.61371 l -0.26685,-0.82636 c 1.11786,0.9491 0.33051,1.29681 1.4527,2.2569 l -0.42731,-0.24939 c 0.53436,0.5238 1.633,2.18573 2.46082,2.47131 0.022,0.147 -0.008,0.38562 -0.23877,0.15161 1.001,1.45868 2.77771,2.83515 3.35943,4.11591 l -0.2,-0.0177 c 0.2323,0.23791 0.56909,0.29083 0.69623,0.71155 -0.0623,0.0199 -0.1991,-0.0168 -0.11456,0.11065 a 3.36645,3.36645 0 0 1 0.92718,0.94586 l -0.35852,-0.198 c 0.8772,1.49713 1.91455,1.8717 2.86359,2.96722 -0.35449,0.261 0.3446,1.43237 0.69354,2.017 l -0.064,0.0184 a 38.81443,38.81443 0 0 0 3.59009,3.89435 c 0.30969,1.21 2.18427,3.24823 3.08191,4.89319 -0.106,-0.275 0.30219,-0.16876 0.53528,0.0686 0.1897,0.40173 0.96588,0.77973 0.60138,0.96662 l -0.0868,-0.12885 c -0.12024,0.49994 0.50061,1.15253 0.91064,1.718 l 0.4917,-0.22449 c 0.48084,1.92255 3.09625,3.66126 3.14362,4.87177 0.37,0.27343 0.69616,0.7116 1.0639,0.982 l -0.24078,0.15094 a 25.91469,25.91469 0 0 0 1.97137,2.69788 l -0.34662,-0.125 c 0.49622,0.69238 1.29816,0.371 1.78253,0.98968 l -0.19641,0.44257 c 0.89618,1.18493 1.501,2.611 2.68817,3.55591 -0.0639,0.0178 -0.188,0.0562 -0.34594,-0.1261 0.41064,0.56628 1.39331,2.33648 1.70526,1.78534 -0.29187,0.24041 0.88971,1.24884 1.50415,1.79113 l -0.29785,0.0671 a 3.09089,3.09089 0 0 1 1.428,0.98505 c 0.1054,0.20117 -0.0608,0.291 -0.18226,0.01 0.33106,0.68518 0.56019,0.30743 0.98444,1.121 l -0.34479,-0.16327 a 1.49325,1.49325 0 0 0 0.90314,0.73584 c 0.37921,0.31958 0.81787,1.20862 0.68427,1.45056 a 1.11583,1.11583 0 0 1 0.81518,0.61029 c -0.0396,0.106 -0.18567,0.009 -0.25848,-0.0396 0.61871,1.14191 1.405,1.3346 1.71588,2.20581 a 0.21383,0.21383 0 0 0 -0.0436,0.21918 c -0.60657,-0.821 -1.0874,-1.48785 -1.025,-1.43841 -0.20556,0.15405 0.25281,0.84088 -0.4245,0.52874 a 7.00628,7.00628 0 0 1 1.95258,1.78241 0.369,0.369 0 0 1 -0.007,0.13837 l -0.0729,-0.0493 a 1.23376,1.23376 0 0 0 0.33783,0.38166 4.06455,4.06455 0 0 0 0.33722,0.579 c -0.11292,0.20349 0.47534,0.82531 0.71368,1.16046 0.20453,-0.19574 0.49115,0.26208 0.37457,-0.2807 0.0229,0.0645 -0.0735,-0.0419 -0.24682,-0.25373 a 0.9057,0.9057 0 0 0 -0.12842,-0.1228 l 0.0366,0.008 -0.62787,-0.80652 a 1.41153,1.41153 0 0 1 0.75647,0.83118 c 0.27112,0.0605 0.559,0.135 0.70721,0.18738 0.0236,0.68536 0.5044,1.68029 0.40149,1.946 0.43946,0.455 0.90363,1.031 1.36988,1.53272 a 9.00478,9.00478 0 0 0 0.7138,0.693 2.6172,2.6172 0 0 0 0.81916,0.59393 0.90593,0.90593 0 0 1 0.258,0.44538 c 0.0396,0.14624 0.10266,0.13189 0.17566,0.17254 a 0.95794,0.95794 0 0 1 -0.2265,0.10035 l -0.1488,-0.16315 a 0.99328,0.99328 0 0 0 -0.2555,-0.22583 c 0.198,0.13171 0.33228,0.61651 0.71784,0.31061 l 0.99456,-0.40448 a 3.34126,3.34126 0 0 0 0.65882,-0.333 c 0.14331,-0.0996 0.23529,-0.199 0.2431,-0.3006 0.90515,-0.18091 -0.35681,0.50739 0.7876,-0.0128 l -0.11658,0.16785 c 2.55536,-0.384 3.30152,-2.40973 6.01734,-3.06744 -0.189,0.0508 -0.28229,0.0776 -0.34644,0.0423 2.91382,-1.22705 5.21967,-3.687 7.87927,-5.26312 0.74243,-0.47955 0.64386,-0.73706 0.91925,-1.22259 l 0.34284,0.0961 0.43457,-0.86768 c 0.73742,-1.07092 2.12268,-1.0354 2.891,-2.56787 l -0.29413,0.0145 c 0.43433,-0.39606 1.14124,-1.46045 1.25671,-1.22974 a 0.36534,0.36534 0 0 1 0.19886,-0.384 l 0.13153,0.0898 c 0.24774,-0.41956 0.47571,-0.853 0.71246,-1.27631 0.79047,-0.79107 0.389,0.54456 1.42383,-0.72131 0.32555,-0.5206 0.69036,-1.64591 0.46612,-1.52842 z m -5.37311,-7.07721 a 0.25651,0.25651 0 0 1 0.009,0.0853 l -0.19885,-0.26538 c 0.0622,0.0577 0.12268,0.11224 0.18998,0.18011 z m -24.25574,20.168 0.0469,0.005 a 0.347,0.347 0 0 1 -0.17774,-0.002 c -0.19574,-0.19488 -0.20654,-0.30127 -0.18292,-0.36584 0.0814,0.10039 0.1795,0.21554 0.31372,0.36251 z"
       transform="translate(-157.7025,-135.69961)"
       fill="#e79cc2"
       id="path166" />
    <path
       d="m 395.48939,504.85678 a 0.75118,0.75118 0 0 1 0.084,0.0779 1.58872,1.58872 0 0 0 -0.0472,-0.16846 l -0.1286,-0.0247 z"
       transform="translate(-157.7025,-135.69961)"
       fill="#7f77ff"
       id="path168" />
    <path
       d="m 404.04725,463.54306 a 0.21648,0.21648 0 0 1 0.0138,0.0852 0.2392,0.2392 0 0 1 0.003,-0.0521 z"
       transform="translate(-157.7025,-135.69961)"
       fill="#7f77ff"
       id="path170" />
    <path
       d="m 416.77186,480.09262 c -0.5459,-1.2688 -0.0282,0.36744 -0.83014,-0.77563 l 0.57349,0.90124 c -0.0247,-0.21411 -0.0547,-0.49755 0.25665,-0.12561 z"
       transform="translate(-157.7025,-135.69961)"
       fill="#7f77ff"
       id="path172" />
    <path
       d="m 414.2765,476.467 c -0.29682,-0.2312 -0.36945,-0.28662 -0.1894,0.11243 0.38361,0.42768 0.1222,-0.0999 0.1894,-0.11243 z"
       transform="translate(-157.7025,-135.69961)"
       fill="#7f77ff"
       id="path174" />
    <path
       d="m 399.77454,457.47806 0.23926,-0.1073 c -0.29401,-0.33099 -0.0819,0.0561 -0.23926,0.1073 z"
       transform="translate(-157.7025,-135.69961)"
       fill="#7f77ff"
       id="path176" />
    <polygon
       points="238.12,315.67 238.265,315.803 237.749,315.269 "
       fill="#7f77ff"
       id="polygon178" />
    <path
       d="m 369.44935,427.67514 0.30963,0.143 c 0.18018,-0.24248 -0.0137,-0.54514 -0.30963,-0.143 z"
       transform="translate(-157.7025,-135.69961)"
       fill="#7f77ff"
       id="path180" />
    <path
       d="m 355.22633,438.8422 a 6.01886,6.01886 0 0 0 0.87439,-0.4231 1.06058,1.06058 0 0 0 -0.87439,0.4231 z"
       transform="translate(-157.7025,-135.69961)"
       fill="#7f77ff"
       id="path182" />
    <polygon
       points="217.917,343.324 217.624,343.108 218.087,343.58 "
       fill="#7f77ff"
       id="polygon184" />
    <path
       d="m 247.55645,400.57121 1.821,52.47189 28.49355,66.8979 c 0,0 -7.4331,34.68782 7.43311,33.449 14.86621,-1.23882 1.23885,-34.68782 1.23885,-34.68782 l -13.62734,-70.61448 -2.4777,-58.226 z"
       transform="translate(-157.7025,-135.69961)"
       fill="#a0616a"
       id="path186" />
    <polygon
       points="106.541,225.669 123.885,252.923 87.958,271.506 100.347,228.146 101.028,223.466 "
       fill="#cfcce0"
       id="polygon188" />
  </g>
</svg>
