<?xml version="1.0" encoding="UTF-8" standalone="no"?>
<svg
   xmlns:dc="http://purl.org/dc/elements/1.1/"
   xmlns:cc="http://creativecommons.org/ns#"
   xmlns:rdf="http://www.w3.org/1999/02/22-rdf-syntax-ns#"
   xmlns:svg="http://www.w3.org/2000/svg"
   xmlns="http://www.w3.org/2000/svg"
   xmlns:xlink="http://www.w3.org/1999/xlink"
   xmlns:sodipodi="http://sodipodi.sourceforge.net/DTD/sodipodi-0.dtd"
   xmlns:inkscape="http://www.inkscape.org/namespaces/inkscape"
   id="anime"
   data-name="Layer 1"
   width="907.34204"
   height="669"
   viewBox="0 0 907.34204 669"
   version="1.1"
   sodipodi:docname="libcentar.svg"
   inkscape:version="1.0.1 (3bc2e813f5, 2020-09-07)">
  <metadata
     id="metadata77">
    <rdf:RDF>
      <cc:Work
         rdf:about="">
        <dc:format>image/svg+xml</dc:format>
        <dc:type
           rdf:resource="http://purl.org/dc/dcmitype/StillImage" />
        <dc:title />
      </cc:Work>
    </rdf:RDF>
  </metadata>
  <defs
     id="defs75">
    <inkscape:path-effect
       effect="bspline"
       id="path-effect1758"
       is_visible="true"
       weight="33.333333"
       steps="2"
       helper_size="0"
       apply_no_weight="true"
       apply_with_weight="true"
       only_selected="false" />
    <linearGradient
       gradientUnits="userSpaceOnUse"
       y2="22.41"
       x2="521.94"
       y1="746.40997"
       x1="521.94"
       id="60672ce7-bfbc-4a60-a482-eb57e060a9c7">
      <stop
         id="stop2017"
         stop-opacity="0.25"
         stop-color="gray"
         offset="0" />
      <stop
         id="stop2019"
         stop-opacity="0.12"
         stop-color="gray"
         offset="0.54" />
      <stop
         id="stop2021"
         stop-opacity="0.1"
         stop-color="gray"
         offset="1" />
    </linearGradient>
    <linearGradient
       xlink:href="#60672ce7-bfbc-4a60-a482-eb57e060a9c7"
       y2="179.25999"
       x2="748.44"
       y1="596.28003"
       x1="748.44"
       id="b310ffb6-9937-4369-8bc9-4e3f67e27eb9"
       gradientTransform="translate(-489.49321,-387.56382)" />
    <linearGradient
       inkscape:collect="always"
       xlink:href="#60672ce7-bfbc-4a60-a482-eb57e060a9c7"
       id="linearGradient2257"
       gradientUnits="userSpaceOnUse"
       x1="521.94"
       y1="746.40997"
       x2="521.94"
       y2="22.41"
       gradientTransform="matrix(0.14257887,0,0,0.14257887,231.74485,85.863252)" />
    <linearGradient
       gradientUnits="userSpaceOnUse"
       y2="329.26001"
       x2="778.66998"
       y1="845.34998"
       x1="778.66998"
       id="c24143ca-a0c1-48a5-a3b5-0343775bf348"
       gradientTransform="translate(-112.4149,-704.52484)">
      <stop
         id="stop3055"
         stop-opacity="0.25"
         stop-color="gray"
         offset="0" />
      <stop
         id="stop3057"
         stop-opacity="0.12"
         stop-color="gray"
         offset="0.54" />
      <stop
         id="stop3059"
         stop-opacity="0.1"
         stop-color="gray"
         offset="1" />
    </linearGradient>
    <linearGradient
       gradientUnits="userSpaceOnUse"
       y2="43.419998"
       x2="635.21997"
       y1="545.34003"
       x1="635.21997"
       id="3cf802be-0480-4c68-848a-073112220499"
       gradientTransform="matrix(0.85658828,0,0,0.85658828,902.87404,-450.93619)">
      <stop
         id="stop7414"
         stop-opacity="0.25"
         stop-color="gray"
         offset="0" />
      <stop
         id="stop7416"
         stop-opacity="0.12"
         stop-color="gray"
         offset="0.54" />
      <stop
         id="stop7418"
         stop-opacity="0.1"
         stop-color="gray"
         offset="1" />
    </linearGradient>
  </defs>
  <sodipodi:namedview
     pagecolor="#ffffff"
     bordercolor="#666666"
     borderopacity="1"
     objecttolerance="10"
     gridtolerance="10"
     guidetolerance="10"
     inkscape:pageopacity="0"
     inkscape:pageshadow="2"
     inkscape:window-width="1294"
     inkscape:window-height="704"
     id="namedview73"
     showgrid="false"
     showguides="false"
     inkscape:zoom="0.51408405"
     inkscape:cx="420.52612"
     inkscape:cy="221.58395"
     inkscape:window-x="72"
     inkscape:window-y="27"
     inkscape:window-maximized="1"
     inkscape:current-layer="anime"
     inkscape:document-rotation="0" />
  <rect
     style="fill:#3f3d56;stroke-width:0.44562939"
     x="135.7381"
     y="221.32712"
     width="351.15594"
     height="159.53532"
     id="rect1561" />
  <rect
     style="fill:#ffffff;stroke-width:0.44562939"
     x="141.53128"
     y="227.1203"
     width="339.56955"
     height="144.82954"
     id="rect1563" />
  <g
     id="hair"
     inkscape:label="#g980">
    <ellipse
       transform="scale(-1,1)"
       id="ellipse1147"
       ry="34.146877"
       rx="29.154642"
       cy="259.44476"
       cx="-120.03411"
       style="fill:#2f2e41;stroke-width:0.44562939" />
    <path
       id="path1151"
       d="m 126.62381,265.83486 c 0,0 -1.59749,13.17948 3.19503,15.97514 4.79256,2.79565 -5.59132,18.7708 -5.59132,18.7708 l -12.38074,3.19502 -8.38692,-11.58198 1.5975,-11.98135 c 0,0 9.58507,-9.58509 5.19193,-18.37142 z"
       inkscape:connector-curvature="0"
       style="opacity:0.1;stroke-width:0.44562939" />
    <circle
       transform="scale(-1,1)"
       id="circle1157"
       r="15.17639"
       cy="256.05005"
       cx="-120.03411"
       style="fill:#ffc1c7;stroke-width:0.44562939" />
    <circle
       transform="scale(-1,1)"
       id="circle1179"
       r="14.377634"
       cy="241.67242"
       cx="-124.02782"
       style="fill:#2f2e41;stroke-width:0.44562939" />
  </g>
  <circle
     style="opacity:0.1;fill:#e79cc2;stroke-width:0.84103936"
     cx="856.09454"
     cy="161.58444"
     r="10.092472"
     id="circle3072" />
  <rect
     style="fill:#3f3d56;stroke-width:0.44562939"
     x="413.58801"
     y="365.04257"
     width="32.976574"
     height="11.140734"
     id="rect1565" />
  <rect
     style="fill:#e79cc2;stroke-width:0.44562939"
     x="387.74152"
     y="373.50952"
     width="24.063986"
     height="3.1194057"
     id="rect1567" />
  <ellipse
     style="fill:#f2f2f2;stroke-width:0.44562939"
     cx="111.5797"
     cy="537.08197"
     rx="67.735664"
     ry="12.477623"
     id="ellipse1607" />
  <path
     style="fill:#e79cc2;stroke-width:0.44562939"
     inkscape:connector-curvature="0"
     d="m 88.682836,288.99881 h -4.792521 c 0,0 -4.393196,33.94719 -1.19817,37.14222 3.195034,3.19504 11.981376,5.19192 13.179495,0 1.198163,-5.19192 0,-24.36211 0,-24.36211 z"
     id="path1145" />
  <path
     style="fill:#ffc1c7;stroke-width:0.44562939"
     inkscape:connector-curvature="0"
     d="m 126.62381,265.83486 c 0,0 -1.59749,13.17948 3.19503,15.97514 4.79256,2.79565 -5.59132,18.7708 -5.59132,18.7708 l -12.38074,3.19502 -8.38692,-11.58198 1.5975,-11.98135 c 0,0 9.58507,-9.58509 5.19193,-18.37142 z"
     id="path1149" />
  <path
     style="fill:#ffc1c7;stroke-width:0.44562939"
     inkscape:connector-curvature="0"
     d="m 144.59586,408.90038 c 0,0 4.79256,43.53228 0,53.91612 -4.79252,10.38385 -17.57268,39.53848 -17.57268,39.53848 l 3.99382,8.38695 -10.78325,-2.39628 -4.39316,-8.38695 c 0,0 5.19195,-20.36831 5.9907,-27.55713 0.79874,-7.18881 6.78942,-20.36829 6.78942,-20.36829 l -11.18262,-47.52607 z"
     id="path1153" />
  <path
     style="fill:#ffc1c7;stroke-width:0.44562939"
     inkscape:connector-curvature="0"
     d="m 106.65489,401.62361 c 0,0 -0.39937,43.93165 -3.19503,50.7462 l 1.59753,59.50744 -8.786337,1.173 c 0,0 -12.780113,-49.92234 -10.78325,-61.90367 1.996864,-11.98134 -0.399368,-55.11426 -0.399368,-55.11426 z"
     id="path1155" />
  <path
     style="fill:#e79cc2;stroke-width:0.44562939"
     inkscape:connector-curvature="0"
     d="m 68.314539,407.21491 c 0,0 10.783205,7.18881 15.176401,1.99689 4.393145,-5.19193 58.30927,3.19502 65.09869,1.5975 6.78949,-1.5975 -3.5944,-27.15774 -3.5944,-40.33723 0,-9.86067 -3.5784,-24.86134 -5.37963,-31.79454 -0.60704,-2.33238 -1.01043,-3.75017 -1.01043,-3.75017 0,0 -4.09764,-11.65787 -3.33085,-16.50233 a 4.1669375,4.1669375 0 0 1 0.2995,-1.06633 2.1894216,2.1894216 0 0 1 0.2357,-0.40337 c 1.91304,-2.55205 7.39651,-21.16308 9.52515,-29.15465 a 36.080381,36.080381 0 0 0 0.85869,-3.59442 c 0,-1.19812 -14.77703,-4.79254 -18.47126,-4.96427 -3.69827,-0.17172 -4.6927,4.96427 -4.6927,4.96427 -1.19816,0.79877 -6.78942,14.77702 -6.78942,14.77702 l -5.19194,-13.17949 c 0,0 0.39937,-2.79565 0.79874,-2.79565 0.39937,0 -5.90682,-3.77014 -5.90682,-3.77014 0,0 -6.47387,4.5689 -10.06832,3.77014 -3.594402,-0.79876 -11.981325,6.39006 -11.981325,6.39006 0,0 14.776974,37.14222 8.786291,45.12977 -5.99064,7.98757 -24.362067,72.68694 -24.362067,72.68694 z"
     id="path1159" />
  <path
     style="fill:#2f2e41;stroke-width:0.44562939"
     inkscape:connector-curvature="0"
     d="m 117.03872,498.36121 c 0,0 6.78943,6.78943 6.78943,7.58817 l 5.59131,-2.39628 c 0,0 2.39629,8.78634 2.79566,9.98447 0.39937,1.19814 7.18884,11.98137 13.97827,16.77391 6.78944,4.79254 0,10.78323 -5.99068,9.58509 -5.99068,-1.19814 -21.16708,-14.77702 -21.16708,-14.77702 0,0 -10.38384,0 -13.97824,-7.98756 0,2e-5 9.58509,-19.56955 11.98133,-18.77078 z"
     id="path1161" />
  <path
     style="fill:#2f2e41;stroke-width:0.44562939"
     inkscape:connector-curvature="0"
     d="m 97.069803,509.88035 c 0,0 10.259897,-7.45463 10.920947,-0.53229 0.66104,6.92235 0.66104,22.09875 0.66104,22.09875 0,0 3.19504,9.98446 -6.78942,8.78632 -9.984508,-1.19813 -10.78325,-3.99378 -10.78325,-3.99378 l 4.792564,-19.17019 v -8.38693 z"
     id="path1163" />
  <path
     style="opacity:0.1;stroke-width:0.44562939"
     inkscape:connector-curvature="0"
     d="m 135.80952,316.95533 c 1.91304,-2.55205 7.39651,-21.16308 9.52519,-29.15465 h -1.93697 c 0,0 -4.86444,19.03838 -7.82387,29.55802 a 2.1894216,2.1894216 0 0 1 0.23565,-0.40337 z"
     id="path1165" />
  <path
     style="opacity:0.1;stroke-width:0.44562939"
     inkscape:connector-curvature="0"
     d="m 109.45054,343.31431 c 0,0 5.59131,0.39938 25.9596,-3.5944 a 40.719009,40.719009 0 0 0 4.2055,-1.04238 c -0.60708,-2.33238 -1.01047,-3.75017 -1.01047,-3.75017 0,0 -4.09761,-11.65787 -3.33085,-16.50233 -0.95446,3.35477 -1.66536,5.61926 -1.86104,5.71911 -0.79879,0.39938 -26.35897,4.79254 -29.95342,6.39005 -3.594455,1.59753 5.99068,12.78012 5.99068,12.78012 z"
     id="path1167" />
  <path
     style="opacity:0.1;stroke-width:0.44562939"
     inkscape:connector-curvature="0"
     d="m 102.26174,291.04405 c 0,0 -11.015737,-1.35917 -11.69826,0.42691 -0.68248,1.78608 -3.478139,19.04778 -4.676258,21.26081 -1.198163,2.21304 -1.597538,15.93386 3.195026,16.37644 4.792521,0.44259 11.182622,-4.42607 9.984459,-8.40953 -1.19816,-3.98347 3.195033,-29.65463 3.195033,-29.65463 z"
     id="path1169" />
  <path
     style="fill:#ffc1c7;stroke-width:0.44562939"
     inkscape:connector-curvature="0"
     d="m 107.85301,327.73854 c 0,0 -16.77389,1.9969 -19.569549,0 -2.795658,-1.99689 -14.377607,-1.99689 -11.981368,3.59441 2.396282,5.5913 23.163997,5.99068 23.163997,5.99068 h 11.98137 z"
     id="path1171" />
  <path
     style="fill:#e79cc2;stroke-width:0.44562939"
     inkscape:connector-curvature="0"
     d="m 143.39774,285.00503 h 2.79565 c 0,0 5.59132,1.19813 4.79252,18.77079 -0.79874,17.57267 4.79257,29.15464 -15.57577,33.14844 -20.36829,3.99378 -25.9596,3.5944 -25.9596,3.5944 0,0 -9.585089,-11.18262 -5.99068,-12.78012 3.5944,-1.59748 29.15463,-5.99067 29.95342,-6.39005 0.79879,-0.39938 9.98446,-36.34346 9.98446,-36.34346 z"
     id="path1173" />
  <path
     style="fill:#ffc1c7;stroke-width:0.44562939"
     inkscape:connector-curvature="0"
     d="m 90.870428,292.8878 c 0,0 6.998163,-26.25419 12.589432,-26.25419 5.59131,0 11.98137,1.19814 7.1888,6.39006 -4.79253,5.19192 -10.783209,10.78322 -11.182615,13.57887 -0.399384,2.79565 -1.996874,6.78944 -1.996874,6.78944 z"
     id="path1175" />
  <path
     style="fill:#e79cc2;stroke-width:0.44562939"
     inkscape:connector-curvature="0"
     d="m 100.66421,291.04405 c 0,0 -11.015745,-1.35917 -11.698269,0.42691 -0.68248,1.78608 -3.478138,19.04778 -4.676257,21.26081 -1.198163,2.21304 -1.597539,15.93386 3.195033,16.37644 4.792521,0.44259 11.182618,-4.42607 9.984454,-8.40953 -1.198163,-3.98347 3.195039,-29.65463 3.195039,-29.65463 z"
     id="path1177" />
  <g
     id="leafOne">
    <path
       id="path2031"
       stroke-miterlimit="10"
       d="m 259.50212,126.33141 c 0,0 -4.86624,4.59246 -10.08888,4.72933 a 10.135931,10.135931 0 0 0 -6.04109,2.14867 17.048154,17.048154 0 0 0 -2.25845,2.14867"
       inkscape:connector-curvature="0"
       style="fill:none;stroke:#535461;stroke-width:0.28515771;stroke-miterlimit:10" />
    <path
       id="path2033"
       d="m 237.82015,135.47072 c 0.70147,-0.35646 3.37911,-0.11977 3.37911,-0.11977 0,0 -1.38871,2.30264 -2.09022,2.6591 a 1.4257886,1.4257886 0 1 1 -1.28318,-2.53933 z"
       inkscape:connector-curvature="0"
       style="fill:#e79cc2;stroke-width:0.14257886" />
    <path
       id="path2035"
       d="m 240.63894,131.40009 c 0.78274,0.0827 2.90149,1.73661 2.90149,1.73661 0,0 -2.42387,1.1777 -3.19949,1.09643 a 1.4257886,1.4257886 0 0 1 0.298,-2.83304 z"
       inkscape:connector-curvature="0"
       style="fill:#e79cc2;stroke-width:0.14257886" />
    <path
       id="path2037"
       d="m 247.32302,128.11935 c 0.63306,0.46624 1.62823,2.96421 1.62823,2.96421 0,0 -2.68187,-0.20388 -3.31494,-0.66869 a 1.4257886,1.4257886 0 0 1 1.68671,-2.29552 z"
       inkscape:connector-curvature="0"
       style="fill:#e79cc2;stroke-width:0.14257886" />
    <path
       id="path2039"
       d="m 252.93919,126.77768 c 0.70294,0.35218 2.10592,2.64627 2.10592,2.64627 0,0 -2.67767,0.25236 -3.38055,-0.0998 a 1.4257886,1.4257886 0 1 1 1.27463,-2.54646 z"
       inkscape:connector-curvature="0"
       style="fill:#e79cc2;stroke-width:0.14257886" />
    <path
       id="path2041"
       d="m 245.03034,135.73306 c 0.23382,-0.75139 -0.45052,-3.35202 -0.45052,-3.35202 0,0 -2.03604,1.75656 -2.26987,2.50796 a 1.4257886,1.4257886 0 1 0 2.72039,0.84406 z"
       inkscape:connector-curvature="0"
       style="fill:#e79cc2;stroke-width:0.14257886" />
    <path
       id="path2043"
       d="m 251.579,134.07487 c 0,-0.78703 -1.43292,-3.06259 -1.43292,-3.06259 0,0 -1.41724,2.28126 -1.41582,3.07114 a 1.4258039,1.4258039 0 0 0 2.85159,-0.009 z"
       inkscape:connector-curvature="0"
       style="fill:#e79cc2;stroke-width:0.14257886" />
    <path
       id="path2045"
       d="m 257.72271,131.5997 c 0.13119,-0.77563 -0.8954,-3.26078 -0.8954,-3.26078 0,0 -1.78363,2.01321 -1.91341,2.78884 a 1.4257886,1.4257886 0 0 0 2.80881,0.47336 z"
       inkscape:connector-curvature="0"
       style="fill:#e79cc2;stroke-width:0.14257886" />
  </g>
  <g
     id="leafTwo">
    <path
       id="path2047"
       stroke-miterlimit="10"
       d="m 265.82546,114.16944 c 0,0 -5.86141,-3.21944 -7.60373,-8.15124 a 10.135931,10.135931 0 0 0 -3.90238,-5.08864 17.048154,17.048154 0 0 0 -2.7432,-1.482819"
       inkscape:connector-curvature="0"
       style="fill:none;stroke:#535461;stroke-width:0.28515771;stroke-miterlimit:10" />
    <path
       id="path2049"
       d="m 250.46404,96.345652 c 0.55462,0.557481 1.15204,3.179501 1.15204,3.179501 0,0 -2.61777,-0.613084 -3.17239,-1.171998 a 1.4257886,1.4257886 0 0 1 2.02035,-2.007503 z"
       inkscape:connector-curvature="0"
       style="fill:#e79cc2;stroke-width:0.14257886" />
    <path
       id="path2051"
       d="m 255.20478,97.775718 c 0.16255,0.76992 -0.75994,3.294992 -0.75994,3.294992 0,0 -1.86354,-1.937641 -2.02605,-2.708993 a 1.4257886,1.4257886 0 1 1 2.78741,-0.587431 z"
       inkscape:connector-curvature="0"
       style="fill:#e79cc2;stroke-width:0.14257886" />
    <path
       id="path2053"
       d="m 260.3804,103.13525 c -0.24808,0.74569 -2.31977,2.46091 -2.31977,2.46091 0,0 -0.6302,-2.61347 -0.38212,-3.36058 a 1.4272551,1.4272551 0 0 1 2.70902,0.89967 z"
       inkscape:connector-curvature="0"
       style="fill:#e79cc2;stroke-width:0.14257886" />
    <path
       id="path2055"
       d="m 263.38595,108.06135 c -0.11831,0.77705 -1.87061,2.81736 -1.87061,2.81736 0,0 -1.06364,-2.46947 -0.94532,-3.24653 a 1.4257886,1.4257886 0 1 1 2.81593,0.42775 z"
       inkscape:connector-curvature="0"
       style="fill:#e79cc2;stroke-width:0.14257886" />
    <path
       id="path2057"
       d="m 252.4302,103.28781 c 0.78702,-0.008 3.05118,-1.46001 3.05118,-1.46001 0,0 -2.29695,-1.39727 -3.08399,-1.38872 a 1.4258865,1.4258865 0 1 0 0.033,2.85158 z"
       inkscape:connector-curvature="0"
       style="fill:#e79cc2;stroke-width:0.14257886" />
    <path
       id="path2059"
       d="m 256.01747,109.01092 c 0.74715,-0.2438 2.47374,-2.3055 2.47374,-2.3055 0,0 -2.61059,-0.64587 -3.35774,-0.40206 a 1.4257886,1.4257886 0 1 0 0.884,2.70899 z"
       inkscape:connector-curvature="0"
       style="fill:#e79cc2;stroke-width:0.14257886" />
    <path
       id="path2061"
       d="m 260.26633,114.09529 c 0.77847,-0.11407 2.82876,-1.85352 2.82876,-1.85352 0,0 -2.46375,-1.07791 -3.2408,-0.96384 a 1.4257886,1.4257886 0 1 0 0.41346,2.81878 z"
       inkscape:connector-curvature="0"
       style="fill:#e79cc2;stroke-width:0.14257886" />
  </g>
  <circle
     style="fill:url(#linearGradient2257);stroke-width:0.14257886"
     cx="306.16241"
     cy="140.67201"
     id="circle2063"
     r="51.613544" />
  <circle
     style="fill:#e79cc2;stroke-width:0.14257886"
     cx="306.16241"
     cy="140.67201"
     id="circle2065"
     r="50.758076" />
  <circle
     style="fill:#dde1ec;stroke-width:0.14257886"
     cx="306.16241"
     cy="140.67201"
     id="circle2067"
     r="40.349815" />
  <rect
     id="rect2071"
     height="2.851577"
     width="32.222824"
     y="139.81651"
     x="308.58627"
     style="stroke-width:0.14257886" />
  <rect
     id="rect2073"
     transform="rotate(-62.36)"
     height="22.886761"
     width="2.851577"
     y="313.13055"
     x="15.342642"
     style="stroke-width:0.14257886" />
  <circle
     id="circle2075"
     r="4.2773652"
     cy="141.24231"
     cx="306.16241"
     style="stroke-width:0.14257886" />
  <rect
     style="fill:#535461;stroke-width:0.14257886"
     x="308.5863"
     y="139.2462"
     width="32.222824"
     height="2.8515773"
     id="rect2079" />
  <rect
     style="fill:#535461;stroke-width:0.14257886"
     x="312.87579"
     y="-18.70093"
     width="22.886761"
     height="2.8515773"
     transform="rotate(27.64)"
     id="rect2081" />
  <g
     id="clock"
     inkscape:label="#g984">
    <rect
       id="rect2069"
       height="35.644714"
       width="2.2812617"
       y="107"
       x="306"
       style="opacity:0.3;fill:#535461;stroke-width:0.14257886" />
    <circle
       r="4.2773652"
       id="circle2083"
       cy="140"
       cx="306"
       style="fill:#535461;stroke-width:0.14257886" />
  </g>
  <path
     id="path2085"
     d="m 268.94652,145.51967 c 0,-22.28508 18.06474,-40.34982 40.34981,-40.34982 a 40.287082,40.287082 0 0 1 32.24561,16.0886 c -6.86658,-12.47851 -20.1264,-20.93627 -35.38235,-20.93627 -22.28508,0 -40.34982,18.06473 -40.34982,40.34981 a 40.170167,40.170167 0 0 0 8.10845,24.26123 40.16589,40.16589 0 0 1 -4.9717,-19.41355 z"
     inkscape:connector-curvature="0"
     style="stroke-width:0.14257886" />
  <g
     transform="matrix(0.52023753,0,0,0.52023753,1039.0577,208.93194)"
     id="g6630">
    <polygon
       transform="matrix(-1.1115242,0,0,1.1115242,-665.19045,-171.2831)"
       id="polygon4741"
       points="144.084,750.379 139.271,748.721 185.896,610.231 192.636,612.553 "
       style="fill:#3f3d56" />
    <polygon
       transform="matrix(-1.1115242,0,0,1.1115242,-670.01786,-192.70361)"
       id="polygon4745"
       points="228.861,778.999 230.443,617.107 223.315,617.082 223.77,778.981 "
       style="fill:#3f3d56" />
    <polygon
       style="fill:#3f3d56"
       points="273.74,612.553 322.291,750.379 327.105,748.721 280.479,610.231 "
       id="polygon6556"
       transform="matrix(-0.90042244,0,0,0.90042244,-671.75625,-58.358504)" />
    <polygon
       transform="matrix(-1.1115242,0,0,1.1115242,-665.19045,-171.2831)"
       id="polygon4743"
       points="322.291,750.379 327.105,748.721 280.479,610.231 273.74,612.553 "
       style="fill:#3f3d56" />
    <g
       transform="translate(-37.033059,258.58124)"
       id="g6671">
      <rect
         style="opacity:1;fill:#e79cc2;fill-opacity:1;stroke:#e79cc2;stroke-width:1.68593848;stroke-miterlimit:4;stroke-dasharray:none;stroke-dashoffset:0;stroke-opacity:1"
         id="rect6665"
         width="135.54245"
         height="202.74355"
         x="-932.42603"
         y="48.259594"
         ry="44.761562" />
      <rect
         style="opacity:1;fill:#e79cc2;fill-opacity:1;stroke:#e79cc2;stroke-width:2.74108243;stroke-miterlimit:4;stroke-dasharray:none;stroke-dashoffset:0;stroke-opacity:1"
         id="rect6667"
         width="206.04045"
         height="54.944122"
         x="-1002.924"
         y="196.05902"
         ry="27.472061" />
    </g>
  </g>
  <g
     id="g6643"
     transform="matrix(0.52023753,0,0,0.52023753,969.38423,196.42645)">
    <polygon
       transform="matrix(-1.1025768,0,0,1.1025768,-415.44027,-51.68396)"
       id="polygon3076"
       points="214,487.31 213.63,507.26 210.67,668.97 185.33,728.31 98,729.31 98,496.5 189.14,489.28 "
       style="fill:#5f5d7e" />
    <polygon
       transform="matrix(-1.1025768,0,0,1.1025768,-415.44027,-51.68396)"
       id="polygon3078"
       points="214,487.31 213.63,507.26 210.67,668.97 185.33,728.31 98,729.31 98,496.5 189.14,489.28 "
       style="opacity:0.1" />
    <polygon
       transform="matrix(-1.1025768,0,0,1.1025768,-415.44027,-51.68396)"
       id="polygon3080"
       points="214,487.31 213.63,507.26 210.67,668.97 185.33,728.31 192,507.64 191.98,507.5 189.14,489.28 "
       style="fill:#5f5d7e" />
    <polygon
       transform="matrix(-1.1025768,0,0,1.1025768,-415.44027,-51.68396)"
       id="polygon3084"
       points="897.33,489.97 970,483.14 974.46,485.19 978.67,487.13 999,496.5 999,727.97 978.67,727.97 897.33,668.64 "
       style="fill:#5f5d7e" />
    <rect
       transform="scale(-1,1)"
       id="rect3086"
       height="267.68359"
       width="22.415386"
       y="483.27527"
       x="1494.499"
       style="opacity:0.1;stroke-width:1.10257685" />
    <polygon
       transform="matrix(-1.1025768,0,0,1.1025768,-415.44027,-51.68396)"
       id="polygon3088"
       points="999,498.5 978.67,498.73 897.33,499.63 897.33,489.97 970,483.14 974.46,485.19 978.67,487.13 978.67,485.19 999,485.19 "
       style="opacity:0.1" />
    <polygon
       transform="matrix(-1.1025768,0,0,1.1025768,-415.44027,-51.68396)"
       id="polygon3090"
       points="94,464.64 912,458.64 999,477.64 999,496.5 0,507.64 0,483.64 "
       style="fill:#5f5d7e" />
    <polygon
       transform="matrix(-1.1025768,0,0,1.1025768,-415.44027,-51.68396)"
       id="polygon3092"
       points="999,477.64 999,496.5 0,507.64 0,483.64 "
       style="opacity:0.1" />
    <g
       id="leafsTwo">
      <path
         style="fill:#e79cc2"
         inkscape:connector-curvature="0"
         d="m -567.35845,422.73758 3.46953,-5.362 a 80.3871,80.3871 0 0 0 -3.55953,-8.33251 l -2.24351,1.812 1.77642,-2.74534 c -1.69294,-3.3325 -3.02505,-5.43215 -3.02505,-5.43215 0,0 -6.95827,10.96511 -9.283,22.57466 l 4.45222,6.88072 -4.92881,-3.981 a 32.52438,32.52438 0 0 0 -0.27041,4.0782 c 0,13.74959 4.49057,24.89583 10.03,24.89583 5.53943,0 10.03,-11.14624 10.03,-24.89583 a 42.818,42.818 0 0 0 -2.29454,-12.84723 z"
         id="path4643" />
      <path
         style="fill:#e79cc2"
         inkscape:connector-curvature="0"
         d="m -542.80057,434.6577 6.24485,-1.33818 a 80.386,80.386 0 0 0 3.375,-8.40894 l -2.86772,-0.30508 3.19737,-0.68514 c 1.15934,-3.55352 1.70208,-5.98014 1.70208,-5.98014 0,0 -12.67374,2.83326 -22.52676,9.39864 l -1.71721,8.01359 -0.67022,-6.30016 a 32.52414,32.52414 0 0 0 -3.07493,2.69252 c -9.72243,9.72242 -14.4287,20.77932 -10.51175,24.69627 3.91695,3.91695 14.97385,-0.78932 24.69628,-10.51174 a 42.818,42.818 0 0 0 7.46188,-10.70686 z"
         id="path4645" />
    </g>
    <path
       id="path4647"
       d="m -540.51958,477.58255 c -14.48118,0.92631 -30.25994,-0.0539 -47.04589,0 V 439.1507 c 14.79122,2.30262 30.56472,2.06615 47.04589,0 z"
       inkscape:connector-curvature="0"
       style="fill:#3f3d56" />
  </g>
  <g
     transform="matrix(0.13690954,0,0,0.13690954,78.278681,417.26075)"
     id="g8207">
    <polygon
       style="fill:#e79cc2"
       points="93.17,688.83 59.16,609.06 179.42,600.33 158.46,512.87 396.32,482.04 168.55,402.86 188.67,398.08 554.92,457.83 534.75,594.32 505.92,669.33 435.45,690.5 "
       id="polygon7427"
       transform="matrix(0.85658828,0,0,0.85658828,978.75063,-413.74313)" />
    <path
       style="fill:#e79cc2;stroke-width:0.8565883"
       inkscape:connector-curvature="0"
       d="m 1063.056,147.68196 c 0,0 17.9884,-2.87813 28.7814,9.83364 0,0 -7.9149,6.23596 -24.9438,-2.39845 z"
       id="path7429" />
    <path
       style="fill:#e79cc2;stroke-width:0.8565883"
       inkscape:connector-curvature="0"
       d="m 1061.1716,147.39929 c 0,0 -11.4783,14.12514 -5.8248,29.8521 0,0 9.3539,-3.74329 10.3732,-22.81094 z"
       id="path7431" />
    <path
       style="fill:#e79cc2;stroke-width:0.8565883"
       inkscape:connector-curvature="0"
       d="m 1050.8582,124.17718 c 0,0 7.1954,-13.20002 35.9767,5.27658 0,0 -3.8375,8.87426 -16.5492,8.15473 -12.7118,-0.71954 -16.0696,-6.47581 -19.4275,-13.43131 z"
       id="path7433" />
    <path
       style="fill:#e79cc2;stroke-width:0.8565883"
       inkscape:connector-curvature="0"
       d="m 1048.9994,123.22637 c 0,0 -14.9303,-1.71318 -16.3779,32.46469 0,0 9.4653,1.96159 16.1895,-8.84855 6.7242,-10.81015 3.966,-16.87479 0.1884,-23.61614 z"
       id="path7435" />
    <path
       style="fill:#d5d6db;stroke-width:0.8565883"
       inkscape:connector-curvature="0"
       d="m 1519.0266,123.28633 c 0,0 -19.4189,23.7018 -4.0003,59.53288 l -155.0425,67.24218 -14.8789,3.11799 -6.8527,-29.98059 4.5827,-37.83551 v -20.67804 z"
       id="path7501" />
    <polygon
       style="fill:#e79cc2"
       points="435.45,690.5 59.16,609.06 309.68,563.39 641.63,616.27 "
       id="polygon7503"
       transform="matrix(0.85658828,0,0,0.85658828,978.75063,-413.74313)" />
    <polygon
       style="fill:#e79cc2"
       points="435.45,690.5 59.16,609.06 309.68,563.39 641.63,616.27 "
       id="polygon7505"
       transform="matrix(0.85658828,0,0,0.85658828,978.75063,-413.74313)" />
    <path
       style="fill:#e79cc2;stroke-width:0.8565883"
       inkscape:connector-curvature="0"
       d="m 1029.4264,107.96197 c 0,0 -20.0699,38.02395 3.058,73.14407 l 318.2226,68.95535 c 0,0 -19.753,-30.28896 1.0193,-72.33031 z"
       id="path7507" />
    <path
       style="opacity:0.1;stroke-width:0.8565883"
       inkscape:connector-curvature="0"
       d="m 1029.4264,107.96197 c 0,0 -20.0699,38.02395 3.058,73.14407 l 318.2226,68.95535 c 0,0 -19.753,-30.28896 1.0193,-72.33031 z"
       id="path7509" />
    <path
       style="opacity:0.1;stroke-width:0.8565883"
       inkscape:connector-curvature="0"
       d="m 1038.9088,121.14486 c 0,0 -11.4697,27.82199 0,45.82747"
       id="path7511" />
    <path
       style="fill:#e79cc2;stroke-width:0.8565883"
       inkscape:connector-curvature="0"
       d="m 1350.707,250.06139 177.6564,-75.80806 c 0,0 9.9364,2.14147 3.512,9.42247 -6.4244,7.281 -177.7421,73.6666 -177.7421,73.6666 l -321.6489,-76.23636 z"
       id="path7513" />
    <path
       style="opacity:0.1;stroke-width:0.8565883"
       inkscape:connector-curvature="0"
       d="m 1350.707,250.06139 177.6564,-75.80806 c 0,0 9.9364,2.14147 3.512,9.42247 -6.4244,7.281 -177.7421,73.6666 -177.7421,73.6666 l -321.6489,-76.23636 z"
       id="path7515" />
    <path
       style="opacity:0.1;stroke-width:0.8565883"
       inkscape:connector-curvature="0"
       d="m 1336.145,185.38898 c 0,0 -17.1318,20.55812 0,51.3953"
       id="path7517" />
    <rect
       style="opacity:0.1;stroke-width:0.8565883"
       x="1206.5764"
       y="624.63831"
       width="81.007553"
       height="0.8565883"
       transform="rotate(-18.45)"
       id="rect7519" />
    <rect
       style="opacity:0.1;stroke-width:0.8565883"
       x="1177.2407"
       y="680.43488"
       width="98.704674"
       height="0.8565883"
       transform="rotate(-20.82)"
       id="rect7521" />
    <rect
       style="opacity:0.1;stroke-width:0.8565883"
       x="1157.1654"
       y="717.52539"
       width="114.40593"
       height="0.8565883"
       transform="rotate(-22.26)"
       id="rect7523" />
    <rect
       style="opacity:0.1;stroke-width:0.8565883"
       x="1128.9344"
       y="765.49805"
       width="131.69188"
       height="0.8565883"
       transform="rotate(-24.31)"
       id="rect7525" />
    <rect
       style="opacity:0.1;stroke-width:0.8565883"
       x="1137.6746"
       y="755.22815"
       width="144.03531"
       height="0.8565883"
       transform="rotate(-23.61)"
       id="rect7527" />
    <rect
       style="opacity:0.1;stroke-width:0.8565883"
       x="1140.4631"
       y="756.42444"
       width="172.3627"
       height="0.8565883"
       transform="rotate(-23.36)"
       id="rect7529" />
    <polygon
       style="opacity:0.3;fill:#ffffff"
       points="291.23,643.94 152.23,613.94 328.23,576.94 435.45,597.44 "
       id="polygon7531"
       transform="matrix(0.85658828,0,0,0.85658828,978.75063,-413.74313)" />
    <path
       style="fill:#e79cc2;stroke-width:0.8565883"
       inkscape:connector-curvature="0"
       d="m 1528.3634,114.14653 c 0,0 7.7949,3.14368 3.2207,8.00054 -4.5741,4.85685 -179.8578,55.58401 -179.8578,55.58401 z"
       id="path7533" />
    <path
       style="fill:#d5d6db;stroke-width:0.8565883"
       inkscape:connector-curvature="0"
       d="m 1604.0772,40.899669 c 0,0 -19.4103,23.693231 -3.9917,59.532881 l -155.0425,67.24218 -14.8789,3.13512 -6.8527,-29.98059 4.6513,-37.82694 V 82.29858 Z"
       id="path7535" />
    <polygon
       style="fill:#3a3768"
       points="534.75,594.32 158.46,512.87 408.97,467.21 740.93,520.09 "
       id="polygon7537"
       transform="matrix(0.85658828,0,0,0.85658828,978.75063,-413.74313)" />
    <path
       style="fill:#3a3768;stroke-width:0.8565883"
       inkscape:connector-curvature="0"
       d="m 1114.4513,25.575304 c 0,0 -20.0784,38.023954 3.0495,73.144074 l 318.2225,68.955352 c 0,0 -19.7443,-30.31466 1.0536,-72.338876 z"
       id="path7539" />
    <path
       style="opacity:0.1;stroke-width:0.8565883"
       inkscape:connector-curvature="0"
       d="m 1114.4513,25.575304 c 0,0 -20.0784,38.023954 3.0495,73.144074 l 318.2225,68.955352 c 0,0 -19.7443,-30.31466 1.0536,-72.338876 L 1336.145,73.552814 Z"
       id="path7541" />
    <path
       style="opacity:0.1;stroke-width:0.8565883"
       inkscape:connector-curvature="0"
       d="m 1123.9595,38.758198 c 0,0 -11.4612,27.813421 0,45.827473"
       id="path7543" />
    <path
       style="fill:#3a3768;stroke-width:0.8565883"
       inkscape:connector-curvature="0"
       d="m 1435.7576,167.67473 177.665,-75.808059 c 0,0 9.9278,2.141471 3.5034,9.422469 -6.4244,7.281 -177.742,73.66659 -177.742,73.66659 L 1117.5351,98.719378 Z"
       id="path7545" />
    <path
       style="opacity:0.1;stroke-width:0.8565883"
       inkscape:connector-curvature="0"
       d="m 1435.7576,167.67473 177.665,-75.808059 c 0,0 9.9278,2.141471 3.5034,9.422469 -6.4244,7.281 -177.742,73.66659 -177.742,73.66659 L 1117.5351,98.719378 Z"
       id="path7547" />
    <path
       style="opacity:0.1;stroke-width:0.8565883"
       inkscape:connector-curvature="0"
       d="m 1421.1956,103.00232 c 0,0 -17.1318,20.55812 0,51.3953"
       id="path7549" />
    <rect
       style="opacity:0.1;stroke-width:0.8565883"
       x="1313.3324"
       y="573.41357"
       width="81.007553"
       height="0.8565883"
       transform="rotate(-18.45)"
       id="rect7551" />
    <rect
       style="opacity:0.1;stroke-width:0.8565883"
       x="1286.0352"
       y="633.66864"
       width="98.704674"
       height="0.8565883"
       transform="rotate(-20.82)"
       id="rect7553" />
    <rect
       style="opacity:0.1;stroke-width:0.8565883"
       x="1267.0936"
       y="673.49219"
       width="114.40593"
       height="0.8565883"
       transform="rotate(-22.26)"
       id="rect7555" />
    <rect
       style="opacity:0.1;stroke-width:0.8565883"
       x="1240.3757"
       y="725.43091"
       width="131.69188"
       height="0.8565883"
       transform="rotate(-24.31)"
       id="rect7557" />
    <rect
       style="opacity:0.1;stroke-width:0.8565883"
       x="1248.6112"
       y="713.78766"
       width="144.03531"
       height="0.8565883"
       transform="rotate(-23.61)"
       id="rect7559" />
    <rect
       style="opacity:0.1;stroke-width:0.8565883"
       x="1251.2239"
       y="714.50299"
       width="172.3627"
       height="0.8565883"
       transform="rotate(-23.36)"
       id="rect7561" />
    <polygon
       style="opacity:0.45;fill:#ffffff"
       points="390.53,547.76 251.53,517.76 427.53,480.76 534.75,501.26 "
       id="polygon7563"
       transform="matrix(0.85658828,0,0,0.85658828,978.75063,-413.74313)" />
    <path
       style="fill:#3a3768;stroke-width:0.8565883"
       inkscape:connector-curvature="0"
       d="m 1613.4226,31.759872 c 0,0 7.7864,3.143679 3.2208,7.991968 -4.5657,4.84829 -179.8322,55.584014 -179.8322,55.584014 z"
       id="path7565" />
    <path
       style="fill:#d5d6db;stroke-width:0.8565883"
       inkscape:connector-curvature="0"
       d="m 1612.1291,-53.35074 c 0,0 -19.4188,42.54674 -4.0002,78.377828 l -155.0425,48.397238 -14.8447,3.143679 -6.8527,-29.98059 4.5828,-37.8355045 V -11.951828 Z"
       id="path7567" />
    <polygon
       style="fill:#e79cc2"
       points="544.18,484.29 167.89,402.85 418.41,357.18 750.37,410.06 "
       id="polygon7569"
       transform="matrix(0.85658828,0,0,0.85658828,978.75063,-413.74313)" />
    <path
       style="fill:#e79cc2;stroke-width:0.8565883"
       inkscape:connector-curvature="0"
       d="m 1122.5632,-68.675104 c 0,0 -20.1041,38.023954 3.0238,73.1440731 l 318.2225,68.9553569 c 0,0 -19.7529,-30.31466 1.0451,-72.3303148 z"
       id="path7571" />
    <path
       style="opacity:0.1;stroke-width:0.8565883"
       inkscape:connector-curvature="0"
       d="m 1122.5632,-68.675104 c 0,0 -20.1041,38.023954 3.0238,73.1440731 l 318.2225,68.9553569 c 0,0 -19.7529,-30.31466 1.0451,-72.3303148 z"
       id="path7573" />
    <path
       style="opacity:0.1;stroke-width:0.8565883"
       inkscape:connector-curvature="0"
       d="m 1132.0457,-55.492211 c 0,0 -11.4697,27.821988 0,45.8274734"
       id="path7575" />
    <path
       style="fill:#e79cc2;stroke-width:0.8565883"
       inkscape:connector-curvature="0"
       d="m 1443.8438,73.424326 177.6564,-56.963121 c 0,0 9.9364,2.141471 3.512,9.422471 -6.4244,7.281 -177.742,54.82165 -177.742,54.82165 L 1125.6213,4.4689691 Z"
       id="path7577" />
    <path
       style="opacity:0.1;stroke-width:0.8565883"
       inkscape:connector-curvature="0"
       d="m 1443.8438,73.424326 177.6564,-56.963121 c 0,0 9.9364,2.141471 3.512,9.422471 -6.4244,7.281 -177.742,54.82165 -177.742,54.82165 L 1125.6213,4.4689691 Z"
       id="path7579" />
    <path
       style="opacity:0.1;stroke-width:0.8565883"
       inkscape:connector-curvature="0"
       d="m 1429.2818,8.7519105 c 0,0 -17.1318,20.5581185 0,51.3952965"
       id="path7581" />
    <rect
       style="opacity:0.1;stroke-width:0.8565883"
       x="1327.0889"
       y="548.44794"
       width="98.704674"
       height="0.8565883"
       transform="rotate(-20.82)"
       id="rect7585" />
    <rect
       style="opacity:0.1;stroke-width:0.8565883"
       x="1310.2671"
       y="589.33093"
       width="114.40593"
       height="0.8565883"
       transform="rotate(-22.26)"
       id="rect7587" />
    <rect
       style="opacity:0.1;stroke-width:0.8565883"
       x="1286.5463"
       y="642.86597"
       width="131.69188"
       height="0.8565883"
       transform="rotate(-24.31)"
       id="rect7589" />
    <rect
       style="opacity:0.1;stroke-width:0.8565883"
       x="1293.7703"
       y="630.67407"
       width="144.03531"
       height="0.8565883"
       transform="rotate(-23.61)"
       id="rect7591" />
    <rect
       style="opacity:0.1;stroke-width:0.8565883"
       x="1296.015"
       y="631.19708"
       width="172.3627"
       height="0.8565883"
       transform="rotate(-23.36)"
       id="rect7593" />
    <polygon
       style="opacity:0.3;fill:#ffffff"
       points="399.96,437.73 260.96,407.73 436.96,370.73 544.18,391.23 "
       id="polygon7595"
       transform="matrix(0.85658828,0,0,0.85658828,978.75063,-413.74313)" />
    <path
       style="opacity:0.1;fill:#e79cc2;stroke-width:0.8565883"
       inkscape:connector-curvature="0"
       d="m 1702.5849,-228.65153 c 0,0 -32.5504,-1.96159 -28.7471,20.87506 0,0 -0.7624,4.03453 2.8952,5.86762 0,0 0.06,-1.71317 3.3407,-1.12213 a 15.093085,15.093085 0 0 0 3.5463,0.17132 7.3580933,7.3580933 0 0 0 4.2829,-1.7817 v 0 c 0,0 9.1655,-3.78612 12.7204,-18.75929 0,0 2.6383,-3.2636 2.5697,-4.10305 l -5.4993,2.34705 c 0,0 1.876,3.966 0.4026,7.26387 0,0 -0.1798,-7.11825 -1.2335,-6.9555 -0.2141,0 -2.861,1.37911 -2.861,1.37911 0,0 3.2294,6.91267 0.7967,11.93227 0,0 0.9251,-8.51449 -1.8074,-11.43545 l -3.8718,2.26139 c 0,0 3.7775,7.13538 1.2163,12.96018 0,0 0.6596,-8.93421 -2.0301,-12.41196 l -3.5034,2.74108 c 0,0 3.5463,7.03259 1.3791,11.86375 0,0 -0.2827,-10.39898 -2.1415,-11.18704 0,0 -3.0666,2.70681 -3.5377,3.82038 0,0 2.4327,5.13953 0.9251,7.80352 0,0 -0.9251,-6.9298 -1.7131,-6.96406 0,0 -3.0581,4.59131 -3.375,7.70929 a 16.617813,16.617813 0 0 1 2.6383,-8.17185 9.2168899,9.2168899 0 0 0 -4.6856,2.42414 c 0,0 0.4797,-3.24647 5.4394,-3.52914 0,0 2.5269,-3.48631 3.2036,-3.70046 0,0 -4.9339,-0.41116 -7.932,0.91655 0,0 2.6383,-3.05802 8.8314,-1.71318 l 3.4264,-2.82674 c 0,0 -6.5015,-0.85659 -9.2512,0.0942 0,0 3.1694,-2.70681 10.1849,-0.73666 l 3.769,-2.25283 c 0,0 -5.5422,-1.19066 -8.84,-0.76236 0,0 3.4777,-1.87593 9.945,0.15418 l 2.6982,-1.20779 c 0,0 -4.0602,-0.79662 -5.2509,-0.92511 -1.1906,-0.12849 -1.2506,-0.45399 -1.2506,-0.45399 a 14.039482,14.039482 0 0 1 7.6236,0.85659 c 0,0 5.7991,-2.08151 5.6964,-2.44128 z"
       id="path7601" />
    <path
       style="opacity:0.1;fill:#e79cc2;stroke-width:0.8565883"
       inkscape:connector-curvature="0"
       d="m 1299.4744,-181.43639 c 0,0 -14.1851,-29.40667 -32.242,-14.9132 0,0 -3.8974,1.30202 -3.709,5.38794 0,0 1.499,-0.77949 2.5698,2.37275 a 15.178744,15.178744 0 0 0 1.5761,3.16938 7.3923569,7.3923569 0 0 0 3.6748,2.9124 v 0 c 0,0 7.7692,6.1503 22.5796,1.95302 0,0 4.1373,0.71097 4.814,0.21415 l -4.7283,-3.65763 c 0,0 -2.5698,3.57197 -6.1503,3.88891 0,0 6.1331,-3.62337 5.4736,-4.46283 -0.1371,-0.17132 -2.5698,-1.82453 -2.5698,-1.82453 0,0 -4.4628,6.19313 -10.0306,6.51007 0,0 7.8806,-3.34069 9.0969,-7.15251 l -3.8546,-2.27853 c 0,0 -4.3943,6.78418 -10.7245,7.38379 0,0 8.1205,-3.77755 9.8422,-7.82065 l -4.0945,-1.71317 c 0,0 -4.4114,6.5272 -9.688,6.99832 0,0 8.9428,-5.31941 8.7201,-7.33239 0,0 -3.8633,-1.35341 -5.0625,-1.22492 0,0 -3.2721,4.61701 -6.3559,4.61701 0,0 5.5936,-4.18872 5.2509,-4.86543 0,0 -5.4993,-0.42829 -8.3945,0.85659 a 16.677774,16.677774 0 0 1 8.4202,-1.71317 9.2254558,9.2254558 0 0 0 -4.4028,-2.90384 c 0,0 3.0665,-1.16496 5.7305,3.02376 0,0 4.283,0.50539 4.7884,0.99364 0,0 -2.0473,-4.50565 -4.6599,-6.46724 0,0 3.9575,0.79663 5.7649,6.85271 l 4.1544,1.64465 c 0,0 -2.3899,-6.09891 -4.5913,-8.02624 0,0 3.906,1.44764 5.6107,8.56589 l 3.8032,2.19286 c 0,0 -1.6532,-5.4222 -3.6405,-8.08619 0,0 3.3321,2.12434 4.7112,8.75433 l 2.3728,1.76457 c 0,0 -1.2849,-3.93174 -1.7132,-5.02817 -0.4283,-1.09643 -0.2141,-1.31915 -0.2141,-1.31915 a 14.056614,14.056614 0 0 1 2.9809,7.06686 c 0,0 4.5827,3.92317 4.8911,3.66619 z"
       id="path7603" />
    <path
       style="opacity:0.1;fill:#e79cc2;stroke-width:0.8565883"
       inkscape:connector-curvature="0"
       d="m 1673.5208,-124.73881 c 0,0 -14.1765,-29.41524 -32.2677,-14.92176 0,0 -3.8889,1.30201 -3.709,5.38794 0,0 1.5076,-0.77093 2.5698,2.37274 a 14.844675,14.844675 0 0 0 1.5761,3.17795 7.3495274,7.3495274 0 0 0 3.6662,2.90383 v 0 c 0,0 7.7778,6.15887 22.5882,1.96159 0,0 4.1288,0.71097 4.8141,0.20558 l -4.7284,-3.65763 c 0,0 -2.5698,3.58054 -6.1503,3.89747 0,0 6.1246,-3.63193 5.465,-4.47139 -0.137,-0.17131 -2.5697,-1.82453 -2.5697,-1.82453 0,0 -4.4543,6.19313 -10.0307,6.51864 0,0 7.8892,-3.34926 9.1055,-7.15251 l -3.8632,-2.27853 c 0,0 -4.3857,6.78418 -10.7245,7.38379 0,0 8.1205,-3.78612 9.8508,-7.82922 l -4.1031,-1.71317 c 0,0 -4.4114,6.5272 -9.6794,6.99832 0,0 8.9428,-5.31941 8.7201,-7.33239 0,0 -3.8632,-1.36198 -5.0625,-1.22492 0,0 -3.2721,4.60844 -6.3644,4.60844 0,0 5.6021,-4.18871 5.2594,-4.86542 0,0 -5.4993,-0.42829 -8.4031,0.85659 a 16.720603,16.720603 0 0 1 8.4288,-1.71318 9.1569287,9.1569287 0 0 0 -4.4028,-2.90383 c 0,0 3.0666,-1.17353 5.7305,3.02376 0,0 4.283,0.50538 4.7884,0.99364 0,0 -2.0473,-4.50566 -4.6599,-6.47581 0,0 3.9575,0.80519 5.7649,6.89554 l 4.1544,1.64465 c 0,0 -2.3899,-6.10748 -4.5913,-8.02624 0,0 3.9061,1.43907 5.6021,8.56589 l 3.8118,2.1843 c 0,0 -1.6618,-5.41364 -3.6491,-8.0862 0,0 3.3407,2.12434 4.7198,8.7629 l 2.3728,1.71318 c 0,0 -1.2849,-3.93174 -1.7132,-5.02818 -0.4283,-1.09643 -0.2141,-1.31058 -0.2141,-1.31058 a 14.005218,14.005218 0 0 1 2.9723,7.06686 c 0,0 4.6599,3.94887 4.9254,3.69189 z"
       id="path7607" />
    <ellipse
       style="opacity:0.1;fill:#e79cc2;stroke-width:0.8565883"
       cx="1151.7386"
       cy="255.75772"
       rx="19.692965"
       ry="2.2014318"
       id="ellipse7609" />
    <ellipse
       style="opacity:0.1;fill:#e79cc2;stroke-width:0.8565883"
       cx="1022.6422"
       cy="218.3419"
       rx="19.692965"
       ry="2.2014318"
       id="ellipse7611" />
    <ellipse
       style="opacity:0.1;fill:#e79cc2;stroke-width:0.8565883"
       cx="1250.1434"
       cy="280.6073"
       rx="19.692965"
       ry="2.2014318"
       id="ellipse7613" />
    <ellipse
       style="opacity:0.1;fill:#e79cc2;stroke-width:0.8565883"
       cx="1590.5431"
       cy="215.79787"
       rx="19.692965"
       ry="2.2014318"
       id="ellipse7617" />
  </g>
  <ellipse
     id="ellipse7771"
     ry="9.5100002"
     rx="62"
     cy="170.71274"
     cx="2336.9912"
     style="opacity:0.1;fill:#e79cc2;stroke-width:1" />
  <path
     style="fill:#3f3d56;stroke-width:0.27139774"
     inkscape:connector-curvature="0"
     d="m 718.9597,445.847 c -6.03975,0.38633 -12.62065,-0.0225 -19.62163,0 v -16.02895 c 6.16902,0.96036 12.74775,0.86175 19.62163,0 z"
     id="path4677" />
  <g
     id="leafsOne">
    <polygon
       transform="matrix(0.27139771,0,0,0.27139771,484.19107,254.76405)"
       id="polygon4679"
       points="825.322,673.3 827.359,553.949 829.395,553.949 831.432,673.3 "
       style="fill:#3f3d56" />
    <polygon
       transform="matrix(0.27139771,0,0,0.27139771,484.19107,254.76405)"
       id="polygon4681"
       points="852.816,674.107 854.853,554.755 856.889,554.755 858.926,674.107 "
       style="fill:#3f3d56" />
    <polygon
       transform="matrix(0.27139771,0,0,0.27139771,484.19107,254.76405)"
       id="polygon4683"
       points="800.883,674.107 802.92,554.755 804.956,554.755 806.993,674.107 "
       style="fill:#3f3d56" />
    <path
       id="path4685"
       d="m 711.22158,384.37735 2.67674,-4.13678 a 62.018113,62.018113 0 0 0 -2.74616,-6.42852 l -1.73087,1.398 1.3705,-2.11803 c -1.3061,-2.571 -2.33382,-4.19088 -2.33382,-4.19088 0,0 -5.36828,8.45955 -7.1618,17.41631 l 3.43487,5.30846 -3.80255,-3.07132 a 25.091223,25.091223 0 0 0 -0.20862,3.14632 c 0,10.60779 3.46446,19.2071 7.7381,19.2071 4.27366,0 7.73811,-8.59931 7.73811,-19.2071 0,-3.28853 -0.74399,-6.72903 -1.77026,-9.91162 z"
       inkscape:connector-curvature="0"
       style="fill:#e6e6e6;stroke-width:0.27139774" />
    <path
       id="path4687"
       d="m 718.68333,384.93007 2.67674,-4.13678 a 62.018368,62.018368 0 0 0 -2.74617,-6.42851 l -1.73086,1.39799 1.3705,-2.11803 c -1.3061,-2.57101 -2.33383,-4.19088 -2.33383,-4.19088 0,0 -5.36828,8.45955 -7.16179,17.4163 l 3.43487,5.30847 -3.80254,-3.07131 a 25.091223,25.091223 0 0 0 -0.20863,3.14631 c 0,10.60777 3.46447,19.20709 7.73812,19.20709 4.27364,0 7.73809,-8.59932 7.73809,-19.20709 0,-3.28852 -0.74395,-6.72903 -1.77022,-9.91162 z"
       inkscape:connector-curvature="0"
       style="fill:#e79cc2;stroke-width:0.27139774" />
    <path
       id="path4689"
       d="m 704.58892,384.93007 2.67675,-4.13678 a 62.018928,62.018928 0 0 0 -2.74618,-6.42851 l -1.73086,1.39799 1.3705,-2.11803 c -1.3061,-2.57101 -2.33382,-4.19088 -2.33382,-4.19088 0,0 -5.36829,8.45955 -7.16181,17.4163 l 3.43488,5.30847 -3.80255,-3.07131 a 25.091223,25.091223 0 0 0 -0.20862,3.14631 c 0,10.60777 3.46446,19.20709 7.7381,19.20709 4.27365,0 7.73812,-8.59932 7.73812,-19.20709 0,-3.28852 -0.74397,-6.72903 -1.77024,-9.91162 z"
       inkscape:connector-curvature="0"
       style="fill:#e79cc2;stroke-width:0.27139774" />
  </g>
  <defs
     id="defs170">
    <animateTransform
       type="rotate"
       fill="remove"
       restart="always"
       calcMode="linear"
       accumulate="none"
       additive="sum"
       xlink:href="#clock"
       repeatCount="indefinite"
       dur="60s"
       to="360 306 140"
       from="0 306 140"
       attributeName="transform"
       attributeType="xml" />
    <animateTransform
       type="translate"
       fill="remove"
       restart="always"
       calcMode="paced"
       accumulate="none"
       additive="sum"
       xlink:href="#hair"
       repeatCount="indefinite"
       dur="2s"
       to="-2 0"
       from="-2 -3"
       attributeName="transform"
       attributeType="xml" />
    <animateTransform
       type="translate"
       fill="freez"
       restart="always"
       calcMode="paced"
       accumulate="none"
       additive="sum"
       xlink:href="#leafOne"
       dur="6s"
       from="-400 -20"
       to="0 0"
       attributeName="transform"
       attributeType="xml" />
    <animateTransform
       type="translate"
       fill="freez"
       restart="always"
       calcMode="paced"
       accumulate="none"
       additive="sum"
       xlink:href="#leafTwo"
       dur="8s"
       from="-200 -30"
       to="0 0"
       attributeName="transform"
       attributeType="xml" />
    <animateTransform
       type="translate"
       fill="freez"
       restart="always"
       calcMode="paced"
       accumulate="none"
       additive="sum"
       xlink:href="#leafsTwo"
       dur="6s"
       from="200 -600"
       to="0 0"
       attributeName="transform"
       attributeType="xml" />
    <animateTransform
       type="translate"
       fill="freez"
       restart="always"
       calcMode="paced"
       accumulate="none"
       additive="sum"
       xlink:href="#leafsOne"
       rotate="300(deg)"
       dur="7s"
       from="200 -600"
       to="0 0"
       attributeName="transform"
       attributeType="xml" />
  </defs>
  <g
     id="g983"
     style="stroke:#565472;stroke-opacity:1">
    <path
       inkscape:connector-curvature="0"
       d="m 234.62303,286.38978 c -2.55143,2.10417 -4.53129,4.82549 -6.51203,7.44892 -3.28024,4.36017 -5.94569,9.11751 -7.9069,14.20257 -0.39767,1.68835 -1.79186,3.7413 -0.95338,5.47076 0.92099,1.27411 2.5589,1.71822 4.00484,2.13275 1.63287,0.41368 3.26866,0.50865 4.909,0.12551 0.46008,-0.24245 1.57047,-0.29462 1.86188,-0.80457 0.0906,-0.15862 -0.53673,0.39046 -0.5061,0.21035 0.0439,-0.25834 0.38227,-0.35892 0.56355,-0.54816 0.19644,-0.20507 0.37931,-0.42271 0.56896,-0.63407 1.34276,-1.34441 2.59205,-2.76574 3.45845,-4.46392 0.68701,-1.76608 1.25986,-3.58822 1.72238,-5.42815 0.36704,-1.64415 0.46378,-3.32792 0.51173,-5.00645 0.15483,-1.41129 -0.16927,-2.68006 -0.73023,-3.96038 -0.54475,-1.20317 -0.97922,-2.45474 -1.53936,-3.65079 -0.45789,-0.96879 -0.80147,-2.02186 -1.32121,-2.95957 0.4509,-0.0653 0.92279,-0.34667 1.35271,-0.19584 0.2775,0.0974 0.24468,0.53488 0.37085,0.80053 0.75167,1.58264 1.45689,3.16853 2.10009,4.79917 0.87967,2.37966 1.51183,4.8302 2.09467,7.29563 0.4515,1.89414 0.59685,3.83803 0.68631,5.77721 0.0397,0.91373 0.0462,1.82839 0.0438,2.74282 -0.002,0.44919 -0.006,0.89838 -0.007,1.34758 0.001,0.23604 -4e-4,0.47206 -4.7e-4,0.7081 0,0 -1.13487,0.57818 -1.13487,0.57818 v 0 c 1.6e-4,-0.23634 -0.001,-0.47267 0.002,-0.709 0.002,-0.44985 0.003,-0.8997 0.01,-1.34951 0.009,-0.91579 0.0105,-1.83184 -0.0213,-2.74727 -0.0784,-1.93448 -0.21785,-3.87301 -0.66215,-5.7636 -0.57766,-2.46166 -1.20116,-4.90967 -2.07448,-7.28656 -0.51057,-1.29653 -1.04513,-2.57243 -1.64813,-3.82917 -0.0955,-0.19896 -0.85333,-1.71567 -0.84898,-1.73317 0.10914,-0.43881 0.55932,-0.71066 0.83898,-1.06599 0.4923,0.95857 0.85937,1.99424 1.31305,2.97174 0.56052,1.19698 0.98901,2.45257 1.53657,3.65578 0.57143,1.29435 0.91369,2.58039 0.75519,4.00987 -0.0491,1.68776 -0.14862,3.37994 -0.50815,5.03481 -0.4625,1.84699 -1.0363,3.67576 -1.71141,5.45305 -0.84663,1.71431 -2.08992,3.14815 -3.44123,4.49184 -1.27363,1.44662 -2.74405,2.52821 -4.62949,3.01564 -1.65562,0.35189 -3.30244,0.24606 -4.94182,-0.17897 -1.48065,-0.43505 -3.13534,-0.89909 -4.07065,-2.21477 -0.21556,-0.44114 -0.36898,-0.61424 -0.34408,-1.12933 0.0743,-1.53627 0.96592,-2.99802 1.31101,-4.46155 1.98096,-5.08689 4.64356,-9.85685 7.90901,-14.23908 1.95616,-2.61458 3.91492,-5.31633 6.41358,-7.44545 0,0 1.17553,-0.46749 1.17553,-0.46749 z"
       id="path1000"
       style="opacity:1;fill:none;fill-opacity:0.60784314;stroke:#565472;stroke-width:1.7;stroke-miterlimit:4;stroke-dasharray:none;stroke-dashoffset:0;stroke-opacity:1" />
    <path
       inkscape:connector-curvature="0"
       d="m 267.02033,279.42899 c 0.28093,1.42486 0.40381,2.87073 0.48902,4.31832 0.0855,2.21829 0.0654,4.43924 0.0659,6.65877 -0.003,2.70708 -2.8e-4,5.41416 6.7e-4,8.12124 0.0382,2.09766 -0.25425,4.18291 -0.45497,6.26703 -0.1753,0.99155 -0.0274,2.03015 -0.23964,3.01145 -0.23083,0.65724 -0.38962,1.33155 -0.4968,2.01876 -0.0716,0.6018 0.0662,1.24105 -1.20266,0.76932 -8.6e-4,-3.2e-4 -10e-6,-0.85875 3.6e-4,-1.32008 -0.003,-1.78528 0.28224,-3.56043 0.64864,-5.30336 0.29702,-1.49124 1.03047,-2.75439 1.85748,-4.00196 1.05342,-1.63134 2.68208,-2.51081 4.40528,-3.31411 1.26734,-0.45993 2.55176,-0.89757 3.85062,-1.26451 0.99385,-0.30428 2.03244,-0.34921 3.06304,-0.38775 1.20541,-0.058 2.38264,-0.052 3.55203,0.26273 1.22271,0.4264 2.4531,0.90153 3.62199,1.46296 1.1224,0.59032 1.7599,1.53397 2.21747,2.67863 0.40467,1.07516 0.27715,2.1432 0.0717,3.23998 -0.26518,0.99032 -0.77014,1.88456 -1.31794,2.7431 -0.49428,0.82726 -1.18311,1.46442 -1.92499,2.06434 -1.61694,1.26964 -3.51165,1.89612 -5.46218,2.39958 -1.54727,0.33756 -3.13392,0.6296 -4.72124,0.51602 -1.51841,-0.13696 -3.01411,-0.47732 -4.46655,-0.93455 -1.34225,-0.40449 -2.66306,-0.90652 -3.94636,-1.4735 -0.84956,-0.35262 -1.75128,-0.52683 -2.62292,-0.81689 0,0 1.04169,-0.70695 1.04169,-0.70695 v 0 c 0.87355,0.28952 1.78123,0.45949 2.62693,0.82878 1.27756,0.56707 2.59528,1.06465 3.93344,1.46475 1.44943,0.44478 2.93611,0.79013 4.45058,0.90934 1.57918,0.0859 3.15426,-0.19431 4.69063,-0.54275 0.80099,-0.21167 1.60846,-0.41915 2.38068,-0.72435 0.23635,-0.0934 0.44708,-0.26758 0.69829,-0.3061 0.1421,-0.0218 -0.47129,0.32908 -0.34955,0.25262 0.19903,-0.12498 0.38779,-0.26559 0.58169,-0.39839 0.74141,-0.58908 1.43686,-1.20709 1.935,-2.02484 0.55434,-0.84296 1.05542,-1.72765 1.34075,-2.7002 0.21158,-1.07488 0.35331,-2.11801 -0.0385,-3.17697 -0.43831,-1.12291 -1.06363,-2.03419 -2.16853,-2.59787 -1.16698,-0.54926 -2.37778,-1.04493 -3.60167,-1.44799 -1.16732,-0.29274 -2.34152,-0.28117 -3.53922,-0.22681 -1.02495,0.0397 -2.05437,0.10321 -3.04103,0.40921 -1.29117,0.37666 -2.57791,0.79218 -3.83196,1.2753 -0.23673,0.11214 -0.45236,0.29019 -0.71019,0.33643 -0.16276,0.0292 0.53025,-0.39352 0.40795,-0.28223 -0.69068,0.62855 -1.50434,1.13857 -1.97983,1.98114 -0.8296,1.23582 -1.58038,2.48098 -1.88552,3.96279 -0.37116,1.73337 -0.66107,3.49893 -0.65341,5.27634 0.001,0.23726 0.001,0.47452 0.003,0.71177 0.002,0.19997 0.12405,0.4373 0.008,0.5999 -1.44094,2.01235 -1.11648,1.05989 -1.06311,0.36585 0.10878,-0.68987 0.25098,-1.37308 0.49505,-2.02979 0.26494,-0.96409 0.0591,-2.022 0.26437,-3.00392 0.21595,-2.08203 0.51118,-4.16715 0.47665,-6.26418 0.004,-2.70821 0.0113,-5.41641 0.006,-8.12462 -0.005,-2.21346 0.002,-4.42818 -0.0868,-6.64024 -0.0816,-1.44027 -0.19813,-2.88062 -0.49522,-4.29522 0,0 1.11535,-0.59632 1.11535,-0.59632 z"
       id="path1002"
       style="opacity:1;fill:none;fill-opacity:0.60784314;stroke:#565472;stroke-width:1.7;stroke-miterlimit:4;stroke-dasharray:none;stroke-dashoffset:0;stroke-opacity:1" />
    <path
       inkscape:connector-curvature="0"
       d="m 320.68211,295.09779 c -1.49648,-0.36728 -3.00654,-0.32453 -4.53012,-0.23881 -1.53687,-0.005 -2.9705,0.48712 -4.40018,0.98233 0.71606,-0.79889 -2.33419,1.33753 -1.41202,0.57954 0.19642,-0.16146 0.41955,-0.31656 0.66879,-0.36687 0.32905,-0.0664 -0.52972,0.41292 -0.78369,0.63242 -0.61513,0.47095 -0.8234,1.18116 -1.11844,1.86002 -0.27259,0.63098 -0.40858,1.28806 -0.46776,1.96854 -0.0279,0.8167 0.36452,1.64051 0.775,2.32817 0.77408,1.16201 1.79555,2.15303 2.80424,3.11341 0.87848,0.96036 1.81987,1.86544 2.90998,2.58025 0.6915,0.42039 1.48925,0.59369 2.21367,0.95157 0.6568,0.41856 1.2444,0.65146 2.00963,0.50287 0.34738,-0.30603 1.42461,-0.47454 -0.2033,0.0947 -0.11772,0.0412 0.19622,-0.1541 0.29126,-0.23484 0.2693,-0.2288 0.44015,-0.39769 0.70191,-0.64517 0.81276,-0.84796 1.39271,-1.86493 2.04094,-2.8335 0.64319,-0.98271 1.13599,-2.04473 1.59729,-3.12084 0,0 1.13495,-0.5219 1.13495,-0.5219 v 0 c -0.4569,1.08207 -0.94726,2.14843 -1.58278,3.14036 -0.65462,0.96869 -1.22667,1.99197 -2.02594,2.85676 -0.86781,0.83525 -1.81838,1.61317 -2.96884,2.0279 -0.77291,0.11284 -1.38897,-0.1688 -2.04768,-0.57178 -0.73277,-0.34631 -1.53957,-0.51988 -2.2219,-0.9667 -1.08608,-0.73112 -2.02764,-1.64091 -2.90994,-2.60594 -1.0196,-0.96715 -2.04813,-1.96594 -2.83327,-3.13605 -0.41927,-0.70644 -0.83639,-1.55708 -0.8192,-2.39346 0.0567,-0.69332 0.17741,-1.3615 0.45171,-2.00698 0.30166,-0.6838 0.48806,-1.42663 1.10064,-1.9127 1.06792,-0.94738 2.32593,-1.65292 3.68476,-2.09077 1.43199,-0.49567 2.87728,-0.94965 4.41282,-0.94831 1.53176,-0.0832 3.04343,-0.086 4.55364,0.23021 0,0 -1.02617,0.74556 -1.02617,0.74556 z"
       id="path1004"
       style="opacity:1;fill:none;fill-opacity:0.60784314;stroke:#565472;stroke-width:1.7;stroke-miterlimit:4;stroke-dasharray:none;stroke-dashoffset:0;stroke-opacity:1" />
    <path
       inkscape:connector-curvature="0"
       d="m 348.34935,301.65713 c 1.00721,0.73277 2.1507,1.23715 3.20481,1.89629 1.05168,0.75538 2.1007,1.51849 3.05437,2.39596 0.66182,0.58038 1.29785,1.16788 2.21788,1.06005 0.10992,-0.0498 0.43327,-0.21134 0.32975,-0.14936 -1.32994,0.79621 -0.58854,0.30066 -0.25794,0.0238 0.57896,-0.48477 1.11623,-1.01861 1.68695,-1.51353 1.36562,-1.2404 2.52576,-2.68087 3.7431,-4.0625 1.98602,-2.47046 4.70547,-4.11655 7.38357,-5.72851 4.64851,-2.77713 9.21015,-5.70447 14.15474,-7.9347 0,0 -0.94592,0.75056 -0.94592,0.75056 v 0 c -4.22302,1.91025 -8.14895,4.33441 -12.09636,6.75484 -2.65954,1.59672 -5.36946,3.22211 -7.34366,5.67171 -1.21348,1.38659 -2.3818,2.82046 -3.73283,4.07699 -1.23549,1.061 -2.33676,2.35916 -3.94828,2.86942 -0.93641,0.0425 -1.59625,-0.55973 -2.26658,-1.15338 -0.94985,-0.87057 -1.99153,-1.63111 -3.04106,-2.37653 -1.05525,-0.65348 -2.18771,-1.17057 -3.20838,-1.87987 0,0 1.06584,-0.70128 1.06584,-0.70128 z"
       id="path1012"
       style="opacity:1;fill:none;fill-opacity:0.60784314;stroke:#565472;stroke-width:1.20991707;stroke-miterlimit:4;stroke-dasharray:none;stroke-dashoffset:0;stroke-opacity:1" />
  </g>
</svg>
