<?xml version="1.0" encoding="UTF-8" standalone="no"?>
<svg
   xmlns:dc="http://purl.org/dc/elements/1.1/"
   xmlns:cc="http://creativecommons.org/ns#"
   xmlns:rdf="http://www.w3.org/1999/02/22-rdf-syntax-ns#"
   xmlns:svg="http://www.w3.org/2000/svg"
   xmlns="http://www.w3.org/2000/svg"
   xmlns:sodipodi="http://sodipodi.sourceforge.net/DTD/sodipodi-0.dtd"
   xmlns:inkscape="http://www.inkscape.org/namespaces/inkscape"
   id="b8e8e527-8ae9-42c1-86cd-ac5b5d82d2b9"
   data-name="Layer 1"
   width="911.60164"
   height="451.38424"
   viewBox="0 0 911.60164 451.38424"
   version="1.1"
   sodipodi:docname="1.svg"
   inkscape:version="1.0.1 (3bc2e813f5, 2020-09-07)">
  <metadata
     id="metadata57">
    <rdf:RDF>
      <cc:Work
         rdf:about="">
        <dc:format>image/svg+xml</dc:format>
        <dc:type
           rdf:resource="http://purl.org/dc/dcmitype/StillImage" />
      </cc:Work>
    </rdf:RDF>
  </metadata>
  <defs
     id="defs55" />
  <sodipodi:namedview
     pagecolor="#ffffff"
     bordercolor="#666666"
     borderopacity="1"
     objecttolerance="10"
     gridtolerance="10"
     guidetolerance="10"
     inkscape:pageopacity="0"
     inkscape:pageshadow="2"
     inkscape:window-width="1294"
     inkscape:window-height="704"
     id="namedview53"
     showgrid="false"
     inkscape:zoom="0.87065207"
     inkscape:cx="466.06085"
     inkscape:cy="197.55443"
     inkscape:window-x="72"
     inkscape:window-y="27"
     inkscape:window-maximized="1"
     inkscape:current-layer="b8e8e527-8ae9-42c1-86cd-ac5b5d82d2b9" />
  <ellipse
     style="fill:#537280;fill-opacity:0.545098;stroke-width:1.7"
     id="path909"
     cx="585.53345"
     cy="224.27286"
     rx="230.74765"
     ry="217.80722" />
  <g
     id="g907"
     transform="matrix(0.56449729,0,0,0.56449729,225.11825,123.99476)">
    <path
       d="m 666.90719,666.03923 a 21.28318,21.28318 0 0 1 0,-42.56635 H 983.042 a 18.5053,18.5053 0 0 0 -16.2373,-9.65283 H 338.41256 a 30.93217,30.93217 0 0 0 -30.89746,30.936 30.95171,30.95171 0 0 0 30.89746,30.936 h 628.39209 a 18.506,18.506 0 0 0 16.2373,-9.65289 z"
       transform="translate(-144.19918,-224.30788)"
       fill="#cccccc"
       id="path2" />
    <path
       d="M 983.46178,635.20036 H 682.89113 a 1.73741,1.73741 0 0 1 0,-3.47481 h 300.57065 a 1.73741,1.73741 0 0 1 0,3.47481 z"
       transform="translate(-144.19918,-224.30788)"
       fill="#cccccc"
       id="path4" />
    <path
       d="M 983.46178,646.49347 H 682.89113 a 1.7374,1.7374 0 0 1 0,-3.4748 h 300.57065 a 1.7374,1.7374 0 0 1 0,3.4748 z"
       transform="translate(-144.19918,-224.30788)"
       fill="#cccccc"
       id="path6" />
    <path
       d="M 983.46178,657.78659 H 682.89113 a 1.73741,1.73741 0 0 1 0,-3.47481 h 300.57065 a 1.73741,1.73741 0 0 1 0,3.47481 z"
       transform="translate(-144.19918,-224.30788)"
       fill="#cccccc"
       id="path8" />
    <path
       d="m 585.249,606.09886 a 21.28318,21.28318 0 0 1 0,-42.56635 h 316.13475 a 18.5053,18.5053 0 0 0 -16.23682,-9.65289 H 256.75484 a 30.933,30.933 0 0 0 -30.898,30.936 30.95213,30.95213 0 0 0 30.898,30.936 h 628.39209 a 18.50524,18.50524 0 0 0 16.23682,-9.65283 z"
       transform="translate(-144.19918,-224.30788)"
       fill="#e79cc2"
       id="path10" />
    <path
       d="M 901.80385,575.26 H 601.23321 a 1.73741,1.73741 0 0 1 0,-3.47481 h 300.57064 a 1.737405,1.737405 0 1 1 0,3.47481 z"
       transform="translate(-144.19918,-224.30788)"
       fill="#cccccc"
       id="path12" />
    <path
       d="M 901.80385,586.55308 H 601.23321 a 1.7374,1.7374 0 0 1 0,-3.4748 h 300.57064 a 1.7374,1.7374 0 1 1 0,3.4748 z"
       transform="translate(-144.19918,-224.30788)"
       fill="#cccccc"
       id="path14" />
    <path
       d="M 901.80385,597.8462 H 601.23321 a 1.73741,1.73741 0 0 1 0,-3.47481 h 300.57064 a 1.73741,1.73741 0 1 1 0,3.47481 z"
       transform="translate(-144.19918,-224.30788)"
       fill="#cccccc"
       id="path16" />
    <path
       d="m 503.59127,544.15849 a 21.28321,21.28321 0 0 1 0,-42.56641 H 819.726 a 18.50585,18.50585 0 0 0 -16.23681,-9.65289 H 175.09664 a 30.93217,30.93217 0 0 0 -30.89746,30.936 30.95171,30.95171 0 0 0 30.89746,30.936 h 628.39258 a 18.50516,18.50516 0 0 0 16.23681,-9.65277 z"
       transform="translate(-144.19918,-224.30788)"
       fill="#cccccc"
       id="path18" />
    <path
       d="M 820.14593,513.31958 H 519.57529 a 1.73741,1.73741 0 0 1 0,-3.47481 h 300.57064 a 1.737405,1.737405 0 1 1 0,3.47481 z"
       transform="translate(-144.19918,-224.30788)"
       fill="#cccccc"
       id="path20" />
    <path
       d="M 820.14593,524.61269 H 519.57529 a 1.7374,1.7374 0 1 1 0,-3.4748 h 300.57064 a 1.7374,1.7374 0 1 1 0,3.4748 z"
       transform="translate(-144.19918,-224.30788)"
       fill="#cccccc"
       id="path22" />
    <path
       d="M 820.14593,535.90581 H 519.57529 a 1.7374,1.7374 0 0 1 0,-3.4748 h 300.57064 a 1.7374,1.7374 0 1 1 0,3.4748 z"
       transform="translate(-144.19918,-224.30788)"
       fill="#cccccc"
       id="path24" />
    <path
       d="m 827.08687,412.02171 a 6.50022,6.50022 0 0 1 -6.47632,-6.07519 l -0.96459,-14.728 a 6.50015,6.50015 0 0 1 6.06127,-6.91113 l 115.38746,-7.55664 a 13.880006,13.880006 0 1 1 1.814,27.70068 l -115.38721,7.55615 q -0.21793,0.0139 -0.43461,0.0141 z"
       transform="translate(-144.19918,-224.30788)"
       fill="#e79cc2"
       id="path26" />
    <path
       d="m 849.83956,413.92064 a 6.5084,6.5084 0 0 1 -6.49268,-6.25782 l -0.82226,-21.998 a 6.49954,6.49954 0 0 1 6.25293,-6.7378 l 94.88623,-3.54638 a 6.50038,6.50038 0 0 1 6.73828,6.25293 l 0.82226,21.998 a 6.49952,6.49952 0 0 1 -6.25293,6.7378 l -94.88623,3.54638 c -0.082,0.003 -0.1643,0.005 -0.2456,0.005 z"
       transform="translate(-144.19918,-224.30788)"
       fill="#2f2e41"
       id="path28" />
    <path
       d="m 961.031,616.7014 h -14.7598 a 6.50737,6.50737 0 0 1 -6.5,-6.5 V 487.18724 a 6.50736,6.50736 0 0 1 6.5,-6.5 h 14.7598 a 6.50736,6.50736 0 0 1 6.5,6.5 V 610.2014 a 6.50737,6.50737 0 0 1 -6.5,6.5 z"
       transform="translate(-144.19918,-224.30788)"
       fill="#2f2e41"
       id="path30" />
    <path
       d="m 895.51835,551.67716 -12.62188,-7.65058 a 6.50737,6.50737 0 0 1 -2.18933,-8.92787 L 944.47142,429.9008 a 6.50738,6.50738 0 0 1 8.92787,-2.18933 l 12.62189,7.65059 a 6.50737,6.50737 0 0 1 2.18933,8.92787 l -63.76429,105.1979 a 6.50735,6.50735 0 0 1 -8.92787,2.18933 z"
       transform="translate(-144.19918,-224.30788)"
       fill="#2f2e41"
       id="path32" />
    <circle
       cx="794.41486"
       cy="77.000702"
       r="51"
       fill="#e79cc2"
       id="circle34" />
    <path
       d="m 911.00806,318.72176 a 12.0954,12.0954 0 0 1 -4.4169,-2.59271 8.13347,8.13347 0 0 1 -2.37749,-6.439 5.47158,5.47158 0 0 1 2.43254,-4.21108 c 1.8238,-1.1699 4.26308,-1.17336 6.74664,-0.0789 l -0.094,-19.90968 1.99986,-0.01 0.11063,23.40593 -1.541,-0.96934 c -1.78694,-1.12214 -4.33888,-1.912 -6.14208,-0.755 a 3.51372,3.51372 0 0 0 -1.52155,2.71892 6.14621,6.14621 0 0 0 1.76778,4.80094 c 2.20841,2.10955 5.43042,2.76924 9.10469,3.35878 l -0.317,1.97452 a 32.96389,32.96389 0 0 1 -5.75212,-1.29388 z"
       transform="translate(-144.19918,-224.30788)"
       fill="#2f2e41"
       id="path36" />
    <rect
       x="896.89087"
       y="280.79507"
       width="1.99975"
       height="10.77167"
       transform="rotate(-82.4768,697.85189,256.27437)"
       fill="#2f2e41"
       id="rect38" />
    <rect
       x="930.59833"
       y="285.24551"
       width="1.99975"
       height="10.77167"
       transform="rotate(-82.4768,731.55935,260.72481)"
       fill="#2f2e41"
       id="rect40" />
    <path
       d="m 981.19918,520.19212 h -86 a 8.50951,8.50951 0 0 1 -8.5,-8.5 l 18.00415,-138.06445 a 8.48983,8.48983 0 0 1 8.49585,-8.43555 h 30.52 a 46.032,46.032 0 0 1 45.98,45.98 v 100.52 a 8.50951,8.50951 0 0 1 -8.5,8.5 z"
       transform="translate(-144.19918,-224.30788)"
       fill="#2f2e41"
       id="path42" />
    <path
       d="m 1055.1898,465.78908 a 6.5104,6.5104 0 0 1 -0.9674,7.00689 l -9.6494,11.16857 a 6.49947,6.49947 0 0 1 -9.1678,0.66889 l -87.50091,-75.59708 a 13.87944,13.87944 0 1 1 18.14762,-21.00522 l 87.50119,75.59665 a 6.46389,6.46389 0 0 1 1.6367,2.1613 z"
       transform="translate(-144.19918,-224.30788)"
       fill="#e79cc2"
       id="path44" />
    <path
       d="m 1035.8773,440.84144 a 6.51006,6.51006 0 0 1 -0.9675,7.00666 l -16.4816,19.07669 a 6.50739,6.50739 0 0 1 -9.1678,0.6689 l -71.85072,-62.07617 a 6.49946,6.49946 0 0 1 -0.66922,-9.168 l 16.48116,-19.07648 a 6.49948,6.49948 0 0 1 9.16785,-0.6689 l 71.85113,62.076 a 6.47185,6.47185 0 0 1 1.6367,2.1613 z"
       transform="translate(-144.19918,-224.30788)"
       fill="#2f2e41"
       id="path46" />
    <path
       d="m 939.56779,271.06053 c -6.81763,-5.64183 -15.93126,-0.30583 -23.64118,-1.06317 -7.37624,-0.72457 -13.31317,-7.21594 -14.931,-14.20131 -1.8875,-8.1496 2.20387,-16.428 8.36691,-21.64861 6.75006,-5.71783 15.81263,-7.49465 24.449,-6.62458 9.89839,0.9972 19.01778,5.42908 27.22791,10.84328 a 121.85093,121.85093 0 0 1 21.78291,17.7586 c 5.87072,6.24127 10.88632,13.71838 12.60436,22.23434 1.56134,7.73926 0.64531,16.36569 -3.82068,23.03188 a 24.20535,24.20535 0 0 1 -9.3242,7.98384 c -3.9,2.00789 -8.07309,3.46963 -11.8455,5.72774 -5.70393,3.41429 -11.17849,10.373 -9.2366,17.46955 a 9.79275,9.79275 0 0 0 2.30515,4.147 c 1.31763,1.408 3.6093,-0.52921 2.28819,-1.9409 -2.32034,-2.47942 -2.29475,-5.84538 -1.14094,-8.88016 a 16.27227,16.27227 0 0 1 7.08105,-8.09024 c 3.94892,-2.35837 8.32982,-3.851 12.38208,-6.00784 a 27.02248,27.02248 0 0 0 9.75361,-8.40065 c 4.768,-6.89883 6.06465,-15.78389 4.7983,-23.9565 -1.37038,-8.844 -6.07919,-16.81476 -11.9184,-23.45829 -6.3547,-7.23 -14.10718,-13.305 -22.01249,-18.7446 -8.48247,-5.83678 -17.82438,-10.73014 -28.09011,-12.36914 -8.89876,-1.42076 -18.493,-0.25967 -26.15637,4.72065 -7.15325,4.6488 -12.55687,12.51455 -12.94419,21.1964 a 22.23536,22.23536 0 0 0 10.75321,19.74136 19.10112,19.10112 0 0 0 11.45819,2.42612 c 4.25565,-0.3537 8.49577,-1.73948 12.79069,-1.45871 a 8.94075,8.94075 0 0 1 5.30755,2.028 c 1.48956,1.23267 3.18992,-1.24152 1.71258,-2.46406 z"
       transform="translate(-144.19918,-224.30788)"
       fill="#2f2e41"
       id="path48" />
    <path
       d="m 879.59864,536.87587 q 0.0274,-0.16917 0.0642,-0.33783 a 6.45569,6.45569 0 0 1 2.83054,-4.09112 l 12.40306,-8.0001 a 6.50779,6.50779 0 0 1 8.98561,1.939 l 38.26114,59.31975 a 6.501,6.501 0 0 1 -1.939,8.98561 l -12.40353,8 a 6.50781,6.50781 0 0 1 -8.98562,-1.939 L 880.5539,541.43242 a 6.45336,6.45336 0 0 1 -0.95528,-4.55655 z"
       transform="translate(-144.19918,-224.30788)"
       fill="#2f2e41"
       id="path50" />
  </g>
</svg>
