<?xml version="1.0" encoding="UTF-8" standalone="no"?>
<svg
   xmlns:dc="http://purl.org/dc/elements/1.1/"
   xmlns:cc="http://creativecommons.org/ns#"
   xmlns:rdf="http://www.w3.org/1999/02/22-rdf-syntax-ns#"
   xmlns:svg="http://www.w3.org/2000/svg"
   xmlns="http://www.w3.org/2000/svg"
   xmlns:xlink="http://www.w3.org/1999/xlink"
   xmlns:sodipodi="http://sodipodi.sourceforge.net/DTD/sodipodi-0.dtd"
   xmlns:inkscape="http://www.inkscape.org/namespaces/inkscape"
   id="e532202f-8294-4472-8a94-ef01c23bf434"
   data-name="Layer 1"
   width="1111.01"
   height="589.53"
   viewBox="0 0 1111.01 589.53"
   version="1.1"
   sodipodi:docname="undraw_community_8nwl.svg"
   inkscape:version="1.0.1 (3bc2e813f5, 2020-09-07)">
  <metadata
     id="metadata95">
    <rdf:RDF>
      <cc:Work
         rdf:about="">
        <dc:format>image/svg+xml</dc:format>
        <dc:type
           rdf:resource="http://purl.org/dc/dcmitype/StillImage" />
      </cc:Work>
    </rdf:RDF>
  </metadata>
  <sodipodi:namedview
     pagecolor="#ffffff"
     bordercolor="#666666"
     borderopacity="1"
     objecttolerance="10"
     gridtolerance="10"
     guidetolerance="10"
     inkscape:pageopacity="0"
     inkscape:pageshadow="2"
     inkscape:window-width="750"
     inkscape:window-height="480"
     id="namedview93"
     showgrid="false"
     inkscape:zoom="0.26992593"
     inkscape:cx="286.84311"
     inkscape:cy="167.64616"
     inkscape:window-x="72"
     inkscape:window-y="27"
     inkscape:window-maximized="0"
     inkscape:current-layer="e532202f-8294-4472-8a94-ef01c23bf434" />
  <defs
     id="defs14">
    <linearGradient
       id="6523b961-f8f8-40f3-a3b1-09fdd7ed93df"
       x1="599.51"
       y1="684.08"
       x2="599.51"
       y2="223.08"
       gradientUnits="userSpaceOnUse">
      <stop
         offset="0"
         stop-color="gray"
         stop-opacity="0.25"
         id="stop2" />
      <stop
         offset="0.54"
         stop-color="gray"
         stop-opacity="0.12"
         id="stop4" />
      <stop
         offset="1"
         stop-color="gray"
         stop-opacity="0.1"
         id="stop6" />
    </linearGradient>
    <linearGradient
       id="e6435e64-b3d1-4733-b0cc-6790ac85fe12"
       x1="237.95"
       y1="480.71"
       x2="237.95"
       y2="480.06"
       xlink:href="#6523b961-f8f8-40f3-a3b1-09fdd7ed93df" />
    <linearGradient
       id="73d9ea98-6cb8-49b2-821a-398ea6573905"
       x1="237.91"
       y1="480.06"
       x2="237.91"
       y2="479.38"
       xlink:href="#6523b961-f8f8-40f3-a3b1-09fdd7ed93df" />
    <linearGradient
       id="f9c93000-e0c7-4e00-94fd-e2b9ec72c33f"
       x1="237.87"
       y1="479.07"
       x2="237.87"
       y2="479.03"
       xlink:href="#6523b961-f8f8-40f3-a3b1-09fdd7ed93df" />
    <linearGradient
       id="1153be5e-6776-4508-9780-444bab76be76"
       x1="237.89"
       y1="479.38"
       x2="237.89"
       y2="479.22"
       xlink:href="#6523b961-f8f8-40f3-a3b1-09fdd7ed93df" />
    <linearGradient
       id="40699d8e-29dd-40d9-a6a0-7f690174f3e3"
       x1="237.88"
       y1="479.22"
       x2="237.88"
       y2="479.07"
       xlink:href="#6523b961-f8f8-40f3-a3b1-09fdd7ed93df" />
    <linearGradient
       inkscape:collect="always"
       xlink:href="#6523b961-f8f8-40f3-a3b1-09fdd7ed93df"
       id="linearGradient959"
       gradientUnits="userSpaceOnUse"
       x1="599.51"
       y1="684.08"
       x2="599.51"
       y2="223.08" />
  </defs>
  <title
     id="title16">community</title>
  <g
     id="g957"
     transform="matrix(0.65623731,0,0,0.65623731,198.41594,101.89159)">
    <path
       d="m 91.6,235.87 c 1.8,11.42 6.4,22.45 6.44,34 0.15,37.74 -45.64,60.92 -52.65,98 -4.16,22 6.62,44.48 21.82,60.89 15.2,16.41 34.58,28.24 52.43,41.74 A 335.73,335.73 0 0 1 229.63,616 c 4.51,11.6 8.39,23.56 9.67,35.94 0.93,9 0.49,18.21 2.6,27 8.35,34.89 50.69,48.43 86.49,50.69 a 379.3,379.3 0 0 0 168.74,-28.18 c 12,-5 24.39,-10.68 37.27,-9.27 10.3,1.13 19.49,6.7 28.53,11.77 a 378.43,378.43 0 0 0 84.38,34.74 c 16.3,4.5 33.41,7.92 50.06,5 50,-8.82 76.57,-69.46 125.63,-82.72 33.94,-9.17 69.26,6.85 99.7,24.44 30.44,17.59 61.86,37.85 97,37.9 46.88,0.06 85.42,-35.42 117.22,-69.86 6.67,-7.23 13.45,-14.79 16.63,-24.1 6.45,-18.9 -4,-40.13 -19.45,-52.83 -15.45,-12.7 -34.93,-19 -53.54,-26.26 a 464.26,464.26 0 0 1 -89.77,-46.88 c -18.2,-12.2 -35.83,-26 -48.28,-44 -10.71,-15.52 -17.14,-33.51 -24.32,-50.95 -15.74,-38.19 -38,-77 -75.17,-94.92 -30.35,-14.64 -65.6,-13 -99.29,-13.39 -49.64,-0.55 -100.54,-6.52 -144.55,-29.48 -37.17,-19.39 -67.7,-50 -105.42,-68.33 -60,-29.13 -128.59,-23.42 -193.24,-22.32 -31.07,0.53 -68,3.63 -97.84,-6.55 -22.07,-7.53 -33.43,-22.92 -58.78,-16.72 -34.67,8.45 -57.84,43.92 -52.3,79.15 z"
       transform="translate(-44.49,-155.23)"
       fill="#e79cc2"
       opacity="0.1"
       id="path18" />
    <path
       d="m 1010.82,510.76 a 25,25 0 0 1 0.47,-15.86 c 3,-7.76 10.31,-13.36 12.88,-21.29 4.78,-14.73 -8.1,-28.52 -16,-41.87 a 70.32,70.32 0 0 1 -9.41,-41 c 1.23,-15.36 7.52,-30.05 8,-45.45 0.43,-14.35 -4.22,-28.31 -8.81,-41.91 -3.79,-11.24 -7.65,-22.61 -14.06,-32.59 -12.12,-18.87 -33.65,-30.73 -55.79,-32.69 -10.45,-0.93 -20.67,2.47 -30.94,1.14 -14.26,-1.84 -27.74,-5.54 -42.28,-6 -13.81,-0.41 -29.08,1.34 -38.49,11.46 -7.19,7.75 -9.49,18.94 -16.07,27.22 -9.34,11.75 -25.67,15.78 -36,26.66 a 37.77,37.77 0 0 0 -8.53,36.43 c 1.43,4.64 3.77,8.95 5.29,13.56 6.39,19.26 -2,39.86 -7.07,59.5 a 9,9 0 0 0 -0.3,5 c 0.8,2.4 3.32,3.66 5.41,5.08 6.84,4.66 10.33,13.1 11,21.35 0.67,8.25 -1.24,16.47 -3.12,24.53 -4.79,20.49 -10.78,42.44 -26.57,56.07 a 144.25,144.25 0 0 0 -10.14,-19.76 c -9.66,-15.66 -16.81,-35 -16.93,-53.51 a 0.69,0.69 0 0 1 0,-0.17 c 0,-1 0.05,-2 0.11,-3 1.25,-21.84 10.69,-42.91 10.48,-64.65 q 0,-2.64 -0.15,-5.29 C 722.57,355.11 713.63,337.9 703.38,322.32 695.73,310.69 687.11,299.46 676.07,290.99 659,278 637.31,272.36 616,269.38 c -21.31,-2.98 -40.7,-5.78 -62.18,-7.22 -23.1,-1.55 -48.52,-2.42 -66.78,11.8 -23.81,18.54 -25.13,54.35 -43.28,78.45 -10.8,14.34 -28,25.42 -33.69,41.71 a 100.71,100.71 0 0 1 -3.84,-12.25 c -0.06,-0.28 -0.12,-0.55 -0.18,-0.83 a 119.24,119.24 0 0 0 4.63,-61.23 75.35,75.35 0 0 0 0.69,-10 A 39.38,39.38 0 0 0 410.2,299 c -2.57,-9.74 -9.66,-17.53 -16.51,-24.92 a 73.12,73.12 0 0 0 -8.1,-7.85 118.72,118.72 0 0 0 -202.44,118 c -0.88,6.82 -3.52,13.45 -8.37,18.26 -2.21,2.19 -5.07,4.93 -4.59,7.73 a 3.77,3.77 0 0 0 0.32,2.35 6.58,6.58 0 0 0 2,2.19 36,36 0 0 0 24.49,7.3 102.4,102.4 0 0 0 41.24,52.94 q 0,1 -0.07,1.94 c 0,1.11 -0.09,2.21 -0.14,3.33 0,0.25 0,0.5 0,0.75 0,-0.09 0,-0.19 0,-0.29 0,-0.1 -34.82,45.39 -67,47.08 -17.18,0.9 -32.17,12.49 -43.53,25.74 -13.64,15.9 -22.06,34.18 -22.78,39.24 -1.33,9.28 -10.61,54.38 -10.61,54.38 h 267.34 c -3.16,16.24 -7.42,36.93 -7.42,36.93 h 432.79 c -1,-13.91 -2.11,-26.77 -3.14,-37.66 h 54.41 l -0.06,0.33 h 251 l 15.92,-23.89 C 1101,553.27 1059.94,515 1010.82,510.76 Z M 385.92,433 a 64.84,64.84 0 0 0 18,6.48 c 2.73,0.56 5.78,0.91 8.11,-0.62 a 9.32,9.32 0 0 0 3.27,-4.63 l 0.12,0.3 c 6.75,17 13,34.54 14.21,52.8 0.11,1.72 0.18,3.44 0.19,5.17 a 74.78,74.78 0 0 1 -6.31,30.26 583.29,583.29 0 0 1 -65.27,-40 l -1.41,-0.6 c 0,0.11 0.49,1.36 1.07,3.47 0.14,0.51 0.29,1.07 0.44,1.67 -1.43,-4.62 -2.73,-9.34 -3.87,-14.15 -0.13,-0.57 -0.26,-1.14 -0.39,-1.71 A 102.53,102.53 0 0 0 385.92,433 Z"
       transform="translate(-44.49,-155.23)"
       fill="url(#6523b961-f8f8-40f3-a3b1-09fdd7ed93df)"
       id="path20"
       style="fill:url(#linearGradient959)" />
    <path
       d="m 238,480.71 v -0.65 z"
       transform="translate(-44.49,-155.23)"
       fill="url(#e6435e64-b3d1-4733-b0cc-6790ac85fe12)"
       id="path22"
       style="fill:url(#e6435e64-b3d1-4733-b0cc-6790ac85fe12)" />
    <path
       d="m 237.93,480.06 v -0.68 z"
       transform="translate(-44.49,-155.23)"
       fill="url(#73d9ea98-6cb8-49b2-821a-398ea6573905)"
       id="path24"
       style="fill:url(#73d9ea98-6cb8-49b2-821a-398ea6573905)" />
    <path
       d="M 237.88,479.07 Z"
       transform="translate(-44.49,-155.23)"
       fill="url(#f9c93000-e0c7-4e00-94fd-e2b9ec72c33f)"
       id="path26"
       style="fill:url(#f9c93000-e0c7-4e00-94fd-e2b9ec72c33f)" />
    <path
       d="M 237.89,479.38 Z"
       transform="translate(-44.49,-155.23)"
       fill="url(#1153be5e-6776-4508-9780-444bab76be76)"
       id="path28"
       style="fill:url(#1153be5e-6776-4508-9780-444bab76be76)" />
    <path
       d="M 237.88,479.22 Z"
       transform="translate(-44.49,-155.23)"
       fill="url(#40699d8e-29dd-40d9-a6a0-7f690174f3e3)"
       id="path30"
       style="fill:url(#40699d8e-29dd-40d9-a6a0-7f690174f3e3)" />
    <path
       d="m 850.87,236.78 c -13.59,-0.41 -28.63,1.32 -37.88,11.28 -7.08,7.62 -9.34,18.64 -15.82,26.79 -9.19,11.57 -25.26,15.53 -35.44,26.24 a 37.18,37.18 0 0 0 -8.4,35.86 c 1.41,4.56 3.71,8.81 5.21,13.34 6.29,19 -1.92,39.23 -7,58.56 a 8.81,8.81 0 0 0 -0.29,4.94 c 0.78,2.36 3.27,3.6 5.32,5 6.73,4.59 10.17,12.89 10.78,21 0.61,8.11 -1.22,16.21 -3.07,24.14 -4.91,21 -11.11,43.61 -28.16,56.84 -7.2,5.65 -16.82,10.23 -18.7,19.23 -2.2,10.54 7.86,19.5 17.51,24.27 28.33,14 61.22,14.2 92.21,20.44 27.29,5.5 54.51,15.92 82.13,12.36 12.31,-1.58 24.08,-5.91 35.73,-10.2 l 72.54,-26.73 a 18.87,18.87 0 0 0 5.7,-2.87 c 4.37,-3.64 4.52,-10.56 2.14,-15.73 -2.38,-5.17 -6.7,-9.13 -10.5,-13.37 -8.28,-9.27 -14.58,-22.36 -10.06,-33.94 3,-7.64 10.15,-13.15 12.68,-21 4.7,-14.5 -8,-28.08 -15.7,-41.22 a 69.21,69.21 0 0 1 -9.26,-40.31 c 1.21,-15.12 7.4,-29.58 7.85,-44.74 0.42,-14.12 -4.15,-27.86 -8.67,-41.25 -3.73,-11.06 -7.53,-22.25 -13.84,-32.08 -11.93,-18.57 -33.12,-30.24 -54.92,-32.18 -10.29,-0.91 -20.34,2.43 -30.45,1.13 -14.05,-1.73 -27.33,-5.37 -41.64,-5.8 z"
       transform="translate(-44.49,-155.23)"
       fill="#f7d6c8"
       id="path32" />
    <path
       d="m 871.16,633.59 c 0,0 -82.24,-51.56 -50.26,-111 7.4,-13.74 10.67,-26.74 11.34,-38.61 a 83.43,83.43 0 0 0 0,-9.39 c 0,-0.15 0,-0.3 0,-0.45 q -0.16,-2.42 -0.43,-4.76 C 828,438 807.84,417.55 807.84,417.55 c 0,0 136.41,-39.81 113.57,-3.92 -10.6,16.66 -7.43,33 -0.33,49.91 0.75,1.78 1.55,3.58 2.38,5.37 8.2,17.83 19.58,36.3 22.76,56.33 6.52,41.12 -75.06,108.35 -75.06,108.35 z"
       transform="translate(-44.49,-155.23)"
       fill="#efb7b9"
       id="path34" />
    <path
       d="m 921.41,413.63 c -10.6,16.66 -7.43,33 -0.33,49.91 a 92.17,92.17 0 0 1 -89.3,5.88 C 828,438 807.84,417.55 807.84,417.55 c 0,0 136.42,-39.82 113.57,-3.92 z"
       transform="translate(-44.49,-155.23)"
       opacity="0.1"
       id="path36" />
    <circle
       cx="826.65997"
       cy="229.03"
       r="92.029999"
       fill="#efb7b9"
       id="circle38" />
    <path
       d="m 832.24,474.63 c 0,-0.15 0,-0.3 0,-0.45 l 0.11,-0.18 c -0.06,0.22 -0.1,0.43 -0.11,0.63 z"
       transform="translate(-44.49,-155.23)"
       opacity="0.1"
       id="path40" />
    <path
       d="m 871.16,633.59 c 0,0 -82.24,-51.56 -50.26,-111 7.4,-13.74 10.67,-26.74 11.34,-38.61 1.87,14.68 12,32.93 30.44,58.19 8,11 11.44,26.38 12.53,41.75 l 1.83,1.33 9,-5.44 c 1,-17 4.44,-34.18 12.58,-46.36 21.39,-32 26.47,-48 24.89,-64.58 8.2,17.83 19.58,36.3 22.76,56.33 6.47,41.16 -75.11,108.39 -75.11,108.39 z"
       transform="translate(-44.49,-155.23)"
       opacity="0.1"
       id="path42" />
    <path
       d="m 1003,509.74 c -49,-3.56 -80,-41.6 -80,-41.6 2.61,17.82 -1.63,33.77 -24.48,68 -8.09,12.14 -11.52,29.29 -12.52,46.33 l -9,5.44 -1.83,-1.33 c -1.09,-15.36 -4.52,-30.76 -12.53,-41.75 -22.84,-31.33 -33,-51.89 -30.35,-68.21 0,0 -25.13,40.79 -74.08,44.06 -48.95,3.27 -90.07,37.86 -94,101.17 l 15.66,21.54 h 154.47 l -0.06,0.33 h 247 L 1097,620.19 c -3.93,-69.12 -45,-106.89 -94,-110.45 z"
       transform="translate(-44.49,-155.23)"
       fill="#e79cc2"
       id="path44" />
    <path
       d="m 1003,509.74 c -49,-3.56 -80,-41.6 -80,-41.6 2.61,17.82 -1.63,33.77 -24.48,68 -8.09,12.14 -11.52,29.29 -12.52,46.33 l -9,5.44 -1.83,-1.33 c -1.09,-15.36 -4.52,-30.76 -12.53,-41.75 -22.84,-31.33 -33,-51.89 -30.35,-68.21 0,0 -25.13,40.79 -74.08,44.06 -48.95,3.27 -90.07,37.86 -94,101.17 l 15.66,21.54 h 154.47 l -0.06,0.33 h 247 L 1097,620.19 c -3.93,-69.12 -45,-106.89 -94,-110.45 z"
       transform="translate(-44.49,-155.23)"
       opacity="0.05"
       id="path46" />
    <path
       d="m 933.37,339.78 c -4,9.9 -11.1,18.26 -18.86,25.6 -10.72,10.15 -24.2,19.09 -38.94,18.4 a 59.73,59.73 0 0 0 16.81,-27.62 c -9.3,5.42 -16.33,14 -25.21,20.11 -8.88,6.11 -21.43,9.26 -30.11,2.88 a 90.26,90.26 0 0 0 37.67,-35.59 c -21.08,5.47 -31.9,29.21 -50.89,39.87 -8.9,5 -19.31,6.88 -29.51,6.66 -7.25,-0.15 -15.33,-1.84 -19.37,-7.86 -2.36,-3.5 -2.91,-7.9 -3,-12.13 -0.44,-19.18 7.37,-38 19.4,-52.93 12.03,-14.93 28,-26.28 45.08,-35.09 6.08,-3.14 12.42,-6 19.19,-7 8.42,-1.22 17,0.57 25.26,2.47 10.74,2.46 21.54,5.16 31.43,10 21.11,10.45 30.33,29.39 21.05,52.23 z"
       transform="translate(-44.49,-155.23)"
       opacity="0.1"
       id="path48" />
    <path
       d="m 933.37,338.47 c -4,9.9 -11.1,18.26 -18.86,25.6 -10.72,10.15 -24.2,19.09 -38.94,18.4 a 59.73,59.73 0 0 0 16.81,-27.62 c -9.3,5.42 -16.33,14 -25.21,20.11 -8.88,6.11 -21.43,9.26 -30.11,2.88 a 90.26,90.26 0 0 0 37.67,-35.59 c -21.08,5.47 -31.9,29.21 -50.89,39.87 -8.9,5 -19.31,6.88 -29.51,6.66 -7.25,-0.15 -15.33,-1.84 -19.37,-7.86 -2.36,-3.5 -2.91,-7.9 -3,-12.13 -0.44,-19.18 7.37,-38 19.4,-52.93 12.03,-14.93 28,-26.28 45.08,-35.09 6.08,-3.14 12.42,-6 19.19,-7 8.42,-1.22 17,0.57 25.26,2.47 10.74,2.46 21.54,5.16 31.43,10 21.11,10.43 30.33,29.39 21.05,52.23 z"
       transform="translate(-44.49,-155.23)"
       fill="#f7d6c8"
       id="path50" />
    <circle
       cx="254.32001"
       cy="188.31"
       r="116.83"
       fill="#c3705a"
       id="circle52" />
    <path
       d="m 403.57,568.39 c 0,0 -107,27.41 -109.65,30 -2.65,2.59 -90.07,7.18 -64.62,-46.34 9.35,-19.65 13.24,-46.34 14.42,-72.25 0.05,-1.1 0.1,-2.19 0.14,-3.28 1.61,-43.43 -4.11,-83.73 -4.11,-83.73 0,0 124,-49 114.87,25.46 -2.28,18.52 -0.39,37.13 3.75,54.63 1.38,5.84 3,11.55 4.8,17.09 14.48,44.64 40.4,78.42 40.4,78.42 z"
       transform="translate(-44.49,-155.23)"
       fill="#ecb4b6"
       id="path54" />
    <path
       d="m 358.36,472.9 a 100.54,100.54 0 0 1 -114.51,3.64 c 1.61,-43.43 -4.11,-83.73 -4.11,-83.73 0,0 124,-49 114.87,25.46 -2.27,18.53 -0.38,37.14 3.75,54.63 z"
       transform="translate(-44.49,-155.23)"
       opacity="0.1"
       id="path56" />
    <circle
       cx="253.99001"
       cy="234.97"
       r="100.51"
       fill="#ecb4b6"
       id="circle58" />
    <path
       d="m 403.57,568.39 c 0,0 -107,27.41 -109.65,30 -2.65,2.59 -90.07,7.18 -64.62,-46.34 9.35,-19.65 13.24,-46.34 14.42,-72.25 1,13.54 8.74,46.33 9.73,57.24 a 9.51,9.51 0 0 0 0.38,1.88 c 1.45,4.85 6.62,10.44 12.85,15.74 l 0.37,0.31 a 47.67,47.67 0 0 0 56.14,3.75 253.17,253.17 0 0 0 25.56,-18.42 c 11.64,-9.61 15.27,-22.56 15.72,-34 a 72.79,72.79 0 0 0 -1.3,-16.38 c 14.48,44.69 40.4,78.47 40.4,78.47 z"
       transform="translate(-44.49,-155.23)"
       opacity="0.1"
       id="path60" />
    <path
       d="M 538.68,644.11 H 102 c 0,0 9.14,-44.38 10.44,-53.52 0.71,-5 9,-23 22.43,-38.63 11.18,-13 25.93,-24.45 42.84,-25.34 31.65,-1.66 65.92,-46.34 65.92,-46.34 v 0 c 0.76,13 8.78,46.95 9.79,58.09 a 9.51,9.51 0 0 0 0.38,1.88 c 1.45,4.85 6.62,10.44 12.85,15.74 l 0.37,0.31 a 47.66,47.66 0 0 0 56.14,3.76 254.26,254.26 0 0 0 25.56,-18.42 c 11.64,-9.61 15.27,-22.56 15.72,-34 a 75.31,75.31 0 0 0 -2.73,-22.49 c -0.57,-2.08 -1,-3.3 -1.06,-3.41 l 1.39,0.59 c 0,0 59.13,43 113.3,60.58 a 64.78,64.78 0 0 1 17.76,9 76.77,76.77 0 0 1 12.06,10.83 112.26,112.26 0 0 1 18,27.69 c 12.56,26.62 15.52,53.68 15.52,53.68 z"
       transform="translate(-44.49,-155.23)"
       fill="#e79cc2"
       id="path62" />
    <path
       d="M 538.68,644.11 H 102 c 0,0 9.14,-44.38 10.44,-53.52 0.71,-5 9,-23 22.43,-38.63 11.18,-13 25.93,-24.45 42.84,-25.34 31.65,-1.66 65.92,-46.34 65.92,-46.34 v 0 c 0.76,13 8.78,46.95 9.79,58.09 a 9.51,9.51 0 0 0 0.38,1.88 c 1.45,4.85 6.62,10.44 12.85,15.74 l 0.37,0.31 a 47.66,47.66 0 0 0 56.14,3.76 254.26,254.26 0 0 0 25.56,-18.42 c 11.64,-9.61 15.27,-22.56 15.72,-34 a 75.31,75.31 0 0 0 -2.73,-22.49 c -0.57,-2.08 -1,-3.3 -1.06,-3.41 l 1.39,0.59 c 0,0 59.13,43 113.3,60.58 a 64.78,64.78 0 0 1 17.76,9 76.77,76.77 0 0 1 12.06,10.83 112.26,112.26 0 0 1 18,27.69 c 12.56,26.62 15.52,53.68 15.52,53.68 z"
       transform="translate(-44.49,-155.23)"
       opacity="0.05"
       id="path64" />
    <path
       d="m 346.8,356.45 c 2.6,10 6,21.11 14.93,26.32 A 13.11,13.11 0 0 1 365,385 c 2.2,2.39 1.53,6.12 1.2,9.36 -1.14,11.12 3.64,22.39 11.48,30.36 7.84,7.97 18.45,12.84 29.4,15.08 2.68,0.55 5.69,0.9 8,-0.61 a 9.33,9.33 0 0 0 3.28,-4.71 c 3.05,-8.11 1.76,-17.22 -0.79,-25.5 -2.55,-8.28 -6.31,-16.18 -8.24,-24.63 -4.59,-20.05 1.49,-40.77 4.23,-61.16 0.91,-6.78 1.44,-13.77 -0.31,-20.38 -2.53,-9.58 -9.51,-17.26 -16.25,-24.53 -3.63,-3.91 -7.34,-7.89 -12,-10.45 -13.74,-7.51 -31.43,-0.84 -46.1,-6.31 -5.87,-2.19 -10.86,-6.19 -16.45,-9 -11.87,-6 -25.94,-6.33 -38.95,-3.6 -13.01,2.73 -25.2,8.34 -37.27,13.9 L 237,267 c -13,6 -26.93,12.78 -33.93,25.33 -7.45,13.36 -5.38,30.46 -12.83,43.82 -2.26,4 -5.41,7.84 -6,12.44 -0.4,3.32 0.62,6.64 1.57,9.85 2.32,7.81 4.34,15.84 4.16,24 -0.18,8.16 -2.78,16.52 -8.56,22.26 -2.44,2.42 -5.7,5.52 -4.2,8.61 a 6.48,6.48 0 0 0 2,2.16 35.41,35.41 0 0 0 33.73,5 c 4.38,-1.67 8.52,-4.35 11,-8.3 a 32.49,32.49 0 0 0 3.54,-9.28 c 3.16,-11.77 6.34,-23.74 6.09,-35.93 -0.14,-7 -1.42,-14.06 -0.4,-21 1.02,-6.94 5.07,-14.09 11.82,-16 5,-1.43 10.35,0.3 15.57,0.25 7.52,-0.06 16.74,-8.4 23.71,-5.95 6,2.12 10.75,13.6 15.71,18 12.58,11.23 30.14,17.1 46.82,14.19 z"
       transform="translate(-44.49,-155.23)"
       opacity="0.1"
       id="path66" />
    <path
       d="m 346.8,355.14 c 2.6,10 6,21.11 14.93,26.32 a 13.11,13.11 0 0 1 3.23,2.18 c 2.2,2.39 1.53,6.12 1.2,9.36 -1.14,11.12 3.64,22.39 11.48,30.36 7.84,7.97 18.45,12.84 29.4,15.08 2.68,0.55 5.69,0.9 8,-0.61 a 9.33,9.33 0 0 0 3.28,-4.71 c 3.05,-8.11 1.76,-17.22 -0.79,-25.5 -2.55,-8.28 -6.31,-16.18 -8.24,-24.63 -4.59,-20.05 1.49,-40.77 4.23,-61.16 0.91,-6.78 1.44,-13.77 -0.31,-20.38 -2.53,-9.58 -9.51,-17.26 -16.25,-24.53 -3.63,-3.91 -7.34,-7.89 -12,-10.45 -13.74,-7.51 -31.43,-0.84 -46.1,-6.31 -5.87,-2.19 -10.86,-6.19 -16.45,-9 -11.87,-6 -25.94,-6.33 -38.95,-3.6 -13.01,2.73 -25.2,8.34 -37.27,13.9 l -9.11,4.2 c -13,6 -26.93,12.78 -33.93,25.33 -7.45,13.36 -5.38,30.46 -12.83,43.82 -2.26,4 -5.41,7.84 -6,12.44 -0.4,3.32 0.62,6.64 1.57,9.85 2.32,7.81 4.34,15.84 4.16,24 -0.18,8.16 -2.78,16.52 -8.56,22.26 -2.44,2.42 -5.7,5.52 -4.2,8.61 a 6.48,6.48 0 0 0 2,2.16 35.41,35.41 0 0 0 33.73,5 c 4.38,-1.67 8.52,-4.35 11,-8.3 a 32.49,32.49 0 0 0 3.54,-9.28 c 3.16,-11.77 6.34,-23.74 6.09,-35.93 -0.14,-7 -1.42,-14.06 -0.4,-21 1.02,-6.94 5.07,-14.09 11.82,-16 5,-1.43 10.35,0.3 15.57,0.25 7.52,-0.06 16.74,-8.4 23.71,-5.95 6,2.12 10.75,13.6 15.71,18 12.5,11.27 30.06,17.14 46.74,14.22 z"
       transform="translate(-44.49,-155.23)"
       fill="#c3705a"
       id="path68" />
    <rect
       x="408.03"
       y="242.60001"
       width="229.10001"
       height="196.46001"
       fill="#463a3e"
       id="rect70" />
    <rect
       x="408.03"
       y="242.60001"
       width="229.10001"
       height="196.46001"
       opacity="0.05"
       id="rect72" />
    <path
       d="m 648.77,680.45 h -196 c 2.53,-14.27 9.93,-29.91 24.35,-46.77 a 173,173 0 0 0 27.62,-44.2 q 2.79,-6.43 5,-12.89 a 188.75,188.75 0 0 0 8.79,-39.42 c 0,-0.38 0.09,-0.76 0.13,-1.14 a 215.36,215.36 0 0 0 1.22,-27.92 c 0,-0.67 0,-1.32 0,-2 a 254.42,254.42 0 0 0 -11.25,-67.42 l -0.25,-0.78 c -2.13,-6.71 -3.69,-10.48 -3.69,-10.48 0,0 3.89,-2.11 10.31,-5.22 l 0.54,-0.26 c 23.61,-11.34 79.5,-35 104.14,-18.14 l 0.4,0.27 c 8.62,6.14 13.26,17.41 11.08,36.18 0,0.07 0,0.15 0,0.22 0,0.35 -0.08,0.69 -0.11,1 a 363.24,363.24 0 0 0 -1.87,38.94 c 0,0.65 0,1.3 0,2 q 0,4.57 0.1,9.26 c 0,0.42 0,0.84 0,1.26 0.2,10.1 0.65,20.53 1.28,31.11 0.87,14.67 2.11,29.61 3.54,44.27 0.61,6.27 1.27,12.5 2,18.63 0.08,0.72 0.16,1.46 0.24,2.17 0.84,7.47 1.71,14.79 2.6,21.89 l 0.06,0.46 c 3.4,28.2 7.16,52.82 9.77,68.98 z"
       transform="translate(-44.49,-155.23)"
       fill="#c17174"
       id="path74" />
    <path
       d="m 631.08,440.3 c 0,0.07 0,0.15 0,0.22 a 359.66,359.66 0 0 0 -2,40 c 0,0.65 0,1.3 0,2 A 95.41,95.41 0 0 1 519.83,508.2 c 0,-0.67 0,-1.32 0,-2 A 253.91,253.91 0 0 0 508.33,438 c -2.13,-6.71 -3.69,-10.48 -3.69,-10.48 0,0 3.89,-2.11 10.31,-5.22 23.38,-11.3 80.43,-35.7 105.05,-18.18 8.61,6.14 13.25,17.41 11.08,36.18 z"
       transform="translate(-44.49,-155.23)"
       opacity="0.1"
       id="path76" />
    <circle
       cx="512.34998"
       cy="263.07001"
       r="95.32"
       fill="#c17174"
       id="circle78" />
    <path
       d="M 561.89,679.8 H 358.54 c 0,0 9.14,-44.38 10.44,-53.52 0.71,-5 9,-23 22.43,-38.63 a 98.66,98.66 0 0 1 60.68,-21.53 c 38.89,-0.58 50.21,12.81 53.28,22.71 a 22.17,22.17 0 0 1 0.8,10.29 l 7.36,10.66 z"
       transform="translate(-44.49,-155.23)"
       opacity="0.1"
       id="path80" />
    <path
       d="M 561.24,680.45 H 357.89 c 0,0 9.14,-44.38 10.44,-53.52 0.71,-5 9,-23 22.43,-38.63 a 98.66,98.66 0 0 1 60.68,-21.53 c 38.89,-0.58 50.21,12.81 53.28,22.71 a 22.17,22.17 0 0 1 0.8,10.29 l 7.36,10.66 z"
       transform="translate(-44.49,-155.23)"
       fill="#e79cc2"
       id="path82" />
    <path
       d="M 783.22,679.8 H 570.16 c 10.16,-21.62 36.79,-79.26 38.27,-92.59 0.57,-5.16 6.07,-10 13.35,-14.11 a 75.86,75.86 0 0 1 7.09,-3.58 l 0.44,-0.2 q 2,-0.88 4.05,-1.63 a 81.16,81.16 0 0 1 57,0.45 c 17.49,6.65 40,15.61 57.52,24 l 0.14,0.07 c 4.5,2.16 8.69,4.27 12.38,6.3 7.38,4.05 12.77,7.75 14.84,10.71 0.95,1.36 2,7.49 3.15,17 1.53,12.86 3.2,31.94 4.83,53.58 z"
       transform="translate(-44.49,-155.23)"
       opacity="0.1"
       id="path84" />
    <path
       d="M 783.87,680.45 H 570.81 c 10.16,-21.62 36.79,-79.26 38.27,-92.59 0.57,-5.16 6.07,-10 13.35,-14.11 a 75.86,75.86 0 0 1 7.09,-3.58 l 0.44,-0.2 q 2,-0.88 4.05,-1.63 a 81.16,81.16 0 0 1 57,0.45 c 17.49,6.65 40,15.61 57.52,24 l 0.14,0.07 c 4.5,2.16 8.69,4.27 12.38,6.3 7.38,4.05 12.77,7.75 14.84,10.71 0.95,1.36 2,7.49 3.15,17 1.54,12.86 3.2,31.95 4.83,53.58 z"
       transform="translate(-44.49,-155.23)"
       fill="#e79cc2"
       id="path86" />
    <path
       d="m 749.58,575.9 q 0,4.61 -0.25,9.23 -0.14,2.25 -0.34,4.5 c -0.09,1.08 -0.2,2.15 -0.31,3.22 l -0.14,1.24 c -1.63,14.54 -4.64,29 -5,43.61 0,0.69 0,1.38 0,2.07 -0.07,13.72 2.15,27.23 5.16,40.68 H 626 c -0.2,-2.49 -0.3,-5 -0.27,-7.47 0,-2.23 0.14,-4.46 0.37,-6.7 1.89,-18.41 11.3,-35.64 12.72,-53.93 l 0.06,-0.84 c 0.09,-1.37 0.14,-2.75 0.12,-4.13 0,-0.12 0,-0.24 0,-0.37 a 70.7,70.7 0 0 0 -2.77,-17.86 c -0.08,-0.29 -0.16,-0.58 -0.24,-0.87 a 179.91,179.91 0 0 0 -6,-17 l -0.44,-1.11 c -3.33,-8.32 -6.83,-16.57 -9.2,-24.84 a 66.09,66.09 0 0 1 -2.89,-19 c 0,-1.15 0.07,-2.3 0.16,-3.45 0.08,-0.94 0.19,-1.88 0.33,-2.83 a 44.33,44.33 0 0 1 0.88,-4.41 c 2,-7.88 6.27,-15.27 10.36,-22.59 v 0 c 4.55,-8.15 8.89,-16.21 9.67,-24.78 a 28.64,28.64 0 0 0 0.11,-3.26 v 0 a 28.71,28.71 0 0 0 -0.4,-4.18 c -1.05,-6.08 -4.18,-11.55 -6.75,-17.16 -0.26,-0.57 -0.52,-1.14 -0.77,-1.72 0,-0.09 -0.08,-0.18 -0.11,-0.27 -5,-11.55 -7.9,-23.87 -10.95,-36.13 -0.13,-0.53 -0.26,-1.06 -0.4,-1.58 -0.75,-3 -1.52,-6 -2.34,-9 -4.48,-16.36 -10.86,-32.89 -23,-44.7 -12.14,-11.81 -31.5,-17.79 -46.7,-10.27 -13.15,6.55 -20.27,21.21 -23.48,35.53 -3.21,14.32 -3.47,29.27 -7.64,43.35 q -0.45,1.54 -1,3.07 c -0.18,0.52 -0.36,1 -0.54,1.57 -1.79,5.1 -4,10.15 -6.38,15.17 l -0.25,0.53 c -7.6,16.17 -16.43,32.06 -16.71,48.31 v 0.21 c 0,0.44 0,0.87 0,1.31 a 41.91,41.91 0 0 0 1.74,11.4 c 2,6.66 5.62,12.47 9.84,18 q 1.25,1.63 2.56,3.23 c 4.2,5.16 8.76,10.16 12.75,15.48 l 0.13,0.17 a 63.26,63.26 0 0 1 7.63,12.73 46.47,46.47 0 0 1 0.2,35.9 67.44,67.44 0 0 1 -3.89,7.66 c -2.57,4.44 -5.4,8.76 -7.63,13.38 -0.75,1.55 -1.42,3.13 -2,4.73 -5,12.88 -6.08,27.13 -10.16,40.42 a 91.77,91.77 0 0 1 -14.53,28.29 h -130 c 1.51,-7.39 9,-44 10.18,-52.22 0.71,-5 9,-23 22.43,-38.63 -1.13,0.89 -2.22,1.79 -3.27,2.69 a 111.24,111.24 0 0 0 -21.77,25.06 c 0.29,-0.9 0.59,-1.81 0.89,-2.71 1.83,-5.46 3.81,-10.87 5.82,-16.21 5.82,-15.38 12.3,-31.07 23.9,-42.73 6.55,-6.58 14.52,-11.65 20.76,-18.52 11,-12.09 15.55,-28.84 15.42,-45.26 0,-1.7 -0.07,-3.39 -0.18,-5.08 -1.19,-18 -7.34,-35.23 -14,-52 -3.58,-9 -7.38,-18.46 -7.21,-28 a 31.21,31.21 0 0 1 0.29,-4 c 2.75,-19.77 22.75,-31.61 34.76,-47.56 17.86,-23.73 19.16,-59 42.59,-77.22 18,-14 43,-13.14 65.73,-11.62 21.14,1.42 40.22,4.17 61.2,7.11 20.98,2.94 42.27,8.46 59.1,21.39 10.87,8.34 19.35,19.39 26.88,30.84 10.08,15.34 18.89,32.28 20.1,50.59 0.09,1.31 0.14,2.61 0.14,3.9 0.21,21.4 -9.08,42.14 -10.31,63.63 -0.05,1 -0.09,2 -0.1,3 a 0.68,0.68 0 0 0 0,0.16 c -0.22,18.63 6.93,38.19 16.66,54 a 144.83,144.83 0 0 1 21.38,74.85 z"
       transform="translate(-44.49,-155.23)"
       opacity="0.1"
       id="path88" />
    <path
       d="m 749.58,575.9 c 0,2.64 -0.1,5.29 -0.25,7.92 q -0.14,2.25 -0.34,4.5 -0.2,2.25 -0.45,4.46 c -1.63,14.54 -4.64,29 -5,43.61 0,1.12 0,2.25 0,3.37 0.07,13.71 2.39,27.23 5.45,40.68 H 626.11 c -0.23,-2.49 -0.37,-5 -0.39,-7.47 a 71.52,71.52 0 0 1 0.37,-8 c 1.89,-18.41 11.3,-35.64 12.72,-53.93 0.1,-1.34 0.17,-2.68 0.18,-4 0,-0.31 0,-0.63 0,-0.94 A 71.54,71.54 0 0 0 636,587 179.91,179.91 0 0 0 630,570 c -3.46,-8.69 -7.17,-17.32 -9.65,-26 a 67.62,67.62 0 0 1 -2.89,-17.73 46.48,46.48 0 0 1 0.16,-4.76 c 0.08,-0.94 0.19,-1.88 0.33,-2.83 a 44.33,44.33 0 0 1 0.88,-4.41 c 2,-7.88 6.27,-15.27 10.36,-22.59 4.56,-8.16 8.92,-16.24 9.69,-24.82 0.06,-0.65 0.09,-1.31 0.11,-2 v 0 a 28,28 0 0 0 -0.4,-5.49 c -1.05,-6.08 -4.18,-11.55 -6.75,-17.16 -0.26,-0.57 -0.52,-1.14 -0.77,-1.72 -5.07,-11.62 -8,-24 -11.06,-36.4 -0.88,-3.54 -1.78,-7.08 -2.73,-10.59 -4.48,-16.36 -10.86,-32.89 -23,-44.7 -12.14,-11.81 -31.47,-17.67 -46.66,-10.11 -13.15,6.55 -20.27,21.21 -23.48,35.53 -3.21,14.32 -3.47,29.27 -7.64,43.35 -0.46,1.55 -1,3.1 -1.51,4.64 -1.86,5.27 -4.18,10.5 -6.62,15.7 -7.81,16.59 -16.9,32.91 -16.71,49.62 v 0.21 a 41.91,41.91 0 0 0 1.74,11.4 c 2,6.66 5.62,12.47 9.84,18 q 1.25,1.63 2.56,3.23 c 4.25,5.22 8.86,10.27 12.88,15.65 a 63.26,63.26 0 0 1 7.63,12.73 46.47,46.47 0 0 1 0.2,35.9 67.44,67.44 0 0 1 -3.89,7.66 c -2.57,4.44 -5.4,8.76 -7.63,13.38 -0.75,1.55 -1.42,3.13 -2,4.73 -5,12.88 -6.08,27.13 -10.16,40.42 A 92,92 0 0 1 487.3,680.43 H 357.89 c 0,0 9.14,-44.38 10.44,-53.52 0.65,-4.57 7.66,-20 19.16,-34.63 1,-1.34 2.14,-2.68 3.27,-4 a 112.05,112.05 0 0 0 -24.14,26.34 l -0.89,1.4 c 2.08,-6.39 4.37,-12.7 6.72,-18.92 5.82,-15.38 12.3,-31.07 23.9,-42.73 6.55,-6.58 14.52,-11.65 20.76,-18.52 10.68,-11.77 15.3,-28 15.42,-44 0,-2.14 0,-4.27 -0.18,-6.39 -1.19,-18 -7.34,-35.23 -14,-52 -3.41,-8.62 -7,-17.6 -7.21,-26.74 a 32.49,32.49 0 0 1 0.29,-5.27 C 414.19,381.79 434.19,370 446.2,354 c 17.86,-23.73 19.16,-59 42.59,-77.22 18,-14 43,-13.14 65.73,-11.62 21.14,1.42 40.22,4.17 61.2,7.11 20.98,2.94 42.3,8.45 59.11,21.34 10.87,8.39 19.35,19.39 26.88,30.85 10.08,15.34 18.89,32.28 20.1,50.59 q 0.18,2.61 0.14,5.21 c -0.17,20.93 -9.11,41.27 -10.31,62.33 -0.08,1.42 -0.12,2.83 -0.1,4.26 a 0.68,0.68 0 0 0 0,0.16 c 0.12,18.24 7.16,37.26 16.66,52.67 a 144.84,144.84 0 0 1 21.38,76.22 z"
       transform="translate(-44.49,-155.23)"
       fill="#463a3e"
       id="path90" />
  </g>
</svg>
