<?xml version="1.0" encoding="UTF-8" standalone="no"?>
<svg
   xmlns:dc="http://purl.org/dc/elements/1.1/"
   xmlns:cc="http://creativecommons.org/ns#"
   xmlns:rdf="http://www.w3.org/1999/02/22-rdf-syntax-ns#"
   xmlns:svg="http://www.w3.org/2000/svg"
   xmlns="http://www.w3.org/2000/svg"
   xmlns:sodipodi="http://sodipodi.sourceforge.net/DTD/sodipodi-0.dtd"
   xmlns:inkscape="http://www.inkscape.org/namespaces/inkscape"
   id="b589f143-9323-4ccb-a169-5e39553f7adc"
   data-name="Layer 1"
   width="893.86671"
   height="645.61588"
   viewBox="0 0 893.86671 645.61588"
   version="1.1"
   sodipodi:docname="undraw_informed_decision_p2lh.svg"
   inkscape:version="1.0.1 (3bc2e813f5, 2020-09-07)">
  <metadata
     id="metadata137">
    <rdf:RDF>
      <cc:Work
         rdf:about="">
        <dc:format>image/svg+xml</dc:format>
        <dc:type
           rdf:resource="http://purl.org/dc/dcmitype/StillImage" />
      </cc:Work>
    </rdf:RDF>
  </metadata>
  <defs
     id="defs135" />
  <sodipodi:namedview
     pagecolor="#ffffff"
     bordercolor="#666666"
     borderopacity="1"
     objecttolerance="10"
     gridtolerance="10"
     guidetolerance="10"
     inkscape:pageopacity="0"
     inkscape:pageshadow="2"
     inkscape:window-width="750"
     inkscape:window-height="480"
     id="namedview133"
     showgrid="false"
     inkscape:zoom="0.30424563"
     inkscape:cx="197.32701"
     inkscape:cy="212.61044"
     inkscape:window-x="72"
     inkscape:window-y="27"
     inkscape:window-maximized="0"
     inkscape:current-layer="b589f143-9323-4ccb-a169-5e39553f7adc" />
  <g
     id="g1027"
     transform="matrix(0.66396297,0,0,0.66396297,165.83747,103.56165)">
    <path
       d="m 710.155,772.46457 c 8.7994,-19.0061 17.59212,-38.294 21.411,-58.88715 3.81888,-20.59315 2.216,-42.94256 -8.72123,-60.80421 -10.93723,-17.86165 -32.47257,-29.97377 -53.02392,-25.93606 -16.87949,3.31631 -30.433,16.61066 -38.36911,31.8728 -7.93611,15.26214 -11.12022,32.47634 -14.2069,49.39933 -0.99741,-19.22573 -2.05375,-38.76088 -8.44037,-56.92222 -6.38662,-18.16134 -18.9625,-35.08591 -36.88552,-42.11361 -17.92302,-7.0277 -41.23853,-1.50125 -50.685,15.27337 -13.30848,23.63268 4.33809,56.78211 -10.96485,79.17495 -2.62495,-22.46189 -26.11415,-40.20841 -48.43856,-36.59621 -22.32441,3.6122 -39.01861,27.86061 -34.42617,50.00415 2.73263,13.176 11.72251,24.38309 22.47045,32.47982 10.74794,8.09673 23.24822,17.48084 35.61391,22.78792 z"
       transform="translate(-153.06664,-127.19206)"
       fill="#f2f2f2"
       id="path2" />
    <path
       d="m 439.1256,682.79534 c 17.73322,6.19837 35.62952,12.46691 51.819,22.15758 14.50966,8.68517 27.43029,20.37884 35.59045,35.35409 a 62.87057,62.87057 0 0 1 7.77662,26.1215 c 0.11782,1.918 3.11864,1.93139 3,0 -1.04914,-17.07862 -9.37222,-32.70794 -20.89747,-45.06835 -12.63618,-13.55183 -29.01094,-22.80755 -45.91719,-29.98889 -10.02408,-4.258 -20.29727,-7.87674 -30.5739,-11.46877 -1.82619,-0.63832 -2.61128,2.25886 -0.79751,2.89284 z"
       transform="translate(-153.06664,-127.19206)"
       fill="#ffffff"
       id="path4" />
    <path
       d="m 541.41225,612.05107 a 270.25482,270.25482 0 0 1 25.99431,57.706 273.52447,273.52447 0 0 1 11.98965,62.14084 270.11259,270.11259 0 0 1 0.28557,35.50479 c -0.11131,1.92873 2.88906,1.92233 3,0 a 273.6709,273.6709 0 0 0 -3.84571,-63.74681 276.93584,276.93584 0 0 0 -18.41325,-61.1452 270.01059,270.01059 0 0 0 -16.42016,-31.97377 1.50112,1.50112 0 0 0 -2.59041,1.51416 z"
       transform="translate(-153.06664,-127.19206)"
       fill="#ffffff"
       id="path6" />
    <path
       d="m 688.24374,629.2835 a 437.36812,437.36812 0 0 0 -32.26212,108.52723 q -2.53,15.76657 -3.91657,31.68787 c -0.16772,1.923 2.83326,1.91173 3,0 a 435.79571,435.79571 0 0 1 24.00908,-109.36938 q 5.34134,-14.87545 11.76,-29.33156 c 0.77666,-1.749 -1.80757,-3.27706 -2.59041,-1.51416 z"
       transform="translate(-153.06664,-127.19206)"
       fill="#ffffff"
       id="path8" />
    <path
       d="M 259.1357,770.22063 A 141.78086,141.78086 0 0 1 153.08292,630.82672 c 0.12189,-7.912 0.95378,-15.99006 4.27976,-23.1701 3.32598,-7.18004 9.50394,-13.39014 17.23186,-15.09142 8.43389,-1.85671 17.33349,1.93874 23.61873,7.861 6.28524,5.92226 10.40636,13.736 14.198,21.495 22.83782,46.734 40.18948,96.87978 46.6859,148.48823 z"
       transform="translate(-153.06664,-127.19206)"
       fill="#f2f2f2"
       id="path10" />
    <path
       d="m 170.76834,594.12445 16.00606,36.36706 16.006,36.36707 c 5.06915,11.51753 10.12863,23.04011 15.36814,34.48151 5.1935,11.34092 10.56495,22.6034 16.29525,33.684 5.72218,11.06486 11.80377,21.94913 18.40506,32.51522 q 1.23309,1.9737 2.49042,3.93207 c 0.58008,0.90424 2.03014,0.0655 1.44594,-0.84519 -6.72792,-10.48764 -12.92723,-21.30541 -18.7416,-32.32388 -5.82065,-11.03036 -11.2609,-22.25747 -16.5002,-33.57426 -5.26729,-11.37724 -10.332,-22.84667 -15.38325,-34.321 q -7.97541,-18.11688 -15.948,-36.235 l -16.00606,-36.36706 -1.99186,-4.52568 c -0.43316,-0.98418 -1.87645,-0.13294 -1.446,0.84519 z"
       transform="translate(-153.06664,-127.19206)"
       fill="#ffffff"
       id="path12" />
    <path
       d="m 252.45875,770.47342 a 82.96675,82.96675 0 0 1 -92.692,-43.74067 c -2.07267,-4.1407 -3.82153,-8.55925 -4.03308,-13.1849 -0.21155,-4.62565 1.31945,-9.51764 4.87237,-12.48717 3.87749,-3.2408 9.52264,-3.67283 14.38463,-2.29485 4.86199,1.37798 9.111,4.32216 13.17418,7.32688 24.47345,18.09816 47.01961,39.44869 64.3248,64.48913 z"
       transform="translate(-153.06664,-127.19206)"
       fill="#f2f2f2"
       id="path14" />
    <path
       d="m 159.04053,702.90315 18.12782,14.56013 18.12782,14.56012 c 5.74112,4.61123 11.47858,9.22769 17.2876,13.7534 5.758,4.486 11.58721,8.88316 17.55363,13.089 5.95795,4.19991 12.05376,8.209 18.33348,11.91267 q 1.173,0.69182 2.3545,1.36914 c 0.54528,0.31286 1.07169,-0.51408 0.52254,-0.82916 -6.32429,-3.62871 -12.46326,-7.57154 -18.45656,-11.72248 -5.99977,-4.15542 -11.85515,-8.51568 -17.63042,-12.97675 -5.80612,-4.4849 -11.53195,-9.07234 -17.25211,-13.666 q -9.03159,-7.2529 -18.062,-14.50723 l -18.12783,-14.56007 -2.25591,-1.81193 c -0.49058,-0.394 -1.01011,0.43755 -0.52254,0.82916 z"
       transform="translate(-153.06664,-127.19206)"
       fill="#ffffff"
       id="path16" />
    <path
       d="M 1024.0326,772.80794 H 196.73857 a 1.19069,1.19069 0 1 1 0,-2.38137 h 827.29403 a 1.190685,1.190685 0 1 1 0,2.38137 z"
       transform="translate(-153.06664,-127.19206)"
       fill="#3f3d56"
       id="path18" />
    <path
       d="M 1002.2998,653.51542 H 946.29 a 2.501,2.501 0 0 1 -2.5,2.5 h -54.98 a 12.85953,12.85953 0 0 0 -2.10986,2 12.41026,12.41026 0 0 0 -2.9004,8 v 2 a 12.50461,12.50461 0 0 0 12.5,12.5 h 105.99996 a 12.51087,12.51087 0 0 0 12.5,-12.5 v -2 a 12.51734,12.51734 0 0 0 -12.4999,-12.5 z"
       transform="translate(-153.06664,-127.19206)"
       fill="#3f3d56"
       id="path20" />
    <rect
       x="790.22839"
       y="552.82678"
       width="13"
       height="92"
       fill="#3f3d56"
       id="rect22" />
    <path
       d="m 993.295,771.56214 c 0,1.40463 -19.69947,0.54331 -44,0.54331 -24.30053,0 -44,0.86132 -44,-0.54331 0,-1.40463 19.69948,-12.54331 44,-12.54331 24.30052,0 44,11.13868 44,12.54331 z"
       transform="translate(-153.06664,-127.19206)"
       fill="#3f3d56"
       id="path24" />
    <path
       d="m 999.8501,656.39542 -2.18018,-13.63995 a 6.57445,6.57445 0 0 0 -7.52,-5.45 l -22.48974,3.59 -38.52,6.15 -12.53028,2 H 943.79 a 2.501,2.501 0 0 1 2.5,2.5 v 1.97 a 2.501,2.501 0 0 1 -2.5,2.5 h -69.16988 a 6.33168,6.33168 0 0 0 -2.43018,2 6.48657,6.48657 0 0 0 -1.23974,4.96 l 0.61962,3.88 0.75,4.71 0.81006,5.06 a 6.56087,6.56087 0 0 0 7.5,5.44 l 17.87012,-2.85 51.54,-8.23 44.35986,-7.08 a 6.58713,6.58713 0 0 0 5.45024,-7.51005 z"
       transform="translate(-153.06664,-127.19206)"
       fill="#e79cc2"
       id="path26" />
    <path
       d="m 897.12988,658.01542 a 6.35633,6.35633 0 0 0 -2.52978,-2 H 875.48 a 6.32109,6.32109 0 0 0 -2.54,2 6.4652,6.4652 0 0 0 -1.37012,3.99 v 76.21 a 6.55961,6.55961 0 0 0 6.5503,6.55 h 13.83002 a 6.5595,6.5595 0 0 0 6.5498,-6.55 v -76.21 a 6.48364,6.48364 0 0 0 -1.37012,-3.99 z"
       transform="translate(-153.06664,-127.19206)"
       fill="#e79cc2"
       id="path28" />
    <path
       d="m 938.75,528.21543 -0.12988,-0.17 -8.58008,-10.57 a 6.31523,6.31523 0 0 0 -1.62988,-1.43 4.81323,4.81323 0 0 0 -1.06006,-0.54 6.3,6.3 0 0 0 -1.71,-0.42 6.64752,6.64752 0 0 0 -1.18018,-0.02 0.03158,0.03158 0 0 0 -0.02,0.01 6.48523,6.48523 0 0 0 -3.62012,1.44 l -17.60986,14.28 -22.62988,18.36 -33.77,27.4 -2.46,2 h 42.73 l 2.46972,-2 8.17041,-6.63 0.57959,-0.46 39.46,-32.01 0.0303,-0.02 a 6.45665,6.45665 0 0 0 1.87012,-2.45 6.59908,6.59908 0 0 0 0.52,-1.97 6.501,6.501 0 0 0 -1.43017,-4.8 z"
       transform="translate(-153.06664,-127.19206)"
       fill="#e79cc2"
       id="path30" />
    <path
       d="m 938.62012,528.04545 a 16.30318,16.30318 0 0 0 -3.56006,-7.3 16.11787,16.11787 0 0 0 -6.6499,-4.7 c -0.40039,-0.15 -0.79,-0.29 -1.19,-0.4 a 17.14849,17.14849 0 0 0 -2.76025,-0.57995 0.03158,0.03158 0 0 0 -0.02,0.01 16.3141,16.3141 0 0 0 -11.7998,3.26 l -30.46,23.28 a 6.46158,6.46158 0 0 0 -2.14991,4.57 6.63325,6.63325 0 0 0 0.54981,2.97 c 0.1001,0.21 0.21,0.42 0.33008,0.62 a 5.75583,5.75583 0 0 0 0.83984,1.12 l 4.87988,5.48 11.3501,12.73 0.31982,0.36 0.73047,0.83 a 6.54939,6.54939 0 0 0 9.26953,0.41 l 26.27,-28.22 a 16.21369,16.21369 0 0 0 3.18995,-5.03 16.466,16.466 0 0 0 0.86044,-9.41005 z"
       transform="translate(-153.06664,-127.19206)"
       fill="#2f2e41"
       id="path32" />
    <circle
       cx="797.16693"
       cy="314.52054"
       r="50.122059"
       fill="#e79cc2"
       id="circle34" />
    <path
       d="m 969.03027,649.49546 -1.37011,-8.6 -0.81006,-5.05 a 6.56327,6.56327 0 0 0 -7.51026,-5.44 l -36.42968,5.81 -9.87989,1.58 -2,0.32 v 10.93 H 943.79 a 2.501,2.501 0 0 1 2.5,2.5 v 1.97 a 2.501,2.501 0 0 1 -2.5,2.5 H 840.12012 c 0,0.02 0.01,0.04 0.01,0.06 l 0.62012,3.88 1.56006,9.76 a 6.56058,6.56058 0 0 0 7.5,5.44 l 17.87012,-2.85 3.88964,-0.62 0.75,-0.12 26.18018,-4.18 17.81006,-2.85 28.25976,-4.51 0.42041,-0.07 18.58985,-2.96 a 6.56824,6.56824 0 0 0 5.45019,-7.5 z"
       transform="translate(-153.06664,-127.19206)"
       fill="#e79cc2"
       id="path36" />
    <path
       d="m 1018.4502,612.71543 c 0,40.86 -4.1504,65.3 -68.1504,58.3 -0.0898,-0.01 -0.16992,-0.02 -0.25976,-0.03 a 190.03023,190.03023 0 0 1 -33.73,-6.45 100.17352,100.17352 0 0 1 -16.64014,-6.52 c -1.25976,-0.64 -2.46972,-1.31 -3.66015,-2 H 943.79 a 2.501,2.501 0 0 0 2.5,-2.5 v -1.97 a 2.501,2.501 0 0 0 -2.5,-2.5 h -32.75973 v -63.16 a 7.34062,7.34062 0 0 0 -7.33007,-7.33 h -26.6504 c 0.23047,-0.66 0.46,-1.33 0.71,-2 a 163.82906,163.82906 0 0 1 8.87011,-20.18 153.93262,153.93262 0 0 1 16.58008,-25.58 106.5314,106.5314 0 0 1 14.83984,-15.19 c 10.03028,-8.28 20.9502,-13.4 32.03028,-13.4 40.85983,-10e-6 68.37009,69.65002 68.37009,110.51 z"
       transform="translate(-153.06664,-127.19206)"
       fill="#2f2e41"
       id="path38" />
    <path
       d="m 951.28664,460.2895 0.0521,-1.873 c -3.48453,-0.0969 -6.55659,-0.31553 -8.865,-2.002 a 5.75773,5.75773 0 0 1 -2.2302,-4.24088 3.2913,3.2913 0 0 1 1.07966,-2.71081 c 1.53237,-1.29412 3.99807,-0.87524 5.79521,-0.0512 l 1.54975,0.71062 -2.97192,-21.71843 -1.85567,0.25426 2.52789,18.47443 a 6.61182,6.61182 0 0 0 -6.25433,0.89994 5.1237,5.1237 0 0 0 -1.74227,4.20705 7.61644,7.61644 0 0 0 2.99707,5.68774 c 2.96604,2.16749 6.82047,2.27541 9.91768,2.36229 z"
       transform="translate(-153.06664,-127.19206)"
       fill="#2f2e41"
       id="path40" />
    <rect
       x="771.50891"
       y="303.05911"
       width="10.08777"
       height="1.87305"
       fill="#2f2e41"
       id="rect42" />
    <rect
       x="803.35077"
       y="303.05911"
       width="10.08777"
       height="1.87305"
       fill="#2f2e41"
       id="rect44" />
    <path
       d="m 990.23519,427.94119 c -3.89814,-5.86788 -10.75722,-8.35524 -17.521,-8.96031 -7.61315,-0.68107 -14.96945,0.787 -22.40249,2.21331 -8.18044,1.56974 -16.83815,3.03841 -25.08093,1.05378 a 24.725,24.725 0 0 1 -16.80712,-13.5776 31.62746,31.62746 0 0 1 -1.84144,-21.08877 c 1.93156,-7.47935 6.726,-14.06049 12.53819,-19.0312 11.86273,-10.14531 27.916,-14.70479 43.35645,-14.27531 a 73.301,73.301 0 0 1 42.49445,14.9418 69.01935,69.01935 0 0 1 24.4854,38.371 71.952,71.952 0 0 1 -3.4842,45.25668 c -3.3789,7.83812 -8.2655,14.90444 -12.0363,22.54518 -3.5108,7.11405 -6.2146,15.38523 -4.0301,23.32022 1.9168,6.96281 7.5444,13.14865 14.6094,15.039 a 15.34168,15.34168 0 0 0 17.0603,-6.96473 c 3.5318,-5.569 3.6163,-12.86329 -1.6865,-17.35977 a 13.01622,13.01622 0 0 0 -18.7773,1.87369 13.3982,13.3982 0 0 0 -2.68,9.82336 c 0.2612,1.76869 -2.4456,2.532 -2.7092,0.74689 a 15.84886,15.84886 0 0 1 29.5503,-10.23364 c 3.1978,6.01244 1.4724,13.2644 -2.587,18.40376 a 17.93772,17.93772 0 0 1 -18.289,6.5766 c -7.3891,-1.7065 -13.4337,-7.57932 -16.2764,-14.48054 -3.1647,-7.68307 -1.7147,-16.25681 1.3704,-23.71223 3.3349,-8.05909 8.2871,-15.28693 12.2035,-23.05312 a 65.656,65.656 0 0 0 6.6621,-22.43247 70.98031,70.98031 0 0 0 -10.1233,-44.96015 65.9702,65.9702 0 0 0 -36.33571,-27.6153 68.94394,68.94394 0 0 0 -45.62064,1.20628 c -14.27615,5.625 -28.06144,17.88347 -27.89591,34.3474 0.0707,7.03282 2.68145,14.205 8.06841,18.89582 6.43783,5.60593 15.40168,6.08516 23.4945,5.21026 8.14416,-0.88045 16.05286,-3.25891 24.23218,-3.86564 7.11426,-0.52774 14.78947,0.0209 21.14164,3.55546 a 21.13822,21.13822 0 0 1 7.34327,6.8122 c 1.00334,1.51033 -1.429,2.91884 -2.426,1.418 z"
       transform="translate(-153.06664,-127.19206)"
       fill="#2f2e41"
       id="path46" />
    <path
       d="m 980.03027,542.54545 -3.97021,-2.76 -7.39014,-5.13 a 6.56354,6.56354 0 0 0 -9.12012,1.65 l -24.08984,34.67 -22.42969,32.28 -2,2.88 v 42.91 H 911.21 a 6.53113,6.53113 0 0 0 4.08984,-2 5.83071,5.83071 0 0 0 0.63038,-0.77 l 6.98,-10.06 17.25,-24.83 17.87988,-25.72 1.70019,-2.45 21.91993,-31.55 a 5.68185,5.68185 0 0 0 0.33007,-0.52 5.26886,5.26886 0 0 0 0.26954,-0.53 6.54993,6.54993 0 0 0 -2.22956,-8.07 z"
       transform="translate(-153.06664,-127.19206)"
       fill="#e79cc2"
       id="path48" />
    <path
       d="m 980.1001,528.82542 a 16.0877,16.0877 0 0 0 -2.22022,-1.22 16.35888,16.35888 0 0 0 -19.98,5.16 l -22.75976,30.86 a 6.52485,6.52485 0 0 0 2.17968,9.04 l 20.72022,13 0.25976,0.16 1.04,0.65 a 6.57314,6.57314 0 0 0 9.01026,-2.2 l 16.06982,-31.9 0.27,-0.53 0.0103,-0.01 0.98974,-1.99 a 16.36293,16.36293 0 0 0 -5.58976,-21.02 z"
       transform="translate(-153.06664,-127.19206)"
       fill="#2f2e41"
       id="path50" />
    <path
       d="m 840.75,656.01542 v 75.29 a 6.5595,6.5595 0 0 0 6.5498,6.55 h 13.83008 a 6.55962,6.55962 0 0 0 6.5503,-6.55 v -75.29 z"
       transform="translate(-153.06664,-127.19206)"
       fill="#e79cc2"
       id="path52" />
    <path
       d="m 943.79,647.04545 h -30.75973 v -61.16 a 9.34031,9.34031 0 0 0 -9.33007,-9.33 H 789.62988 a 9.34208,9.34208 0 0 0 -9.33984,9.33 v 62.8 a 9.34207,9.34207 0 0 0 9.33984,9.33 H 943.79 c 0.16016,0 0.31006,-0.01 0.46,-0.02 0.14014,-0.01 0.28027,-0.04 0.41992,-0.06 a 4.5161,4.5161 0 0 0 3.62012,-4.42 v -1.97 a 4.50022,4.50022 0 0 0 -4.50004,-4.5 z m 0,8.97 H 789.62988 a 7.34268,7.34268 0 0 1 -7.33984,-7.33 v -62.8 a 7.34269,7.34269 0 0 1 7.33984,-7.33 H 903.7002 a 7.34062,7.34062 0 0 1 7.33007,7.33 v 63.16 H 943.79 a 2.501,2.501 0 0 1 2.5,2.5 v 1.97 a 2.501,2.501 0 0 1 -2.5,2.49997 z"
       transform="translate(-153.06664,-127.19206)"
       fill="#3f3d56"
       id="path54" />
    <circle
       cx="693.59454"
       cy="490.09439"
       r="7.6901398"
       fill="#e79cc2"
       id="circle56" />
    <circle
       cx="121.99614"
       cy="307.82101"
       r="53.519161"
       fill="#e79cc2"
       id="circle58" />
    <path
       d="m 264.62988,636.34544 h -14.75976 a 6.50619,6.50619 0 0 0 -6.5,6.5 v 123.01 a 6.50616,6.50616 0 0 0 6.5,6.5 h 14.75976 a 6.50616,6.50616 0 0 0 6.5,-6.5 v -123.01 a 6.50619,6.50619 0 0 0 -6.5,-6.5 z"
       transform="translate(-153.06664,-127.19206)"
       fill="#2f2e41"
       id="path60" />
    <path
       d="m 295.81982,636.34544 h -14.75976 a 6.50619,6.50619 0 0 0 -6.5,6.5 v 123.01 a 6.50616,6.50616 0 0 0 6.5,6.5 h 14.75976 a 6.49958,6.49958 0 0 0 6.5,-6.5 v -123.01 a 6.49961,6.49961 0 0 0 -6.5,-6.5 z"
       transform="translate(-153.06664,-127.19206)"
       fill="#2f2e41"
       id="path62" />
    <path
       d="m 306.50977,516.59544 a 40.533,40.533 0 0 0 -72.58985,24.77 v 108.94 a 5.36,5.36 0 0 0 0.0801,0.99 6.99638,6.99638 0 0 0 6.91992,6.01 h 67.07031 a 7.01439,7.01439 0 0 0 7,-7 v -108.94 a 40.25085,40.25085 0 0 0 -8.48046,-24.77 z"
       transform="translate(-153.06664,-127.19206)"
       fill="#2f2e41"
       id="path64" />
    <path
       d="m 320.25837,458.67138 -0.0557,-2 c 3.7207,-0.10351 7.001,-0.33691 9.46582,-2.13769 a 6.148,6.148 0 0 0 2.38135,-4.52832 3.51437,3.51437 0 0 0 -1.15283,-2.89453 c -1.63623,-1.38184 -4.269,-0.93457 -6.188,-0.0547 l -1.65479,0.75879 3.17334,-23.19043 1.98145,0.27148 -2.69922,19.72656 c 2.60742,-0.7666 5.02344,-0.43652 6.67822,0.96094 a 5.471,5.471 0 0 1 1.86035,4.49219 8.13263,8.13263 0 0 1 -3.20019,6.07324 c -3.16698,2.31445 -7.28271,2.42969 -10.58983,2.52246 z"
       transform="translate(-153.06664,-127.19206)"
       fill="#2f2e41"
       id="path66" />
    <rect
       x="150.94173"
       y="299.40509"
       width="10.77148"
       height="2"
       fill="#2f2e41"
       id="rect68" />
    <path
       d="m 259.37012,518.13547 a 6.45061,6.45061 0 0 0 -4.52,-2.09 l -11.62989,-0.48 -3.11035,-0.13 a 6.51048,6.51048 0 0 0 -6.77,6.22 l -1.83984,44.32 -3.25,78.59 a 6.51093,6.51093 0 0 0 5.75,6.73 c 0.16016,0.02 0.31006,0.03 0.47021,0.04 l 8.89991,0.37 5.85009,0.24 a 6.46947,6.46947 0 0 0 1.39991,-0.09 6.535,6.535 0 0 0 3.27,-1.62 6.4498,6.4498 0 0 0 2.08984,-4.52 l 0.39014,-9.37 2.87011,-69.31 1.83985,-44.23 a 6.49814,6.49814 0 0 0 -1.70998,-4.67 z"
       transform="translate(-153.06664,-127.19206)"
       fill="#e79cc2"
       id="path70" />
    <path
       d="m 250.8501,508.43546 a 18.08859,18.08859 0 0 0 -3.78028,-0.39 18.52234,18.52234 0 0 0 -18.5,18.5 v 34 a 6.52768,6.52768 0 0 0 2.93018,5.43 6.40645,6.40645 0 0 0 2.41992,0.96 6.22942,6.22942 0 0 0 1.1499,0.11 h 24 a 0.91982,0.91982 0 0 0 0.17041,-0.01 6.49573,6.49573 0 0 0 6.32959,-6.49 v -34 a 18.52921,18.52921 0 0 0 -14.71972,-18.11 z"
       transform="translate(-153.06664,-127.19206)"
       fill="#2f2e41"
       id="path72" />
    <path
       d="m 379.03027,605.26542 a 7.48409,7.48409 0 0 1 -3.70019,-8.91 l 5.68994,-18.11 -1.66016,-1.38 -43.66992,-36.13 -29.18017,-24.14 -3.54981,-2.94 a 6.49943,6.49943 0 0 0 -9.1499,0.86 l -9.41016,11.38 a 6.48817,6.48817 0 0 0 0.85987,9.15 l 29.73046,24.6 3.37989,2.79 61.66992,51.02 a 6.49314,6.49314 0 0 0 8.1499,0.12 5.88986,5.88986 0 0 0 0.87988,-0.85 1.37983,1.37983 0 0 0 0.12012,-0.13 l 1.18994,-1.44 z"
       transform="translate(-153.06664,-127.19206)"
       fill="#e79cc2"
       id="path74" />
    <path
       d="m 333.58984,533.79545 -26.30957,-21.53 a 18.500883,18.500883 0 0 0 -23.44043,28.63 l 26.31006,21.53 a 6.49642,6.49642 0 0 0 8.22022,0.01 5.38689,5.38689 0 0 0 0.92968,-0.92 L 334.5,542.94547 a 6.42731,6.42731 0 0 0 1.18994,-2.21 6.53485,6.53485 0 0 0 -2.1001,-6.94002 z"
       transform="translate(-153.06664,-127.19206)"
       fill="#2f2e41"
       id="path76" />
    <path
       d="m 261.64522,444.07453 c -2.78683,-4.65586 -4.96791,-9.7857 -3.93266,-15.30212 0.92444,-4.9259 4.46936,-8.76216 9.56674,-9.26567 3.06966,-0.30321 6.12471,0.51626 9.12293,1.05 a 34.24574,34.24574 0 0 0 7.44791,0.48247 36.99426,36.99426 0 0 0 14.45114,-3.66415 35.46926,35.46926 0 0 0 19.05641,-22.33138 c 3.04174,-11.0738 0.78337,-23.64867 -6.44032,-32.66261 l 2.50708,-0.6619 -3.26431,10.72431 a 1.51517,1.51517 0 0 1 -2.2035,0.89645 51.66415,51.66415 0 0 0 -40.20064,-6.42726 48.94693,48.94693 0 0 0 -11.031,4.24282 c -1.70393,0.9059 -3.22136,-1.68277 -1.51416,-2.59041 a 54.69729,54.69729 0 0 1 42.91465,-3.28751 52.21372,52.21372 0 0 1 11.34528,5.47195 l -2.2035,0.89644 3.26432,-10.72431 a 1.512,1.512 0 0 1 2.50707,-0.6619 40.20712,40.20712 0 0 1 8.24122,30.48283 37.9402,37.9402 0 0 1 -16.42866,26.31876 40.45782,40.45782 0 0 1 -30.55368,6.14207 c -2.9359,-0.56438 -6.26537,-1.3723 -9.14605,-0.14293 a 7.90015,7.90015 0 0 0 -4.234,5.2076 c -1.63237,5.53133 1.14517,10.78409 3.98245,15.38331 z"
       transform="translate(-153.06664,-127.19206)"
       fill="#2f2e41"
       id="path78" />
    <path
       d="m 456.89014,554.87546 -49.47022,-28.63 a 9.50343,9.50343 0 0 0 -13.81982,5.37 l -14.24024,45.25 -5.93994,18.89 a 9.4829,9.4829 0 0 0 4.68994,11.28 l 10.96,5.69 35.76026,18.55 a 9.4782,9.4782 0 0 0 4.37988,1.07 9.65469,9.65469 0 0 0 3.29981,-0.59 l 0.0703,-0.03 a 9.55011,9.55011 0 0 0 5.5,-5.48 L 461,566.49546 a 9.45851,9.45851 0 0 0 -4.10986,-11.62 z m 2.23974,10.91 -22.91992,59.75 a 7.5288,7.5288 0 0 1 -4.3501,4.32 l -0.0498,0.02 a 7.53226,7.53226 0 0 1 -6.06006,-0.37 l -35.37012,-18.35 -11.34961,-5.89 a 7.48409,7.48409 0 0 1 -3.70019,-8.91 l 5.68994,-18.11 14.48,-46.03 a 7.51712,7.51712 0 0 1 10.91016,-4.24 l 49.46972,28.63 a 7.46953,7.46953 0 0 1 3.24998,9.17998 z"
       transform="translate(-153.06664,-127.19206)"
       fill="#3f3d56"
       id="path80" />
    <path
       d="m 440.29233,574.01932 a 2.98986,2.98986 0 0 1 -1.43384,-0.3667 l -33,-18 a 3.00008,3.00008 0 0 1 2.873,-5.26758 l 33,18 a 3.00037,3.00037 0 0 1 -1.43921,5.63428 z"
       transform="translate(-153.06664,-127.19206)"
       fill="#e79cc2"
       id="path82" />
    <path
       d="m 434.29233,587.01932 a 2.98986,2.98986 0 0 1 -1.43384,-0.3667 l -33,-18 a 3.00008,3.00008 0 0 1 2.873,-5.26758 l 33,18 a 3.00037,3.00037 0 0 1 -1.43921,5.63428 z"
       transform="translate(-153.06664,-127.19206)"
       fill="#e79cc2"
       id="path84" />
    <path
       d="m 429.29233,601.01932 a 2.98986,2.98986 0 0 1 -1.43384,-0.3667 l -33,-18 a 3.00008,3.00008 0 0 1 2.873,-5.26758 l 33,18 a 3.00037,3.00037 0 0 1 -1.43921,5.63428 z"
       transform="translate(-153.06664,-127.19206)"
       fill="#e79cc2"
       id="path86" />
    <path
       d="M 778.2656,317.73492 H 639.537 a 7.53,7.53 0 0 1 -7.52143,-7.52143 v -175.5 a 7.53,7.53 0 0 1 7.52143,-7.52143 h 138.7286 a 7.53005,7.53005 0 0 1 7.52143,7.52143 v 175.5 a 7.53005,7.53005 0 0 1 -7.52143,7.52143 z M 639.537,128.86349 a 5.85657,5.85657 0 0 0 -5.85,5.85 v 175.5 a 5.85657,5.85657 0 0 0 5.85,5.85 h 138.7286 a 5.85658,5.85658 0 0 0 5.85,-5.85 v -175.5 a 5.85658,5.85658 0 0 0 -5.85,-5.85 z"
       transform="translate(-153.06664,-127.19206)"
       fill="#3f3d56"
       id="path88" />
    <path
       d="m 697.36117,211.55048 h -30.537 a 3.76489,3.76489 0 0 1 -3.76072,-3.76071 v -36.03569 a 3.76489,3.76489 0 0 1 3.76072,-3.76071 h 30.537 a 3.76488,3.76488 0 0 1 3.76071,3.76071 v 36.03569 a 3.76488,3.76488 0 0 1 -3.76071,3.76071 z"
       transform="translate(-153.06664,-127.19206)"
       fill="#e79cc2"
       id="path90" />
    <path
       d="m 756.69688,228.26477 h -30.537 a 3.76489,3.76489 0 0 1 -3.76071,-3.76071 v -36.03569 a 3.76489,3.76489 0 0 1 3.76071,-3.76072 h 30.537 a 3.7649,3.7649 0 0 1 3.76072,3.76072 v 36.03569 a 3.7649,3.7649 0 0 1 -3.76072,3.76071 z"
       transform="translate(-153.06664,-127.19206)"
       fill="#cccccc"
       id="path92" />
    <path
       d="m 709.06117,279.24334 h -30.537 a 3.76489,3.76489 0 0 1 -3.76072,-3.76071 v -36.03569 a 3.7649,3.7649 0 0 1 3.76072,-3.76072 h 30.537 a 3.76489,3.76489 0 0 1 3.76071,3.76072 v 36.03569 a 3.76488,3.76488 0 0 1 -3.76071,3.76071 z"
       transform="translate(-153.06664,-127.19206)"
       fill="#ff6584"
       id="path94" />
    <path
       d="m 597.30478,270.29886 a 7.60179,7.60179 0 0 0 -6.94971,-4.65 h -138.73 a 7.52416,7.52416 0 0 0 -7.52,7.52 v 175.5 a 7.52414,7.52414 0 0 0 7.52,7.51995 h 138.73 a 7.53041,7.53041 0 0 0 7.52,-7.51995 v -175.5 a 7.38318,7.38318 0 0 0 -0.57029,-2.87 z m -1.09961,178.37 a 5.85746,5.85746 0 0 1 -5.8501,5.85 h -138.73 a 5.85119,5.85119 0 0 1 -5.8501,-5.85 v -175.5 a 5.85763,5.85763 0 0 1 5.8501,-5.85 h 138.73 a 5.87941,5.87941 0 0 1 5.43018,3.68 6.493,6.493 0 0 1 0.21973,0.66 5.7954,5.7954 0 0 1 0.20019,1.51 z"
       transform="translate(-153.06664,-127.19206)"
       fill="#3f3d56"
       id="path96" />
    <path
       d="m 568.34965,307.08483 h -41.78571 a 3.34286,3.34286 0 1 1 0,-6.68572 h 41.78571 a 3.34286,3.34286 0 0 1 0,6.68572 z"
       transform="translate(-153.06664,-127.19206)"
       fill="#3f3d56"
       id="path98" />
    <path
       d="m 568.34965,324.63483 h -41.78571 a 3.34286,3.34286 0 1 1 0,-6.68572 h 41.78571 a 3.34286,3.34286 0 1 1 0,6.68572 z"
       transform="translate(-153.06664,-127.19206)"
       fill="#3f3d56"
       id="path100" />
    <path
       d="m 505.12354,334.62784 h -30.537 a 3.7649,3.7649 0 0 1 -3.76072,-3.76071 v -36.03569 a 3.7649,3.7649 0 0 1 3.76072,-3.76072 h 30.537 a 3.7649,3.7649 0 0 1 3.76072,3.76072 v 36.03569 a 3.7649,3.7649 0 0 1 -3.76072,3.76071 z"
       transform="translate(-153.06664,-127.19206)"
       fill="#e79cc2"
       id="path102" />
    <path
       d="M 568.06012,360.57054 H 473.6244 a 3.34286,3.34286 0 1 1 0,-6.68571 h 94.43572 a 3.34286,3.34286 0 0 1 0,6.68571 z"
       transform="translate(-153.06664,-127.19206)"
       fill="#cccccc"
       id="path104" />
    <path
       d="M 568.06012,378.12054 H 473.6244 a 3.34286,3.34286 0 1 1 0,-6.68571 h 94.43572 a 3.342855,3.342855 0 0 1 0,6.68571 z"
       transform="translate(-153.06664,-127.19206)"
       fill="#cccccc"
       id="path106" />
    <path
       d="M 568.06012,395.67054 H 473.6244 a 3.34286,3.34286 0 1 1 0,-6.68571 h 94.43572 a 3.342855,3.342855 0 0 1 0,6.68571 z"
       transform="translate(-153.06664,-127.19206)"
       fill="#cccccc"
       id="path108" />
    <path
       d="M 568.06012,413.22054 H 473.6244 a 3.34286,3.34286 0 1 1 0,-6.68571 h 94.43572 a 3.342855,3.342855 0 0 1 0,6.68571 z"
       transform="translate(-153.06664,-127.19206)"
       fill="#cccccc"
       id="path110" />
    <path
       d="M 568.06012,430.77054 H 473.6244 a 3.34286,3.34286 0 1 1 0,-6.68571 h 94.43572 a 3.34286,3.34286 0 0 1 0,6.68571 z"
       transform="translate(-153.06664,-127.19206)"
       fill="#cccccc"
       id="path112" />
    <rect
       x="608.89502"
       y="374.3183"
       width="109.19622"
       height="1.67162"
       transform="rotate(-43.59326,427.93133,502.9377)"
       fill="#e6e6e6"
       id="rect114" />
    <polygon
       points="479.589,285.067 471.347,285.166 471.851,276.94 470.181,276.839 469.569,286.858 479.607,286.74 "
       fill="#e6e6e6"
       id="polygon116" />
    <polygon
       points="549.001,218.983 549.504,210.756 541.263,210.855 541.245,209.183 551.281,209.063 550.671,219.083 "
       fill="#e6e6e6"
       id="polygon118" />
    <circle
       cx="510.42648"
       cy="247.96201"
       r="9.1928596"
       fill="#e6e6e6"
       id="circle120" />
    <rect
       x="502.89502"
       y="196.31831"
       width="109.19622"
       height="1.67162"
       transform="rotate(-43.59326,321.93132,324.93768)"
       fill="#e6e6e6"
       id="rect122" />
    <polygon
       points="373.589,107.067 365.347,107.166 365.851,98.94 364.181,98.839 363.569,108.858 373.607,108.74 "
       fill="#e6e6e6"
       id="polygon124" />
    <polygon
       points="443.001,40.983 443.504,32.756 435.263,32.855 435.245,31.183 445.281,31.063 444.671,41.083 "
       fill="#e6e6e6"
       id="polygon126" />
    <circle
       cx="404.42648"
       cy="69.961998"
       r="9.1928596"
       fill="#e6e6e6"
       id="circle128" />
    <rect
       x="757.93335"
       y="520.91339"
       width="2"
       height="9"
       fill="#3f3d56"
       id="rect130" />
  </g>
</svg>
