<?xml version="1.0" encoding="UTF-8" standalone="no"?>
<svg
   xmlns:dc="http://purl.org/dc/elements/1.1/"
   xmlns:cc="http://creativecommons.org/ns#"
   xmlns:rdf="http://www.w3.org/1999/02/22-rdf-syntax-ns#"
   xmlns:svg="http://www.w3.org/2000/svg"
   xmlns="http://www.w3.org/2000/svg"
   xmlns:sodipodi="http://sodipodi.sourceforge.net/DTD/sodipodi-0.dtd"
   xmlns:inkscape="http://www.inkscape.org/namespaces/inkscape"
   id="ad94a318-fdfb-45a5-9490-4bb7b0f90139"
   data-name="Layer 1"
   width="1079.94368"
   height="779.70903"
   viewBox="0 0 1079.94368 779.70903"
   version="1.1"
   sodipodi:docname="undraw_begin_chat_c6pj.svg"
   inkscape:version="1.0.1 (3bc2e813f5, 2020-09-07)">
  <metadata
     id="metadata183">
    <rdf:RDF>
      <cc:Work
         rdf:about="">
        <dc:format>image/svg+xml</dc:format>
        <dc:type
           rdf:resource="http://purl.org/dc/dcmitype/StillImage" />
      </cc:Work>
    </rdf:RDF>
  </metadata>
  <defs
     id="defs181" />
  <sodipodi:namedview
     pagecolor="#ffffff"
     bordercolor="#666666"
     borderopacity="1"
     objecttolerance="10"
     gridtolerance="10"
     guidetolerance="10"
     inkscape:pageopacity="0"
     inkscape:pageshadow="2"
     inkscape:window-width="750"
     inkscape:window-height="480"
     id="namedview179"
     showgrid="false"
     inkscape:zoom="0.28492979"
     inkscape:cx="469.58835"
     inkscape:cy="429.51322"
     inkscape:window-x="72"
     inkscape:window-y="27"
     inkscape:window-maximized="0"
     inkscape:current-layer="ad94a318-fdfb-45a5-9490-4bb7b0f90139" />
  <title
     id="title2">begin chat</title>
  <ellipse
     style="fill:#537280;fill-opacity:0.545098;stroke-width:1.7"
     id="path1374"
     cx="370.77591"
     cy="394.8027"
     rx="353.60162"
     ry="345.56653" />
  <g
     id="g1372"
     transform="matrix(0.75284591,0,0,0.75284591,162.40172,100.97092)">
    <path
       d="m 581.64981,78.4088 c -105.4864,0 -191,56.81583 -191,126.9017 0,31.29389 17.05887,59.9363 45.322,82.06248 v 92.10362 l 60.5461,-60.54614 a 271.67266,271.67266 0 0 0 85.13187,13.28173 c 105.48639,0 191,-56.81583 191,-126.90169 0,-70.08586 -85.51358,-126.9017 -190.99997,-126.9017 z"
       transform="translate(-60.02816,-59.9088)"
       fill="#f2f2f2"
       id="path4" />
    <g
       opacity="0.3"
       id="g24">
      <path
         d="m 902.58471,710.05937 a 20.81252,20.81252 0 1 0 8.3387,-39.13277 l -0.98562,10.67947 -3.7314,-9.80018 a 20.73405,20.73405 0 0 0 -12.22123,10.10949 20.4084,20.4084 0 0 0 -1.97438,5.40651 20.80854,20.80854 0 0 0 10.57393,22.73748 z"
         transform="translate(-60.02816,-59.9088)"
         fill="#57b894"
         id="path6" />
      <path
         d="m 910.00074,836.5912 c -0.49451,-9.27109 8.31332,-16.18134 16.63109,-20.306 8.31777,-4.12466 17.89981,-7.97772 21.73547,-16.43263 5.51252,-12.15118 -3.91862,-25.32906 -11.121,-36.56135 a 125.3002,125.3002 0 0 1 -12.91856,-26.63091 c -1.29809,-3.75147 -2.42859,-7.64108 -2.34816,-11.61 0.11584,-5.71565 2.71274,-11.052 5.29035,-16.15471 q 12.88016,-25.49811 26.95418,-50.36938"
         transform="translate(-60.02816,-59.9088)"
         fill="none"
         stroke="#3f3d56"
         stroke-miterlimit="10"
         id="path8" />
      <path
         d="m 903.81992,707.44879 a 20.81252,20.81252 0 1 0 8.33869,-39.13278 l -0.98561,10.67948 -3.7314,-9.80018 a 20.734,20.734 0 0 0 -12.22123,10.10949 20.40859,20.40859 0 0 0 -1.97439,5.4065 20.80855,20.80855 0 0 0 10.57394,22.73749 z"
         transform="translate(-60.02816,-59.9088)"
         fill="none"
         stroke="#3f3d56"
         stroke-miterlimit="10"
         id="path10" />
      <path
         d="M 933.58025,651.86777 A 20.78824,20.78824 0 0 1 950.26208,640.9 l 0.26936,10.32343 4.64475,-10.1448 a 20.81,20.81 0 1 1 -21.59594,10.78916 z"
         transform="translate(-60.02816,-59.9088)"
         fill="#57b894"
         id="path12" />
      <path
         d="m 935.2272,648.387 a 20.7882,20.7882 0 0 1 16.6818,-10.9678 l 0.26936,10.32344 4.64475,-10.14481 A 20.81,20.81 0 1 1 935.2272,648.387 Z"
         transform="translate(-60.02816,-59.9088)"
         fill="none"
         stroke="#3f3d56"
         stroke-miterlimit="10"
         id="path14" />
      <path
         d="m 933.6,762.98355 a 20.81,20.81 0 0 0 23.42627,-34.07564 l -3.56911,7.796 -0.2698,-10.44473 a 0.36282,0.36282 0 0 0 -0.0496,-0.0273 A 20.81113,20.81113 0 1 0 933.6,762.98355 Z"
         transform="translate(-60.02816,-59.9088)"
         fill="#57b894"
         id="path16" />
      <path
         d="m 935.1025,759.43443 a 20.81,20.81 0 0 0 23.42627,-34.07565 l -3.56912,7.796 -0.26979,-10.44478 a 0.36409,0.36409 0 0 0 -0.0496,-0.0273 20.81113,20.81113 0 1 0 -19.53772,36.75173 z"
         transform="translate(-60.02816,-59.9088)"
         fill="none"
         stroke="#3f3d56"
         stroke-miterlimit="10"
         id="path18" />
      <path
         d="m 907.30272,794.16821 a 20.80131,20.80131 0 1 0 6.25521,-15.57438 l 7.225,15.11843 -11.50663,-9.11037 a 20.61639,20.61639 0 0 0 -1.97358,9.56632 z"
         transform="translate(-60.02816,-59.9088)"
         fill="#57b894"
         id="path20" />
      <path
         d="m 908.53792,791.55763 a 20.80131,20.80131 0 1 0 6.25521,-15.57438 l 7.225,15.11842 -11.50663,-9.11037 a 20.61655,20.61655 0 0 0 -1.97358,9.56633 z"
         transform="translate(-60.02816,-59.9088)"
         fill="none"
         stroke="#3f3d56"
         stroke-miterlimit="10"
         id="path22" />
    </g>
    <g
       opacity="0.3"
       id="g44">
      <path
         d="m 352.359,713.05937 a 20.81252,20.81252 0 1 1 -8.3387,-39.13277 l 0.98562,10.67947 3.7314,-9.80018 a 20.73405,20.73405 0 0 1 12.22123,10.10949 20.40878,20.40878 0 0 1 1.97439,5.40651 20.80855,20.80855 0 0 1 -10.57394,22.73748 z"
         transform="translate(-60.02816,-59.9088)"
         fill="#ff6584"
         id="path26" />
      <path
         d="m 344.94294,839.5912 c 0.49451,-9.27109 -8.31332,-16.18134 -16.63109,-20.306 -8.31777,-4.12466 -17.89981,-7.97772 -21.73547,-16.43263 -5.51252,-12.15118 3.91862,-25.32906 11.121,-36.56135 A 125.3002,125.3002 0 0 0 330.616,739.66034 c 1.29809,-3.75147 2.42859,-7.64108 2.34816,-11.61 -0.11584,-5.71565 -2.71274,-11.052 -5.29035,-16.15471 q -12.88016,-25.49811 -26.95418,-50.36938"
         transform="translate(-60.02816,-59.9088)"
         fill="none"
         stroke="#3f3d56"
         stroke-miterlimit="10"
         id="path28" />
      <path
         d="m 351.12376,710.44879 a 20.81252,20.81252 0 1 1 -8.33869,-39.13278 l 0.98561,10.67948 3.7314,-9.80018 a 20.734,20.734 0 0 1 12.22124,10.10949 20.40891,20.40891 0 0 1 1.97438,5.4065 20.80855,20.80855 0 0 1 -10.57394,22.73749 z"
         transform="translate(-60.02816,-59.9088)"
         fill="none"
         stroke="#3f3d56"
         stroke-miterlimit="10"
         id="path30" />
      <path
         d="M 321.36343,654.86777 A 20.78824,20.78824 0 0 0 304.6816,643.9 l -0.26935,10.32343 -4.64476,-10.1448 a 20.81,20.81 0 1 0 21.59594,10.78916 z"
         transform="translate(-60.02816,-59.9088)"
         fill="#ff6584"
         id="path32" />
      <path
         d="m 319.71649,651.387 a 20.78823,20.78823 0 0 0 -16.68183,-10.9678 l -0.26936,10.32344 -4.64475,-10.14481 a 20.81,20.81 0 1 0 21.59594,10.78917 z"
         transform="translate(-60.02816,-59.9088)"
         fill="none"
         stroke="#3f3d56"
         stroke-miterlimit="10"
         id="path34" />
      <path
         d="M 321.34367,765.98355 A 20.81,20.81 0 0 1 297.9174,731.90791 l 3.56911,7.796 0.2698,-10.44473 a 0.36282,0.36282 0 0 1 0.0496,-0.0273 20.81113,20.81113 0 1 1 19.53773,36.75172 z"
         transform="translate(-60.02816,-59.9088)"
         fill="#ff6584"
         id="path36" />
      <path
         d="m 319.84118,762.43443 a 20.81,20.81 0 0 1 -23.42627,-34.07565 l 3.56912,7.796 0.26979,-10.44474 a 0.36409,0.36409 0 0 1 0.0496,-0.0273 20.81113,20.81113 0 1 1 19.53772,36.75173 z"
         transform="translate(-60.02816,-59.9088)"
         fill="none"
         stroke="#3f3d56"
         stroke-miterlimit="10"
         id="path38" />
      <path
         d="m 347.641,797.16821 a 20.80131,20.80131 0 1 1 -6.25521,-15.57438 l -7.225,15.11843 11.50663,-9.11037 a 20.61639,20.61639 0 0 1 1.97358,9.56632 z"
         transform="translate(-60.02816,-59.9088)"
         fill="#ff6584"
         id="path40" />
      <path
         d="m 346.40576,794.55763 a 20.80131,20.80131 0 1 1 -6.25521,-15.57438 l -7.225,15.11842 11.50663,-9.11037 a 20.61655,20.61655 0 0 1 1.97358,9.56633 z"
         transform="translate(-60.02816,-59.9088)"
         fill="none"
         stroke="#3f3d56"
         stroke-miterlimit="10"
         id="path42" />
    </g>
    <g
       opacity="0.3"
       id="g64">
      <path
         d="m 872.359,712.05937 a 20.81252,20.81252 0 1 1 -8.3387,-39.13277 l 0.98562,10.67947 3.7314,-9.80018 a 20.73405,20.73405 0 0 1 12.22123,10.10949 20.40878,20.40878 0 0 1 1.97439,5.40651 20.80855,20.80855 0 0 1 -10.57394,22.73748 z"
         transform="translate(-60.02816,-59.9088)"
         fill="#ff6584"
         id="path46" />
      <path
         d="m 864.94294,838.5912 c 0.49451,-9.27109 -8.31332,-16.18134 -16.63109,-20.306 -8.31777,-4.12466 -17.89981,-7.97772 -21.73547,-16.43263 -5.51252,-12.15118 3.91862,-25.32906 11.121,-36.56135 A 125.3002,125.3002 0 0 0 850.616,738.66034 c 1.29809,-3.75147 2.42859,-7.64108 2.34816,-11.61 -0.11584,-5.71565 -2.71274,-11.052 -5.29035,-16.15471 q -12.88015,-25.49811 -26.95418,-50.36938"
         transform="translate(-60.02816,-59.9088)"
         fill="none"
         stroke="#3f3d56"
         stroke-miterlimit="10"
         id="path48" />
      <path
         d="m 871.12376,709.44879 a 20.81252,20.81252 0 1 1 -8.33869,-39.13278 l 0.98561,10.67948 3.7314,-9.80018 a 20.734,20.734 0 0 1 12.22124,10.10949 20.40891,20.40891 0 0 1 1.97438,5.4065 20.80855,20.80855 0 0 1 -10.57394,22.73749 z"
         transform="translate(-60.02816,-59.9088)"
         fill="none"
         stroke="#3f3d56"
         stroke-miterlimit="10"
         id="path50" />
      <path
         d="M 841.36343,653.86777 A 20.78824,20.78824 0 0 0 824.6816,642.9 l -0.26935,10.32343 -4.64476,-10.1448 a 20.81,20.81 0 1 0 21.59594,10.78916 z"
         transform="translate(-60.02816,-59.9088)"
         fill="#ff6584"
         id="path52" />
      <path
         d="m 839.71649,650.387 a 20.78823,20.78823 0 0 0 -16.68183,-10.9678 l -0.26936,10.32344 -4.64475,-10.14481 a 20.81,20.81 0 1 0 21.59594,10.78917 z"
         transform="translate(-60.02816,-59.9088)"
         fill="none"
         stroke="#3f3d56"
         stroke-miterlimit="10"
         id="path54" />
      <path
         d="M 841.34367,764.98355 A 20.81,20.81 0 0 1 817.9174,730.90791 l 3.56911,7.796 0.2698,-10.44473 a 0.36282,0.36282 0 0 1 0.0496,-0.0273 20.81113,20.81113 0 1 1 19.53773,36.75172 z"
         transform="translate(-60.02816,-59.9088)"
         fill="#ff6584"
         id="path56" />
      <path
         d="m 839.84118,761.43443 a 20.81,20.81 0 0 1 -23.42627,-34.07565 l 3.56912,7.796 0.26979,-10.44474 a 0.36409,0.36409 0 0 1 0.0496,-0.0273 20.81113,20.81113 0 1 1 19.53772,36.75173 z"
         transform="translate(-60.02816,-59.9088)"
         fill="none"
         stroke="#3f3d56"
         stroke-miterlimit="10"
         id="path58" />
      <path
         d="m 867.641,796.16821 a 20.80131,20.80131 0 1 1 -6.25521,-15.57438 l -7.225,15.11843 11.50663,-9.11037 a 20.61639,20.61639 0 0 1 1.97358,9.56632 z"
         transform="translate(-60.02816,-59.9088)"
         fill="#ff6584"
         id="path60" />
      <path
         d="m 866.40576,793.55763 a 20.80131,20.80131 0 1 1 -6.25521,-15.57438 l -7.225,15.11842 11.50663,-9.11037 a 20.61655,20.61655 0 0 1 1.97358,9.56633 z"
         transform="translate(-60.02816,-59.9088)"
         fill="none"
         stroke="#3f3d56"
         stroke-miterlimit="10"
         id="path62" />
    </g>
    <g
       opacity="0.3"
       id="g84">
      <path
         d="m 132.359,711.05937 a 20.81252,20.81252 0 1 1 -8.3387,-39.13277 l 0.98562,10.67947 3.7314,-9.80018 a 20.73405,20.73405 0 0 1 12.22123,10.10949 20.40878,20.40878 0 0 1 1.97439,5.40651 20.80855,20.80855 0 0 1 -10.57394,22.73748 z"
         transform="translate(-60.02816,-59.9088)"
         fill="#ff6584"
         id="path66" />
      <path
         d="m 124.94294,837.5912 c 0.49451,-9.27109 -8.31332,-16.18134 -16.63109,-20.306 -8.31777,-4.12466 -17.89985,-7.97769 -21.73547,-16.4326 -5.51252,-12.15118 3.91862,-25.32906 11.121,-36.56135 A 125.3002,125.3002 0 0 0 110.616,737.66034 c 1.29809,-3.75147 2.42859,-7.64108 2.34816,-11.61 -0.11584,-5.71565 -2.71274,-11.052 -5.29035,-16.15471 Q 94.79363,684.39755 80.7196,659.52628"
         transform="translate(-60.02816,-59.9088)"
         fill="none"
         stroke="#3f3d56"
         stroke-miterlimit="10"
         id="path68" />
      <path
         d="m 131.12376,708.44879 a 20.81252,20.81252 0 1 1 -8.33869,-39.13278 l 0.98561,10.67948 3.7314,-9.80018 a 20.734,20.734 0 0 1 12.22124,10.10949 20.40891,20.40891 0 0 1 1.97438,5.4065 20.80855,20.80855 0 0 1 -10.57394,22.73749 z"
         transform="translate(-60.02816,-59.9088)"
         fill="none"
         stroke="#3f3d56"
         stroke-miterlimit="10"
         id="path70" />
      <path
         d="M 101.36343,652.86777 A 20.78824,20.78824 0 0 0 84.6816,641.9 l -0.26935,10.32343 -4.64476,-10.1448 a 20.81,20.81 0 1 0 21.59594,10.78916 z"
         transform="translate(-60.02816,-59.9088)"
         fill="#ff6584"
         id="path72" />
      <path
         d="M 99.71649,649.387 A 20.78823,20.78823 0 0 0 83.03466,638.4192 L 82.7653,648.74264 78.12055,638.59783 A 20.81,20.81 0 1 0 99.71649,649.387 Z"
         transform="translate(-60.02816,-59.9088)"
         fill="none"
         stroke="#3f3d56"
         stroke-miterlimit="10"
         id="path74" />
      <path
         d="M 101.34367,763.98355 A 20.81,20.81 0 0 1 77.9174,729.90791 l 3.56911,7.796 0.2698,-10.44473 a 0.36282,0.36282 0 0 1 0.04963,-0.0273 20.81113,20.81113 0 1 1 19.53773,36.75172 z"
         transform="translate(-60.02816,-59.9088)"
         fill="#ff6584"
         id="path76" />
      <path
         d="M 99.84118,760.43443 A 20.81,20.81 0 0 1 76.41491,726.35878 l 3.56912,7.796 0.26979,-10.44478 a 0.36409,0.36409 0 0 1 0.04964,-0.0273 20.81113,20.81113 0 1 1 19.53772,36.75173 z"
         transform="translate(-60.02816,-59.9088)"
         fill="none"
         stroke="#3f3d56"
         stroke-miterlimit="10"
         id="path78" />
      <path
         d="m 127.641,795.16821 a 20.80131,20.80131 0 1 1 -6.25521,-15.57438 l -7.225,15.11843 11.50663,-9.11037 a 20.61639,20.61639 0 0 1 1.97358,9.56632 z"
         transform="translate(-60.02816,-59.9088)"
         fill="#ff6584"
         id="path80" />
      <path
         d="m 126.40576,792.55763 a 20.80131,20.80131 0 1 1 -6.25521,-15.57438 l -7.225,15.11842 11.50663,-9.11037 a 20.61655,20.61655 0 0 1 1.97358,9.56633 z"
         transform="translate(-60.02816,-59.9088)"
         fill="none"
         stroke="#3f3d56"
         stroke-miterlimit="10"
         id="path82" />
    </g>
    <g
       opacity="0.3"
       id="g104">
      <path
         d="m 126.76815,618.71937 a 35.75043,35.75043 0 1 0 14.32368,-67.2198 l -1.693,18.34453 -6.40959,-16.8341 a 35.61557,35.61557 0 0 0 -20.99286,17.36543 35.05685,35.05685 0 0 0 -3.39147,9.287 35.74361,35.74361 0 0 0 18.16324,39.05694 z"
         transform="translate(-60.02816,-59.9088)"
         fill="#57b894"
         id="path86" />
      <path
         d="m 139.50694,836.0677 c -0.84945,-15.92529 14.28009,-27.79528 28.56782,-34.8803 14.28773,-7.08502 30.74716,-13.70362 37.33581,-28.22692 9.46906,-20.87254 -6.73116,-43.50865 -19.103,-62.80278 a 215.23227,215.23227 0 0 1 -22.19068,-45.74488 c -2.22978,-6.444 -4.17168,-13.12536 -4.03352,-19.94287 0.199,-9.818 4.65977,-18.98436 9.08742,-27.74952 q 22.12471,-43.799 46.30019,-86.52133"
         transform="translate(-60.02816,-59.9088)"
         fill="none"
         stroke="#3f3d56"
         stroke-miterlimit="10"
         id="path88" />
      <path
         d="m 128.8899,614.23507 a 35.75043,35.75043 0 1 0 14.32369,-67.21979 l -1.693,18.34452 -6.40959,-16.83412 a 35.61559,35.61559 0 0 0 -20.99286,17.36544 35.05651,35.05651 0 0 0 -3.39147,9.287 35.74359,35.74359 0 0 0 18.16323,39.05695 z"
         transform="translate(-60.02816,-59.9088)"
         fill="none"
         stroke="#3f3d56"
         stroke-miterlimit="10"
         id="path90" />
      <path
         d="m 180.01032,518.76154 a 35.70865,35.70865 0 0 1 28.655,-18.83978 l 0.46268,17.73294 7.97847,-17.4261 a 35.746,35.746 0 1 1 -37.09613,18.53294 z"
         transform="translate(-60.02816,-59.9088)"
         fill="#57b894"
         id="path92" />
      <path
         d="m 182.83933,512.78248 a 35.70867,35.70867 0 0 1 28.655,-18.83978 l 0.46268,17.73294 7.97847,-17.4261 a 35.746,35.746 0 1 1 -37.09613,18.53294 z"
         transform="translate(-60.02816,-59.9088)"
         fill="none"
         stroke="#3f3d56"
         stroke-miterlimit="10"
         id="path94" />
      <path
         d="m 180.04426,709.62916 a 35.74611,35.74611 0 0 0 40.24015,-58.533 l -6.13079,13.39143 -0.46344,-17.9413 a 0.62351,0.62351 0 0 0 -0.0853,-0.0469 35.748027,35.748027 0 1 0 -33.56066,63.12977 z"
         transform="translate(-60.02816,-59.9088)"
         fill="#57b894"
         id="path96" />
      <path
         d="m 182.62514,703.5327 a 35.74611,35.74611 0 0 0 40.24015,-58.533 l -6.1308,13.39142 -0.46344,-17.94129 a 0.62243,0.62243 0 0 0 -0.0853,-0.0469 35.748025,35.748025 0 1 0 -33.56065,63.12977 z"
         transform="translate(-60.02816,-59.9088)"
         fill="none"
         stroke="#3f3d56"
         stroke-miterlimit="10"
         id="path98" />
      <path
         d="m 134.87244,763.19619 a 35.73117,35.73117 0 1 0 10.7448,-26.75268 L 158.0279,762.413 138.26255,746.76379 a 35.41352,35.41352 0 0 0 -3.39011,16.4324 z"
         transform="translate(-60.02816,-59.9088)"
         fill="#57b894"
         id="path100" />
      <path
         d="m 136.9942,758.7119 a 35.73116,35.73116 0 1 0 10.7448,-26.75269 l 12.41066,25.96947 -19.76536,-15.64921 a 35.41353,35.41353 0 0 0 -3.3901,16.43243 z"
         transform="translate(-60.02816,-59.9088)"
         fill="none"
         stroke="#3f3d56"
         stroke-miterlimit="10"
         id="path102" />
    </g>
    <g
       opacity="0.3"
       id="g128">
      <g
         id="g1282">
        <path
           d="m 982.69177,838.18123 c -1.09964,-20.61569 18.48593,-35.98168 36.98173,-45.1534 18.4958,-9.17172 39.803,-17.73968 48.3321,-36.54044 12.258,-27.02 -8.7136,-56.323 -24.7293,-81.29973 A 278.6237,278.6237 0 0 1 1014.55,615.9698 c -2.8865,-8.34195 -5.4003,-16.9911 -5.2215,-25.81653 0.2576,-12.7096 6.0322,-24.57572 11.7639,-35.92244 q 28.641,-56.69892 59.9367,-112.004"
           transform="translate(-60.02816,-59.9088)"
           fill="none"
           stroke="#3f3d56"
           stroke-miterlimit="10"
           id="path106" />
        <path
           d="m 1105.1072,400.18977 -20.1354,5.75293 1.3982,-9.32147 c -1.7727,-0.11408 -3.5717,-0.17853 -5.3982,-0.17853 -26.2335,0 -47.5,12.08832 -47.5,27 0,14.91168 21.2665,27 47.5,27 26.2336,0 47.5,-12.08832 47.5,-27 0,-9.90179 -9.3828,-18.5537 -23.3646,-23.25293 z"
           transform="translate(-60.02816,-59.9088)"
           fill="#ff6584"
           id="path108" />
        <path
           d="m 1105.1072,397.18977 -20.1354,5.75293 1.3982,-9.32147 c -1.7727,-0.11408 -3.5717,-0.17853 -5.3982,-0.17853 -26.2335,0 -47.5,12.08832 -47.5,27 0,14.91168 21.2665,27 47.5,27 26.2336,0 47.5,-12.08832 47.5,-27 0,-9.90179 -9.3828,-18.5537 -23.3646,-23.25293 z"
           transform="translate(-60.02816,-59.9088)"
           fill="none"
           stroke="#3f3d56"
           stroke-miterlimit="10"
           id="path110" />
        <path
           d="m 1046.1072,743.18977 -20.1354,5.75293 1.3982,-9.32147 c -1.7727,-0.11408 -3.5717,-0.17853 -5.3982,-0.17853 -26.23348,0 -47.49996,12.08832 -47.49996,27 0,14.91168 21.26648,27 47.49996,27 26.2336,0 47.5,-12.08832 47.5,-27 0,-9.90179 -9.3828,-18.5537 -23.3646,-23.25293 z"
           transform="translate(-60.02816,-59.9088)"
           fill="#ff6584"
           id="path112" />
        <path
           d="m 1046.1072,740.18977 -20.1354,5.75293 1.3982,-9.32147 c -1.7727,-0.11408 -3.5717,-0.17853 -5.3982,-0.17853 -26.23348,0 -47.49996,12.08832 -47.49996,27 0,14.91168 21.26648,27 47.49996,27 26.2336,0 47.5,-12.08832 47.5,-27 0,-9.90179 -9.3828,-18.5537 -23.3646,-23.25293 z"
           transform="translate(-60.02816,-59.9088)"
           fill="none"
           stroke="#3f3d56"
           stroke-miterlimit="10"
           id="path114" />
        <path
           d="m 1116.1072,671.18977 -20.1354,5.75293 1.3982,-9.32147 c -1.7727,-0.11408 -3.5717,-0.17853 -5.3982,-0.17853 -26.2335,0 -47.5,12.08832 -47.5,27 0,14.91168 21.2665,27 47.5,27 26.2336,0 47.5,-12.08832 47.5,-27 0,-9.90179 -9.3828,-18.5537 -23.3646,-23.25293 z"
           transform="translate(-60.02816,-59.9088)"
           fill="#ff6584"
           id="path116" />
        <path
           d="m 1116.1072,668.18977 -20.1354,5.75293 1.3982,-9.32147 c -1.7727,-0.11408 -3.5717,-0.17853 -5.3982,-0.17853 -26.2335,0 -47.5,12.08832 -47.5,27 0,14.91168 21.2665,27 47.5,27 26.2336,0 47.5,-12.08832 47.5,-27 0,-9.90179 -9.3828,-18.5537 -23.3646,-23.25293 z"
           transform="translate(-60.02816,-59.9088)"
           fill="none"
           stroke="#3f3d56"
           stroke-miterlimit="10"
           id="path118" />
        <path
           d="m 1033.3367,487.46017 -20.5599,-3.97753 5.4635,-7.68079 c -1.5294,-0.90362 -3.1047,-1.77491 -4.7336,-2.60109 -23.39608,-11.86672 -47.83053,-10.70574 -54.57582,2.59311 -6.74529,13.29885 6.75288,33.69958 30.149,45.56629 23.39612,11.86671 47.83062,10.70574 54.57592,-2.5931 4.479,-8.83083 0.025,-20.79127 -10.3191,-31.30689 z"
           transform="translate(-60.02816,-59.9088)"
           fill="#ff6584"
           id="path120" />
        <path
           d="m 1034.6937,484.78465 -20.5599,-3.97753 5.4636,-7.6808 c -1.5294,-0.90361 -3.1047,-1.77491 -4.7336,-2.60108 -23.39613,-11.86672 -47.83059,-10.70574 -54.57587,2.5931 -6.74528,13.29884 6.75288,33.69958 30.149,45.5663 23.39607,11.86672 47.83057,10.70574 54.57587,-2.59311 4.4791,-8.83082 0.025,-20.79126 -10.3191,-31.30688 z"
           transform="translate(-60.02816,-59.9088)"
           fill="none"
           stroke="#3f3d56"
           stroke-miterlimit="10"
           id="path122" />
        <path
           d="m 1078.3367,592.46017 -20.5599,-3.97753 5.4635,-7.68079 c -1.5293,-0.90362 -3.1047,-1.77491 -4.7336,-2.60109 -23.3961,-11.86672 -47.8305,-10.70574 -54.5758,2.59311 -6.74531,13.29885 6.7529,33.69958 30.149,45.56629 23.3961,11.86671 47.8306,10.70574 54.5759,-2.5931 4.479,-8.83083 0.025,-20.79127 -10.3191,-31.30689 z"
           transform="translate(-60.02816,-59.9088)"
           fill="#ff6584"
           id="path124" />
        <path
           d="m 1079.6937,589.78465 -20.5599,-3.97753 5.4636,-7.6808 c -1.5294,-0.90361 -3.1047,-1.77491 -4.7336,-2.60108 -23.3961,-11.86672 -47.8306,-10.70574 -54.5759,2.5931 -6.74525,13.29884 6.7529,33.69958 30.149,45.5663 23.3961,11.86672 47.8306,10.70574 54.5759,-2.59311 4.4791,-8.83082 0.025,-20.79126 -10.3191,-31.30688 z"
           transform="translate(-60.02816,-59.9088)"
           fill="none"
           stroke="#3f3d56"
           stroke-miterlimit="10"
           id="path126" />
      </g>
    </g>
    <line
       x1="8.9436798"
       y1="778.03387"
       x2="1060.9437"
       y2="778.03387"
       fill="none"
       stroke="#3f3d56"
       stroke-miterlimit="10"
       id="line130" />
    <path
       d="m 595.14981,60.4088 c -105.4864,0 -191,56.81583 -191,126.9017 0,31.29389 17.05887,59.9363 45.322,82.06248 v 92.10362 l 60.5461,-60.54614 a 271.67266,271.67266 0 0 0 85.13187,13.28173 c 105.48639,0 191,-56.81583 191,-126.90169 0,-70.08586 -85.51358,-126.9017 -190.99997,-126.9017 z"
       transform="translate(-60.02816,-59.9088)"
       fill="none"
       stroke="#3f3d56"
       stroke-miterlimit="10"
       id="path132" />
    <path
       d="m 512.15993,388.77323 c 0,0 -3.84207,-51.7406 -2.03317,-61.2037 1.8089,-9.4631 3.508,-36.40025 -6.43762,-27.54543 -9.94562,8.85482 -6.41234,28.945 -6.41234,28.945 0,0 -9.43783,54.68156 -0.7088,62.10017 8.72903,7.41861 15.59193,-2.29604 15.59193,-2.29604 z"
       transform="translate(-60.02816,-59.9088)"
       fill="#a0616a"
       id="path134" />
    <path
       d="m 519.32289,439.94013 c 0,0 -29.60358,-26.4032 -28.00339,-48.80591 0,0 17.60213,-13.60164 21.60261,-6.40077 4.00048,7.20087 33.07874,35.293 28.14077,44.84978 -4.93797,9.55678 -21.73999,10.3569 -21.73999,10.3569 z"
       transform="translate(-60.02816,-59.9088)"
       fill="#e79cc2"
       id="path136" />
    <path
       d="m 624.13557,392.73442 c 0,0 17.60213,-48.80591 18.40223,-58.40707 0.8001,-9.60116 6.40078,-36.00436 13.60165,-24.803 7.20087,11.20136 -1.6002,29.60359 -1.6002,29.60359 0,0 -5.60067,55.20668 -16.00193,60.00726 -10.40126,4.80058 -14.40175,-6.40078 -14.40175,-6.40078 z"
       transform="translate(-60.02816,-59.9088)"
       fill="#a0616a"
       id="path138" />
    <path
       d="m 576.12976,637.564 h 47.20572 l 2.40029,24.0029 -11.20136,2.40029 c 0,0 -26.40319,-8.001 -41.605,-5.60068 -15.20181,2.40032 3.20035,-20.80251 3.20035,-20.80251 z"
       transform="translate(-60.02816,-59.9088)"
       fill="#a0616a"
       id="path140" />
    <path
       d="m 607.33354,634.36366 c 0,0 22.40271,-15.20184 26.4032,-2.40029 4.00049,12.80155 18.40222,59.20716 13.60164,64.00774 -4.80058,4.80058 -10.40126,-4.00048 -10.40126,-4.00048 0,0 -9.60116,-20.00242 -16.802,-20.80252 -7.20084,-0.8001 -11.20136,-7.20087 -11.20136,-7.20087 0,0 20.80249,-16.00194 -1.60022,-29.60358 z"
       transform="translate(-60.02816,-59.9088)"
       fill="#2f2e41"
       id="path142" />
    <path
       d="m 564.12831,758.37867 c 0,0 8.80107,36.00435 7.20087,41.605 -1.6002,5.60065 25.6031,2.40029 25.6031,2.40029 l 1.6002,-10.40126 c 0,0 -16.00194,-25.60309 -16.00194,-36.80445 0,-11.20136 -18.40223,3.20042 -18.40223,3.20042 z"
       transform="translate(-60.02816,-59.9088)"
       fill="#a0616a"
       id="path144" />
    <path
       d="m 596.93228,784.78186 c 0,0 21.60262,16.00194 10.40126,24.00291 -11.20136,8.00097 -52.80639,28.80348 -52.80639,28.80348 0,0 -15.20184,2.40029 -4.00048,-11.20135 11.20136,-13.60164 14.40174,-16.00194 15.20184,-23.20281 a 35.12235,35.12235 0 0 1 4.93378,-13.50807 c 0,0 11.06815,22.30914 26.26999,-4.89416 z"
       transform="translate(-60.02816,-59.9088)"
       fill="#2f2e41"
       id="path146" />
    <path
       d="m 531.32434,592.75862 c 0,0 -8.80106,83.21007 4.80058,109.61327 13.60164,26.4032 29.60359,62.40755 28.80349,64.00775 -0.8001,1.6002 23.20281,-2.40029 23.20281,-9.60117 0,-7.20088 -26.4032,-79.20958 -26.4032,-79.20958 0,0 11.20136,-93.61133 20.00242,-100.01211 8.80106,-6.40078 -50.4061,15.20184 -50.4061,15.20184 z"
       transform="translate(-60.02816,-59.9088)"
       fill="#2f2e41"
       id="path148" />
    <path
       d="m 531.32434,592.75862 c 0,0 -8.80106,83.21007 4.80058,109.61327 13.60164,26.4032 29.60359,62.40755 28.80349,64.00775 -0.8001,1.6002 23.20281,-2.40029 23.20281,-9.60117 0,-7.20088 -26.4032,-79.20958 -26.4032,-79.20958 0,0 11.20136,-93.61133 20.00242,-100.01211 8.80106,-6.40078 -50.4061,15.20184 -50.4061,15.20184 z"
       transform="translate(-60.02816,-59.9088)"
       opacity="0.1"
       id="path150" />
    <path
       d="m 549.408,357.9302 c -5.71909,1.03547 -11.38512,4.17742 -14.22925,9.54354 -2.653,5.00556 -2.82174,11.69636 -7.04249,15.29089 -2.51961,2.14579 -5.94042,2.642 -8.75359,4.32764 a 13.48165,13.48165 0 0 0 -6.20118,12.00756 c 0.22526,4.41433 2.55341,8.52613 2.504,12.94662 -0.0642,5.747 -4.03814,10.492 -7.77574,14.65147 l 12.39544,2.30022 a 12.33926,12.33926 0 0 0 5.73441,0.15205 c 2.141,-0.63381 3.88,-2.3967 6.04427,-2.93423 3.10353,-0.7708 6.17451,1.117 8.94366,2.792 7.88245,4.76774 16.33437,8.36624 24.7557,11.94919 2.4775,1.05409 5.2865,2.10927 7.73121,0.97222 1.97439,-0.91831 3.20232,-3.06489 5.05944,-4.22647 3.32564,-2.08013 7.50159,-0.51438 11.23869,0.51252 a 37.15163,37.15163 0 0 0 25.38312,-2.16146 c -1.71207,-1.99985 -3.956,-3.39847 -5.80095,-5.26048 -1.84495,-1.86201 -3.33756,-4.49874 -2.85015,-7.15065 0.49706,-2.70439 2.82217,-4.50972 4.40694,-6.69233 a 15.724,15.724 0 0 0 2.39236,-11.92405 21.75365,21.75365 0 0 0 -5.70746,-10.80127 57.05128,57.05128 0 0 1 -4.66873,-4.923 c -2.9161,-3.93793 -3.638,-9.15131 -4.57086,-14.06082 -0.93286,-4.90951 -2.40574,-10.13442 -6.19237,-13.12385 -6.0326,-4.76258 -15.829,-3.13919 -22.88141,-3.61191 -6.72385,-0.45074 -13.20673,-0.5754 -19.91506,-0.5754 z"
       transform="translate(-60.02816,-59.9088)"
       fill="#2f2e41"
       id="path152" />
    <path
       d="m 509.72173,535.95175 15.20184,37.60455 c 0,0 -69.60843,76.0092 -30.40368,86.41046 39.20475,10.40126 52.80639,-8.001 77.60939,6.40077 0,0 12.00145,-18.40223 10.40126,-29.60358 0,0 -34.40416,-6.40078 -52.80639,-5.60068 0,0 49.606,-43.20523 54.40658,-44.80542 4.80058,-1.60019 20.80252,-27.20329 -4.00048,-48.00581 -24.803,-20.80252 -18.40225,-32.00387 -18.40225,-32.00387 z"
       transform="translate(-60.02816,-59.9088)"
       fill="#2f2e41"
       id="path154" />
    <path
       d="m 545.72608,405.536 c 0,0 2.4003,24.803 -8.001,28.00339 -10.4013,3.20039 40.80493,2.40029 40.80493,2.40029 0,0 -12.00145,-7.20087 -6.40077,-22.40271 5.60068,-15.20184 -26.40316,-8.00097 -26.40316,-8.00097 z"
       transform="translate(-60.02816,-59.9088)"
       fill="#a0616a"
       id="path156" />
    <path
       d="m 545.72608,405.536 c 0,0 2.4003,24.803 -8.001,28.00339 -10.4013,3.20039 40.80493,2.40029 40.80493,2.40029 0,0 -12.00145,-7.20087 -6.40077,-22.40271 5.60068,-15.20184 -26.40316,-8.00097 -26.40316,-8.00097 z"
       transform="translate(-60.02816,-59.9088)"
       opacity="0.1"
       id="path158" />
    <path
       d="m 600.13267,448.74119 c 0,0 -4.80058,-24.803 -14.40174,-23.2028 -9.60116,1.6002 -28.80349,3.20038 -31.20378,4.80058 -2.40029,1.6002 -15.20184,4.87942 -15.20184,4.87942 0,0 4.80058,-5.67952 0,-6.47962 -4.80058,-0.8001 -20.00242,3.20039 -21.60261,6.40078 -1.60019,3.20039 -8.001,9.60116 -8.001,20.80251 0,11.20135 -4.80058,30.40368 -3.20039,38.40465 1.60019,8.00097 -0.8001,26.4032 -5.60068,36.80446 -4.80058,10.40126 -0.80009,20.80251 7.20087,10.40126 8.00096,-10.40125 4.00049,0 10.40126,0.80009 6.40077,0.80009 35.20429,-28.80352 43.20524,-21.60261 8.00095,7.20091 16.00194,12.00145 17.60213,8.001 1.60019,-4.00045 -6.40077,-11.20136 -6.40077,-14.40175 0,-3.20039 -12.80155,10.40126 0.80009,-17.60213 13.60164,-28.00339 0.80012,-36.00438 26.40322,-48.00584 z"
       transform="translate(-60.02816,-59.9088)"
       fill="#e79cc2"
       id="path160" />
    <path
       d="m 593.73189,447.141 6.40078,1.60019 c 0,0 23.20281,-16.802 29.60358,-28.80348 6.40077,-12.00148 11.20136,-21.60262 11.20136,-21.60262 0,0 -10.40126,-12.80155 -16.802,-8.001 -6.40074,4.80055 -35.20426,37.60456 -35.20426,37.60456 z"
       transform="translate(-60.02816,-59.9088)"
       fill="#e79cc2"
       id="path162" />
    <circle
       cx="504.10016"
       cy="337.62619"
       r="24.802999"
       fill="#a0616a"
       id="circle164" />
    <path
       d="m 542.18677,390.34991 a 21.7837,21.7837 0 0 1 15.14908,-4.98222 c 9.50754,0.58506 17.87685,7.35994 27.4,7.57163 a 9.81952,9.81952 0 0 1 0.81893,-6.07049 c 0.7385,-1.51341 1.904,-2.97985 1.74722,-4.6565 a 5.67954,5.67954 0 0 0 -2.05426,-3.36417 c -5.50468,-5.21967 -13.11558,-7.90984 -20.69427,-8.24123 -5.08113,-0.22219 -14.77917,-0.10179 -18.71994,3.74566 -3.37153,3.29171 -2.97953,11.73041 -3.64676,15.99732 z"
       transform="translate(-60.02816,-59.9088)"
       fill="#2f2e41"
       id="path166" />
    <circle
       cx="535.12164"
       cy="151.03391"
       r="52"
       fill="#e79cc2"
       id="circle168" />
    <ellipse
       cx="522.41589"
       cy="131.4409"
       rx="4.9873099"
       ry="6.5310001"
       fill="#444053"
       id="ellipse170" />
    <ellipse
       cx="548.18365"
       cy="131.4409"
       rx="4.9873099"
       ry="6.5310001"
       fill="#444053"
       id="ellipse172" />
    <path
       d="m 626.32048,211.89266 c 0,9.37813 -15.66245,25.174 -31.46754,25.174 -15.80509,0 -30.87381,-16.15215 -30.87381,-25.53027 0,-9.37812 14.74217,-0.80153 30.54726,-0.80153 15.80509,0 31.79409,-8.22032 31.79409,1.1578 z"
       transform="translate(-60.02816,-59.9088)"
       fill="#3f3d56"
       id="path174" />
    <path
       d="m 568.96,213.49573 c 0,0 28.40984,6.32319 52.27768,0.17811 0,0 2.92086,0 0.92546,3.377 a 5.37878,5.37878 0 0 1 -2.18872,2.04678 c -4.60034,2.35056 -21.62977,9.29771 -48.86055,0.43734 a 5.35606,5.35606 0 0 1 -3.53441,-3.62139 c -0.3207,-1.15944 -0.18246,-2.25757 1.38054,-2.41784 z"
       transform="translate(-60.02816,-59.9088)"
       fill="#f6f8fb"
       id="path176" />
  </g>
</svg>
